<svg version="1.1" xmlns="http://www.w3.org/2000/svg" x="0px" y="0px" viewBox="0 0 256 256">
  <path fill="none" d="M231.5,98.9l-4.7-2l-11.8,27.9l4.7,2c3.9,1.6,7.7,1.7,11.6,0.1c3.9-1.6,6.6-4.3,8.2-8.2
    c1.6-3.9,1.7-7.7,0.1-11.6C238.1,103.3,235.3,100.5,231.5,98.9z"/>
  <path d="M253.7,101.4c-3.2-7.7-8.6-13.2-16.3-16.5l-4.3-1.8l-0.2-0.5l5.8-13.8c0.5-1.3,0.5-2.5,0-3.9c-0.5-1.3-1.4-2.2-2.7-2.8
    l-66.7-28.1c-1.3-0.5-2.5-0.5-3.8,0c-1.3,0.5-2.2,1.4-2.8,2.7l-33.8,80.3c-1.9,4.5-1.9,9,0,13.5c1.9,4.6,5,7.8,9.5,9.6l43.4,18.2
    c4.5,1.9,9,1.9,13.5,0c4.6-1.9,7.8-5,9.6-9.5l4.3-10.2l4.7,2c7.7,3.2,15.4,3.3,23.2,0.1c7.8-3.2,13.3-8.6,16.5-16.3
    C256.8,116.9,256.8,109.2,253.7,101.4z M154.1,117.4c-1.1,2.6-4.2,3.9-6.8,2.8c-2.6-1.1-3.9-4.2-2.8-6.8l23.9-56.9
    c1.1-2.6,4.2-3.9,6.8-2.8c2.7,1.1,3.9,4.2,2.8,6.8L154.1,117.4z M174.4,125.9c-1.1,2.6-4.2,3.9-6.8,2.8c-2.6-1.1-3.9-4.2-2.8-6.8
    L188.7,65c1.1-2.6,4.2-3.9,6.8-2.8c2.7,1.1,3.9,4.2,2.8,6.8L174.4,125.9z M194.7,134.5c-1.1,2.7-4.2,3.9-6.8,2.8
    c-2.6-1.1-3.9-4.2-2.8-6.8l24-56.9c1.1-2.6,4.2-3.9,6.8-2.8c2.7,1.1,3.9,4.2,2.8,6.8L194.7,134.5z M231.3,126.9
    c-3.9,1.6-7.7,1.5-11.6-0.1l-4.7-2l11.8-27.9l4.7,2c3.9,1.6,6.6,4.4,8.2,8.2c1.6,3.9,1.5,7.7-0.1,11.6
    C237.9,122.6,235.2,125.3,231.3,126.9z"/>
  <path fill="none" d="M24.5,98.9l4.7-2l11.8,27.9l-4.7,2c-3.9,1.6-7.8,1.7-11.6,0.1c-3.9-1.6-6.6-4.3-8.2-8.2
    c-1.6-3.9-1.7-7.7-0.1-11.6C17.9,103.3,20.6,100.5,24.5,98.9z"/>
  <path d="M2.5,124.6c3.2,7.7,8.7,13.1,16.5,16.3c7.7,3.2,15.5,3.1,23.2-0.1l4.7-2l4.3,10.2c1.9,4.5,5.1,7.6,9.6,9.5
    c4.5,1.9,9.1,1.8,13.5,0l43.4-18.2c4.5-1.9,7.6-5.1,9.5-9.6c1.9-4.6,1.8-9.1,0-13.5L93.3,36.8c-0.5-1.3-1.4-2.2-2.8-2.7
    c-1.3-0.5-2.6-0.5-3.9,0L20,62.2c-1.3,0.5-2.2,1.5-2.7,2.8c-0.5,1.3-0.5,2.6,0,3.9l5.8,13.8l-0.2,0.5l-4.3,1.8
    c-7.7,3.2-13.2,8.7-16.3,16.5C-0.8,109.2-0.8,116.9,2.5,124.6z M78,60.5c-1.1-2.6,0.1-5.7,2.8-6.8c2.6-1.1,5.7,0.1,6.8,2.8
    l24,56.9c1.1,2.6-0.1,5.7-2.8,6.8c-2.6,1.1-5.7-0.1-6.8-2.8L78,60.5z M57.7,69c-1.1-2.6,0.1-5.7,2.8-6.8c2.6-1.1,5.7,0.1,6.8,2.8
    l23.9,56.9c1.1,2.6-0.1,5.7-2.8,6.8c-2.6,1.1-5.7-0.1-6.8-2.8L57.7,69z M37.4,77.5c-1.1-2.7,0.1-5.7,2.8-6.8
    c2.7-1.1,5.7,0.1,6.8,2.8l23.9,56.9c1.1,2.6-0.1,5.7-2.8,6.8c-2.6,1.1-5.7-0.1-6.8-2.8L37.4,77.5z M16.4,118.7
    c-1.6-3.9-1.7-7.7-0.1-11.6c1.6-3.9,4.3-6.6,8.2-8.2l4.7-2l11.8,27.9l-4.7,2c-3.9,1.6-7.8,1.7-11.6,0.1
    C20.8,125.3,18.1,122.6,16.4,118.7z"/>
  <path fill="#FFFFFF" d="M84,16C83.2,4.5,60.5,5.2,59.3,16.1c-2.3-5.7-5.5-9.2-12.1-8.7c-5,0.4-9.9,3.9-10.8,9
    c0.9-4.7-10.4,0.1-11.5,1c-4.3,3.3-6.2,8.7-3.9,13.9c0.4,1,1,1.8,1.7,2.6c-1.5,0-3,0.3-4.5,1c-5.6,2.6-8.1,9.2-5.6,14.8
    c1.1,2.4,1.4,3,1.7,5c0.3,1.9-0.9,3.3,0.3,5.4c2.5,4.4,7.8,3.2,11.4,0.4c4.7,3.4,11.6,2.8,16.9,1.1c3.2-1,13.6-5.3,12.2-9.9
    c2.8,9.3,15.1,3.1,11.4-2.5c6.9,0.1,11.1-5.3,8.3-12.5c6,4.8,14.9,5.8,19.3-1.7c2.4-4.2,2.2-8.7-2.2-10.9
    C97.4,18.1,89.7,13.7,84,16z"/>
  <path fill="#FFFFFF" d="M241.2,44.2c7.6-8.8-9-24.3-17.6-17.4c2.4-5.7,2.6-10.5-2.4-14.7c-3.8-3.2-9.7-4.2-14-1.2
    c4-2.8-7.4-7.3-8.8-7.4c-5.4-0.7-10.6,1.8-12.6,7.1c-0.4,1-0.5,2-0.6,3c-1.1-1-2.4-1.9-3.9-2.5c-5.8-2.2-12.2,0.8-14.4,6.5
    c-0.9,2.4-1.1,3.1-2.3,4.7c-1.2,1.6-3,1.7-3.6,4.1c-1.4,4.9,3.3,7.7,7.8,8.3c1,5.7,6.3,10.2,11.2,12.7c3,1.5,13.4,5.8,15.7,1.6
    c-4.5,8.6,8.5,12.9,9.8,6.3c4.8,5,11.6,4,14.7-3c0.9,7.6,6.5,14.6,14.8,12.4c4.7-1.2,7.7-4.6,6.1-9.3
    C249.2,55.1,246.8,46.5,241.2,44.2z"/>
  <path d="M53.2,234.4c-5.2,13.2-19.1,18.3-28,18.3c-14.5,0-21.5-6.5-21.5-24.2c0-17.8,8.6-51.1,34.3-51.1c9.2,0,16.4,3.6,16.4,13.2
    c0,5.2-1.9,9-6.9,9c-1.6,0-3.7-0.4-5.6-2.6c2.4-1.2,4.5-5.3,4.5-9c0-3.2-1.6-6-6-6C29.6,182,20,207.9,20,227.9
    c0,9,2.4,15.3,11.8,15.3c7.7,0,14.6-3.7,19.2-9.8L53.2,234.4z"/>
  <path d="M75.3,210.5c-3.8,0-6.9,6-7.5,8.6l-6.8,32H46.9l14.3-66.9l14.6-2l-5.3,24.8c4.1-4.7,8.5-5.5,11.5-5.5
    c6.3,0,10.9,3.2,10.9,11.1c0,8-4.7,19.9-4.7,25.4c0,2.5,1,4.1,3.9,4.1c4.3,0,6.1-3.5,8.3-8.6h4.1c-5.5,16.1-13.1,18.2-18.3,18.2
    c-8.6,0-11.6-5.5-11.6-11.1c0-6.7,4.4-18.8,4.4-25.1C79,212.3,77.8,210.5,75.3,210.5z"/>
  <path d="M120.7,243.5c7.8,0,12.5-4.3,17.4-9.9h3.3c-5.6,9-14,18.2-27,18.2c-9.2,0-15.3-4.5-15.3-15.6c0-11.3,6.4-35,26.6-35
    c8.7,0,10.8,4.5,10.8,9.4c0,11.3-10.8,20.1-22.6,20.7c-0.1,1.4-0.2,2.8-0.2,3.9C113.6,241.9,115.9,243.5,120.7,243.5z
      M126.4,206.3c-5,0-9.8,10.5-11.8,20.3c7.6-0.5,14.3-8.1,14.3-16.2C128.8,207.9,128.2,206.3,126.4,206.3z"/>
  <path d="M158.4,243.5c7.8,0,12.5-4.3,17.4-9.9h3.3c-5.6,9-14,18.2-27,18.2c-9.2,0-15.3-4.5-15.3-15.6c0-11.3,6.4-35,26.5-35
    c8.8,0,10.8,4.5,10.8,9.4c0,11.3-10.8,20.1-22.6,20.7c-0.1,1.4-0.2,2.8-0.2,3.9C151.3,241.9,153.7,243.5,158.4,243.5z
      M164.1,206.3c-5,0-9.8,10.5-11.8,20.3c7.6-0.5,14.3-8.1,14.3-16.2C166.6,207.9,166,206.3,164.1,206.3z"/>
  <path d="M196.7,202l-1.3,6.1c3.4-2.9,7.2-6.1,11.9-6.1c4.4,0,6.8,3.6,6.8,7.4c0,3.4-2.3,7.2-7.1,7.2c-5.5,0-2.8-6.5-5.7-6.5
    c-3,0-4.7,1.5-7.2,3.7l-7.9,37.4h-14.2l10.4-49.2H196.7z"/>
  <path d="M235.8,198.9c1.2,25.5,2.2,29.3,2.2,35.8c0,12.8-11.6,17-19.7,17c-10,0-14.4-6.6-14.4-12.6c0-4.5,2.6-7.9,5.2-9.1
    c5.5-9.7,9-19.5,12.1-29.1L235.8,198.9z M211.8,238.4c-1,0-2.2-0.3-2.7-1.3c0,4.6,1.7,6.9,6,6.9c4.3,0,8.6-2.3,8.6-9.1
    c0-5.1-0.9-8.2-1.9-23.3c-2,6.4-4.7,12.3-8,18.6c1.3,0.6,2.3,1.8,2.3,3.4C216.1,235.9,214.3,238.4,211.8,238.4z"/>
</svg>
