<svg xmlns="http://www.w3.org/2000/svg" viewBox="0 0 320 160">
  <path fill="#BBBDBF" stroke="#808185" stroke-miterlimit="10" d="M57 16.2c0-4.9-0.1-8.9-0.4-12.9h7.7l0.5 7.9H65c2.4-4.5 7.9-8.9 15.7-8.9 6.6 0 16.8 3.9 16.8 20.2v28.4h-8.6V23.4c0-7.7-2.8-14.1-11-14.1 -5.7 0-10.1 4-11.6 8.8 -0.4 1.1-0.6 2.6-0.6 4v28.6H57V16.2z"/>
  <path fill="#BBBDBF" stroke="#808185" stroke-miterlimit="10" d="M137.9 50.9l-0.7-6h-0.3c-2.7 3.7-7.8 7.1-14.5 7.1 -9.6 0-14.5-6.8-14.5-13.7 0-11.5 10.2-17.8 28.6-17.7v-1c0-3.9-1.1-11-10.8-11 -4.4 0-9 1.4-12.4 3.5l-2-5.7c3.9-2.6 9.6-4.2 15.6-4.2 14.5 0 18.1 9.9 18.1 19.5v17.8c0 4.1 0.2 8.2 0.8 11.4H137.9zM136.6 26.6c-9.4-0.2-20.1 1.5-20.1 10.7 0 5.6 3.7 8.3 8.2 8.3 6.2 0 10.1-3.9 11.5-8 0.3-0.9 0.5-1.9 0.5-2.8V26.6z"/>
  <path fill="#BBBDBF" stroke="#808185" stroke-miterlimit="10" d="M158.9 16.2c0-4.9-0.1-8.9-0.4-12.9h7.7l0.5 7.9h0.2c2.4-4.5 7.9-8.9 15.7-8.9 6.6 0 16.8 3.9 16.8 20.2v28.4h-8.6V23.4c0-7.7-2.9-14.1-11-14.1 -5.7 0-10.1 4-11.6 8.8 -0.4 1.1-0.6 2.6-0.6 4v28.6h-8.6V16.2z"/>
  <path fill="#BBBDBF" stroke="#808185" stroke-miterlimit="10" d="M256.5 26.7c0 17.6-12.2 25.3-23.7 25.3 -12.9 0-22.8-9.4-22.8-24.5 0-15.9 10.4-25.3 23.6-25.3C247.3 2.2 256.5 12.1 256.5 26.7zM218.8 27.2c0 10.4 6 18.3 14.4 18.3 8.3 0 14.4-7.8 14.4-18.5 0-8.1-4-18.3-14.3-18.3C223.2 8.7 218.8 18.1 218.8 27.2z"/>
  <path d="M103.8 76.2c0-1-0.2-1.9-0.5-2.8l0 0c0-0.1-0.1-0.2-0.1-0.3 0-0.1-0.1-0.2-0.1-0.2 -0.1-0.1-0.1-0.2-0.2-0.3 0-0.1-0.1-0.1-0.1-0.2 -0.1-0.1-0.1-0.2-0.2-0.3 0-0.1-0.1-0.1-0.1-0.2 -0.1-0.1-0.2-0.2-0.3-0.3 0 0-0.1-0.1-0.1-0.1 -0.1-0.1-0.3-0.3-0.4-0.4 0 0 0 0-0.1 0 -0.1-0.1-0.3-0.2-0.4-0.3 -0.1 0-0.1-0.1-0.2-0.1 -0.1-0.1-0.2-0.1-0.3-0.2 -0.1 0-0.2-0.1-0.2-0.1 -0.1 0-0.2-0.1-0.3-0.1 -0.1 0-0.2-0.1-0.3-0.1 -0.1 0-0.2-0.1-0.4-0.1 -0.1 0-0.2 0-0.3 0 -0.1 0-0.2 0-0.4 0 -0.1 0-0.2 0-0.3 0 -0.1 0-0.1 0-0.1 0 0 0-0.1 0-0.1 0 -0.4 0-0.7 0-1.1 0.1 -4.7 0.8-8.4 4.5-11.8 8 0.4-2.1 0.8-4.2 1.3-6.3 -4.7 0.8-9.4 1.5-14.1 2.1 -3.5 16.8-6.9 33.5-10.4 50.2 4.7-0.6 9.4-1.2 14.1-1.9 2.6-12.8 5.2-25.5 7.8-38.3 2.4-2.6 4.2-4.4 7.1-4.9 0.1 0 0.3 0 0.4 0 0.1 0 0.1 0 0.2 0 0.1 0 0.1 0 0.2 0.1 0 0 0.1 0 0.1 0.1 0.1 0 0.1 0.1 0.2 0.2 0 0 0.1 0.1 0.1 0.1 0 0.1 0.1 0.1 0.1 0.2 0 0 0 0.1 0.1 0.1 0 0.1 0.1 0.2 0.1 0.4 0 0 0 0.1 0 0.1 0.1 0.4 0.2 0.8 0.3 1.3 0 0.1 0 0.2 0.1 0.3 0 0.1 0 0.2 0.1 0.3 0 0.1 0.1 0.2 0.1 0.3 0 0.1 0.1 0.2 0.1 0.2 0 0.1 0.1 0.2 0.1 0.3 0 0.1 0.1 0.1 0.1 0.2 0 0.1 0.1 0.2 0.2 0.3 0 0.1 0.1 0.1 0.1 0.2 0.1 0.1 0.1 0.2 0.2 0.2C93.9 84 94 84 94 84.1c0.1 0.1 0.2 0.1 0.3 0.2 0.1 0 0.1 0.1 0.2 0.1 0.1 0.1 0.3 0.1 0.4 0.1 0.1 0 0.1 0 0.2 0.1 0.2 0 0.5 0.1 0.7 0.1 0 0 0 0 0 0 0.3 0 0.6 0 0.9-0.1C101.6 83.8 103.8 79.6 103.8 76.2z"/>
  <path d="M117.1 85.1c3.1-3 5.4-7.3 5.7-11.4C121.1 75.6 118.9 79.7 117.1 85.1z"/>
  <path d="M51.1 83.2c6.4-4.3 9.8-10.9 9.8-16.6 0-0.5 0-1-0.1-1.4 0-0.2-0.1-0.3-0.1-0.5 0-0.3-0.1-0.6-0.1-0.9 0-0.2-0.1-0.4-0.1-0.5 -0.1-0.3-0.1-0.5-0.2-0.8 -0.1-0.2-0.1-0.4-0.2-0.5 -0.1-0.3-0.2-0.5-0.3-0.7 -0.1-0.2-0.2-0.4-0.3-0.5 -0.1-0.2-0.2-0.5-0.4-0.7 -0.1-0.2-0.2-0.3-0.3-0.5 -0.2-0.2-0.3-0.4-0.5-0.6 -0.1-0.2-0.3-0.3-0.4-0.5 -0.2-0.2-0.4-0.4-0.6-0.6 -0.2-0.1-0.3-0.3-0.5-0.4 -0.2-0.2-0.4-0.4-0.7-0.5 -0.2-0.1-0.3-0.3-0.5-0.4 -0.2-0.2-0.5-0.3-0.8-0.5 -0.2-0.1-0.3-0.2-0.5-0.3 -0.3-0.2-0.6-0.3-1-0.5 -0.2-0.1-0.3-0.2-0.5-0.2 -0.5-0.2-0.9-0.4-1.4-0.5 -0.1 0-0.1 0-0.2-0.1 -0.6-0.2-1.2-0.3-1.8-0.5 -0.2 0-0.4-0.1-0.6-0.1 -0.4-0.1-0.9-0.2-1.4-0.2 -0.3 0-0.5-0.1-0.8-0.1 -0.4 0-0.9-0.1-1.3-0.1 -0.3 0-0.6 0-0.9 0 -0.3 0-0.6 0-0.9 0 -0.2 0-0.4 0-0.5 0 -0.2 0-0.4 0-0.5 0 -0.8 0-1.5 0.1-2.3 0.1 -18.5 1.6-35.5 14-35.5 27.4 0 0.4 0 0.8 0 1.2 0 0.1 0 0.2 0 0.4 0 0.2 0.1 0.5 0.1 0.7 0 0.1 0.1 0.3 0.1 0.4 0 0.2 0.1 0.4 0.1 0.6 0 0.1 0.1 0.3 0.1 0.4 0.1 0.2 0.1 0.4 0.2 0.5 0.1 0.1 0.1 0.2 0.2 0.4 0.1 0.2 0.1 0.3 0.2 0.5 0.1 0.1 0.1 0.2 0.2 0.3C6 86 6 86.1 6.1 86.3c0.1 0.1 0.2 0.2 0.2 0.3 0.1 0.1 0.2 0.2 0.3 0.4C6.8 87 6.9 87.1 7 87.2c0.1 0.1 0.2 0.2 0.3 0.3 0.1 0.1 0.2 0.2 0.3 0.2C7.7 87.8 7.9 87.9 8 88c0.1 0.1 0.2 0.1 0.3 0.2 0.1 0.1 0.3 0.2 0.4 0.2 0.1 0.1 0.2 0.1 0.4 0.2 0.2 0.1 0.3 0.1 0.5 0.2 0.1 0 0.3 0.1 0.4 0.1 0.2 0.1 0.3 0.1 0.5 0.1 0.1 0 0.3 0.1 0.4 0.1 0.2 0 0.4 0.1 0.5 0.1 0.1 0 0.3 0 0.5 0.1 0.2 0 0.4 0.1 0.6 0.1 0.2 0 0.3 0 0.5 0 0.2 0 0.4 0 0.6 0 0.2 0 0.3 0 0.5 0 0.1 0 0.2 0 0.3 0 0.2 0 0.4 0 0.6 0 -0.1-0.9-1.4-1.6-1.4-6.6 0-16.1 13-24 24.4-25 0.6-0.1 1.2-0.1 1.8-0.1 0.3 0 0.6 0 1 0 0.2 0 0.3 0 0.5 0 0.4 0 0.7 0.1 1.1 0.1 0.1 0 0.2 0 0.3 0 0.4 0.1 0.9 0.1 1.3 0.2 0.1 0 0.2 0.1 0.3 0.1 0.3 0.1 0.6 0.2 0.9 0.3 0.1 0 0.2 0.1 0.4 0.1 0.2 0.1 0.4 0.2 0.7 0.3 0.1 0.1 0.3 0.1 0.4 0.2 0.2 0.1 0.4 0.2 0.5 0.3 0.1 0.1 0.2 0.2 0.3 0.2 0.2 0.1 0.3 0.2 0.5 0.3 0.1 0.1 0.2 0.2 0.3 0.3 0.1 0.1 0.3 0.2 0.4 0.4 0.1 0.1 0.2 0.2 0.3 0.3 0.1 0.1 0.2 0.3 0.3 0.4 0.1 0.1 0.2 0.2 0.2 0.3 0.1 0.1 0.2 0.3 0.3 0.5 0.1 0.1 0.1 0.2 0.2 0.4 0.1 0.2 0.2 0.3 0.2 0.5 0.1 0.1 0.1 0.2 0.2 0.4 0.1 0.2 0.1 0.3 0.2 0.5 0 0.1 0.1 0.2 0.1 0.4 0 0.2 0.1 0.4 0.1 0.6 0 0.1 0.1 0.2 0.1 0.4 0 0.2 0.1 0.4 0.1 0.6 0 0.1 0 0.2 0 0.3 0 0.3 0 0.7 0 1 0 7.3-6.3 16.5-14.1 17.1 -0.2 0-0.4 0-0.6 0 1.5-7.3 3.1-14.7 4.6-22.1 -4.8 1.1-9.6 2-14.5 3 -4.4 20.9-8.9 41.8-13.3 62.6 4.7-0.1 9.4-0.3 14.1-0.6 2.7-12.6 5.3-25.3 8-37.9 1.8-0.3 3.7-0.6 4.5-0.6 0.4 0 0.8 0 1.2 0 0.2 0 0.3 0 0.5 0 0.2 0 0.5 0 0.7 0.1 0.2 0 0.3 0 0.4 0.1 0.2 0 0.4 0.1 0.6 0.1 0.1 0 0.3 0.1 0.4 0.1 0.2 0.1 0.4 0.1 0.5 0.2 0.1 0.1 0.3 0.1 0.4 0.2 0.2 0.1 0.3 0.2 0.5 0.2 0.1 0.1 0.2 0.1 0.3 0.2 0.1 0.1 0.3 0.2 0.4 0.3 0.1 0.1 0.2 0.2 0.3 0.3 0.1 0.1 0.2 0.2 0.4 0.4 0.1 0.1 0.2 0.2 0.3 0.3 0.1 0.1 0.2 0.3 0.3 0.4 0.1 0.1 0.2 0.2 0.2 0.3 0.1 0.1 0.2 0.3 0.3 0.5 0.1 0.1 0.1 0.2 0.2 0.4 0.1 0.2 0.2 0.3 0.2 0.5 0.1 0.1 0.1 0.3 0.2 0.4 0.1 0.2 0.1 0.4 0.2 0.5 0 0.1 0.1 0.3 0.1 0.4 0.1 0.2 0.1 0.4 0.2 0.6 0 0.1 0.1 0.3 0.1 0.4 0 0.2 0.1 0.4 0.1 0.6 0 0.1 0.1 0.3 0.1 0.5 0 0.2 0.1 0.5 0.1 0.7 0 0.1 0 0.3 0 0.4 0 0.3 0 0.5 0.1 0.8 0 0.1 0 0.3 0 0.4 0 0.4 0 0.8 0 1.2 0 7.4-2.5 17.9-9.7 18.5 -0.2 0-0.5 0-0.7 0 -0.1 0-0.2 0-0.3 0 -0.2 0-0.3 0-0.5 0 -0.1 0-0.2 0-0.3-0.1 -0.1 0-0.3-0.1-0.4-0.1 -0.1 0-0.2-0.1-0.3-0.1 -0.1-0.1-0.3-0.1-0.4-0.2 -0.1 0-0.2-0.1-0.3-0.1 -0.1-0.1-0.3-0.2-0.4-0.2 -0.1-0.1-0.2-0.1-0.3-0.2 -0.2-0.1-0.3-0.2-0.5-0.3 -0.1-0.1-0.2-0.1-0.3-0.2 -0.2-0.1-0.4-0.3-0.5-0.4 -0.1-0.1-0.2-0.1-0.3-0.2 -0.3-0.2-0.6-0.5-0.9-0.8 -0.9 2.3-1.3 4.2-1.3 5.8 0 0.4 0 0.7 0.1 1 0 0.1 0 0.2 0.1 0.3 0 0.2 0.1 0.4 0.1 0.6 0 0.1 0.1 0.2 0.1 0.3 0.1 0.2 0.1 0.3 0.2 0.5 0 0.1 0.1 0.2 0.1 0.3 0.1 0.1 0.1 0.3 0.2 0.4 0.1 0.1 0.1 0.2 0.2 0.3 0.1 0.1 0.2 0.3 0.3 0.4 0.1 0.1 0.1 0.2 0.2 0.2 0.1 0.1 0.2 0.2 0.3 0.3 0.1 0.1 0.1 0.1 0.2 0.2 0.2 0.1 0.3 0.3 0.5 0.4 0 0 0 0 0.1 0.1 0.2 0.1 0.4 0.3 0.6 0.4 0.1 0 0.1 0.1 0.2 0.1 0.2 0.1 0.3 0.1 0.5 0.2 0.1 0 0.2 0.1 0.3 0.1 0.1 0 0.3 0.1 0.4 0.1 0.1 0 0.2 0.1 0.3 0.1 0.1 0 0.3 0.1 0.4 0.1 0.1 0 0.2 0 0.3 0.1 0.2 0 0.3 0 0.5 0.1 0.1 0 0.2 0 0.3 0 0.2 0 0.3 0 0.5 0 0.1 0 0.2 0 0.3 0 0.2 0 0.4 0 0.6 0 0.1 0 0.1 0 0.2 0 0 0 0 0 0 0 0 0 0 0 0 0 0.5 0 1.1 0 1.6-0.1 16.3-1.5 21.4-21.1 21.4-30.4C62.6 90.3 59.4 84 51.1 83.2z"/>
  <path d="M284.5 98.7c0.3-0.1 1.6-1 2.5-4.4 -2.2 1.6-2.7 3.1-2.8 4.3C284.2 98.7 284.3 98.7 284.5 98.7L284.5 98.7z"/>
  <path d="M295.9 68.1c-1.5 5-4 8.8-7.8 9.1 -0.2 0-0.4 0-0.5 0 -0.1 0-0.2 0-0.3 0 -0.1 0-0.2-0.1-0.3-0.1 -0.1 0-0.2-0.1-0.3-0.1 -0.1-0.1-0.2-0.1-0.3-0.2 -0.1-0.1-0.1-0.1-0.2-0.2 -0.1-0.1-0.2-0.2-0.2-0.3 -0.1-0.1-0.1-0.1-0.2-0.2 -0.1-0.1-0.1-0.2-0.2-0.4 0-0.1-0.1-0.2-0.1-0.3 0-0.1-0.1-0.3-0.1-0.4 0-0.1-0.1-0.2-0.1-0.3 0-0.2-0.1-0.3-0.1-0.5 0-0.1 0-0.2 0-0.2 0-0.3 0-0.5 0-0.8 0-0.8 0.1-1.7 0.3-2.5 2.3-11.2 4.7-22.5 7-33.7 -4.7 0.3-9.4 0.6-14.1 1 -2.2 10.6-4.4 21.3-6.6 32 -0.5 2.4-0.8 4.6-0.8 6.4 0 0.5 0 1 0.1 1.4 0 0.2 0 0.3 0 0.4 0 0.3 0.1 0.6 0.1 0.9 0 0.2 0.1 0.3 0.1 0.5 0 0.2 0.1 0.5 0.1 0.7 0 0.2 0.1 0.3 0.1 0.5 0.1 0.2 0.1 0.4 0.2 0.6 0.1 0.2 0.1 0.3 0.2 0.5 0.1 0.2 0.2 0.4 0.2 0.5 0.1 0.1 0.1 0.3 0.2 0.4 0.1 0.2 0.2 0.3 0.3 0.5 0.1 0.1 0.2 0.3 0.2 0.4 0.1 0.1 0.2 0.3 0.3 0.4 0.1 0.1 0.2 0.2 0.3 0.3 0.1 0.1 0.2 0.3 0.4 0.4 0.1 0.1 0.2 0.2 0.3 0.3 0.1 0.1 0.3 0.2 0.4 0.3 0.1 0.1 0.2 0.2 0.3 0.2 0.1 0.1 0.3 0.2 0.4 0.3 0.1 0.1 0.2 0.1 0.3 0.2 0.2 0.1 0.3 0.2 0.5 0.2 0.1 0.1 0.2 0.1 0.4 0.2 0.2 0.1 0.4 0.1 0.5 0.2 0.1 0 0.2 0.1 0.4 0.1 0.2 0.1 0.4 0.1 0.6 0.1 0.1 0 0.2 0 0.3 0.1 0.3 0.1 0.6 0.1 1 0.1 0.1 0 0.1 0 0.2 0 0.3 0 0.5 0 0.8 0 0 0 0 0 0 0 0.4 0 0.8 0 1.1 0 3.3-0.3 7.7-1.5 11.9-6.5 -0.3 1.5-0.6 2.9-1 4.4 -9.3 3.3-16.9 6.9-16.9 16 0 0.4 0 0.8 0.1 1.1 0 0.1 0 0.2 0.1 0.4 0 0.2 0.1 0.5 0.1 0.7 0 0.1 0.1 0.3 0.1 0.4 0.1 0.2 0.1 0.4 0.2 0.6 0.1 0.1 0.1 0.3 0.2 0.4 0.1 0.2 0.1 0.4 0.2 0.5 0.1 0.1 0.1 0.3 0.2 0.4 0.1 0.2 0.2 0.3 0.3 0.5 0.1 0.1 0.2 0.2 0.3 0.4 0.1 0.1 0.2 0.3 0.3 0.4 0.1 0.1 0.2 0.2 0.3 0.3 0.1 0.1 0.2 0.3 0.4 0.4 0.1 0.1 0.2 0.2 0.3 0.3 0.1 0.1 0.3 0.2 0.4 0.3 0.1 0.1 0.2 0.2 0.4 0.3 0.1 0.1 0.3 0.2 0.4 0.3 0.1 0.1 0.3 0.2 0.4 0.2 0.2 0.1 0.3 0.2 0.5 0.3 0.1 0.1 0.3 0.1 0.4 0.2 0.2 0.1 0.3 0.1 0.5 0.2 0.1 0.1 0.3 0.1 0.4 0.2 0.2 0.1 0.3 0.1 0.5 0.2 0.1 0 0.3 0.1 0.5 0.1 0.2 0 0.4 0.1 0.6 0.1 0.2 0 0.3 0.1 0.5 0.1 0.2 0 0.4 0.1 0.6 0.1 0.2 0 0.3 0 0.5 0.1 0.2 0 0.4 0 0.6 0 0.2 0 0.3 0 0.5 0 0 0 0.1 0 0.1 0 0.3 0 0.6 0 0.9 0 6.4-0.5 14.9-3.5 17.8-17.5 4-19 7.9-38 11.9-56.8 -4.7 0-9.4 0.1-14.2 0.3C300.3 47 298.1 57.5 295.9 68.1zM290.5 94c-1.3 5.8-3.8 7.9-5.8 8 -2.2 0.2-3.9-1.5-3.9-2.9 0-5.3 4.7-8.5 10.8-11C291.3 90.1 290.9 92 290.5 94z"/>
  <path d="M217.3 65.2c3.2-2.9 5.5-7.2 5.7-11.3C221.3 55.7 219.1 59.7 217.3 65.2z"/>
  <path d="M198.6 55.8c0-0.1 0-0.2 0-0.2 0-0.2 0-0.3 0-0.5 0-0.1 0-0.2 0-0.3 0-0.1 0-0.3-0.1-0.4 0-0.1 0-0.2 0-0.3 0-0.1 0-0.3-0.1-0.4 0-0.1 0-0.2-0.1-0.3 0-0.1-0.1-0.3-0.1-0.4 0-0.1-0.1-0.2-0.1-0.3 0-0.1-0.1-0.2-0.1-0.4 0-0.1-0.1-0.2-0.1-0.3 -0.1-0.1-0.1-0.2-0.2-0.3 0-0.1-0.1-0.2-0.1-0.2 -0.1-0.1-0.1-0.2-0.2-0.3 0-0.1-0.1-0.1-0.1-0.2 -0.1-0.2-0.2-0.3-0.4-0.5 0 0 0 0 0 0 -0.1-0.1-0.3-0.3-0.4-0.4 -0.1 0-0.1-0.1-0.2-0.1 -0.1-0.1-0.2-0.2-0.3-0.2 -0.1 0-0.1-0.1-0.2-0.1 -0.1-0.1-0.2-0.1-0.3-0.2 -0.1 0-0.2-0.1-0.2-0.1 -0.1 0-0.2-0.1-0.4-0.1 -0.1 0-0.2 0-0.3-0.1 -0.1 0-0.3 0-0.4-0.1 -0.1 0-0.2 0-0.3 0 -0.1 0-0.1 0-0.2 0 -0.1 0-0.2 0-0.3 0 -0.1 0-0.2 0-0.2 0 -0.2 0-0.5 0.1-0.8 0.1 -4.1 0.8-6.1 3.5-6.1 6.5 0 0.2 0 0.5 0 0.7 0 0 0 0 0 0.1 0 0.2 0.1 0.5 0.1 0.7 0 0 0 0.1 0 0.1 0.1 0.2 0.1 0.4 0.2 0.6 0 0 0 0.1 0 0.1 0.1 0.2 0.2 0.4 0.3 0.6 0 0 0 0.1 0.1 0.1 0.1 0.2 0.2 0.4 0.4 0.5 0 0 0 0 0 0.1 0.1 0.2 0.3 0.3 0.5 0.4 0 0 0 0 0 0 0.2 0.1 0.4 0.2 0.6 0.3 0 0 0 0 0 0 0.2 0.1 0.4 0.1 0.6 0.1 0 0 0 0 0.1 0 0 0 0 0 0 0 0.2 0 0.3 0 0.5-0.1 0.8-0.2 2.8-0.9 3.1-1.6 0 10.7-7.3 34.1-16.9 36 -0.3 0.1-0.7 0.1-0.9 0.1 -0.1 0-0.3 0-0.4 0 -0.1 0-0.1 0-0.2 0 -0.2 0-0.4-0.1-0.5-0.1 0 0-0.1 0-0.1 0 -0.1-0.1-0.2-0.1-0.3-0.2 0 0-0.1-0.1-0.1-0.1 -0.1-0.1-0.2-0.2-0.2-0.2 0-0.1-0.1-0.1-0.1-0.2 -0.1-0.1-0.1-0.2-0.1-0.3 0-0.1 0-0.1-0.1-0.2 0-0.1-0.1-0.3-0.1-0.4 0-0.1 0-0.1 0-0.2 0-0.2 0-0.4 0-0.6 0-0.9 0.2-2.2 0.5-3.6 2.3-11.6 4.7-23.1 7-34.7 -4.7 1-9.4 1.9-14.1 2.9 -2.2 10.9-4.4 21.8-6.6 32.7 -1.5 5.2-4 9.4-7.8 10.2 -0.3 0.1-0.5 0.1-0.7 0.1 -0.1 0-0.2 0-0.3 0 -0.1 0-0.2 0-0.4-0.1 -0.1 0-0.2-0.1-0.2-0.1 -0.1-0.1-0.2-0.1-0.3-0.2 -0.1 0-0.1-0.1-0.2-0.2 -0.1-0.1-0.1-0.2-0.2-0.3 0-0.1-0.1-0.1-0.1-0.2 -0.1-0.1-0.1-0.2-0.2-0.3 0-0.1-0.1-0.2-0.1-0.2 0-0.1-0.1-0.3-0.1-0.4 0-0.1 0-0.2-0.1-0.3 0-0.2 0-0.3-0.1-0.5 0-0.1 0-0.2 0-0.2 0-0.3 0-0.5 0-0.8 0-0.8 0.1-1.7 0.3-2.5 2.3-11.6 4.7-23.1 7-34.7 -4.7 1-9.4 1.9-14.1 2.9 -2.2 10.9-4.4 21.8-6.6 32.7 -0.1 0-0.1 0-0.2 0 -4.9 6.5-9.6 11.8-17.3 13.3 -0.4 0.1-0.8 0.1-1.1 0.2 -0.1 0-0.2 0-0.3 0 -0.4 0-0.7 0.1-1 0.1 -0.2 0-0.4 0-0.6 0 -0.1 0-0.1 0-0.2 0 -0.1 0-0.3 0-0.4-0.1 -0.1 0-0.1 0-0.2 0 -0.1 0-0.2-0.1-0.4-0.1 -0.1 0-0.1 0-0.2-0.1 -0.1-0.1-0.3-0.1-0.4-0.2 0 0-0.1 0-0.1-0.1 -0.2-0.1-0.3-0.2-0.4-0.3 0 0-0.1-0.1-0.1-0.1 -0.1-0.1-0.2-0.2-0.3-0.3 0 0-0.1-0.1-0.1-0.2 -0.1-0.1-0.2-0.2-0.2-0.3 0-0.1-0.1-0.1-0.1-0.2 -0.1-0.1-0.1-0.3-0.2-0.4 0-0.1-0.1-0.1-0.1-0.2 -0.1-0.2-0.2-0.4-0.2-0.7 0 0 0-0.1 0-0.1 0-0.2-0.1-0.4-0.1-0.6 0-0.1 0-0.2 0-0.3 0-0.2-0.1-0.4-0.1-0.6 0-0.1 0-0.2 0-0.3 0-0.2 0-0.4-0.1-0.7 0-0.1 0-0.2 0-0.3 0-0.3 0-0.7 0-1.1 0-1.2 0.1-2.6 0.2-3.9 11.7-2.9 22.5-13.7 22.5-25 0-0.3 0-0.6 0-0.8 0-0.1 0-0.2 0-0.3 0-0.2 0-0.4-0.1-0.6 0-0.1 0-0.2 0-0.3 0-0.2-0.1-0.3-0.1-0.5 0-0.1 0-0.2-0.1-0.3 0-0.2-0.1-0.3-0.1-0.5 0-0.1-0.1-0.2-0.1-0.3 -0.1-0.2-0.1-0.4-0.2-0.6 0 0 0-0.1-0.1-0.2 -0.1-0.2-0.2-0.4-0.3-0.6 0-0.1-0.1-0.1-0.1-0.2 -0.1-0.1-0.2-0.3-0.3-0.4 -0.1-0.1-0.1-0.1-0.2-0.2 -0.1-0.1-0.2-0.2-0.3-0.3 -0.1-0.1-0.1-0.1-0.2-0.2 -0.1-0.1-0.2-0.2-0.4-0.3 -0.1-0.1-0.2-0.1-0.2-0.2 -0.2-0.1-0.3-0.2-0.5-0.3 -0.1 0-0.1-0.1-0.2-0.1 -0.3-0.1-0.5-0.2-0.8-0.3 -0.1 0-0.1 0-0.2 0 -0.2-0.1-0.5-0.1-0.7-0.2 -0.1 0-0.2 0-0.4 0 -0.2 0-0.5-0.1-0.7-0.1 -0.1 0-0.3 0-0.4 0 -0.1 0-0.2 0-0.3 0 -0.1 0-0.2 0-0.3 0 -0.3 0-0.7 0-1.1 0.1 -0.2 0-0.3 0-0.5 0 -0.6 0.1-1.1 0.1-1.8 0.3 -20 3.9-26.4 28.4-26.4 39.6 0 0.6 0 1.2 0.1 1.8 0 0.2 0 0.4 0.1 0.6 0 0.4 0.1 0.8 0.1 1.1 0 0.2 0.1 0.4 0.1 0.6 0.1 0.3 0.1 0.7 0.2 1 0 0.2 0.1 0.4 0.1 0.6 0.1 0.3 0.2 0.6 0.3 0.9 0.1 0.2 0.1 0.3 0.2 0.5 0.1 0.3 0.3 0.7 0.4 1 0 0.1 0.1 0.2 0.1 0.2 0.2 0.4 0.4 0.7 0.7 1.1 0.1 0.1 0.1 0.2 0.2 0.3 0.2 0.2 0.4 0.5 0.6 0.7 0.1 0.1 0.2 0.2 0.3 0.3 0.2 0.2 0.4 0.3 0.6 0.5 0.1 0.1 0.2 0.2 0.4 0.3 0.2 0.2 0.4 0.3 0.6 0.4 0.1 0.1 0.2 0.1 0.4 0.2 0.3 0.1 0.5 0.3 0.8 0.4 0.1 0 0.2 0.1 0.3 0.1 0.4 0.1 0.8 0.3 1.2 0.4 0.1 0 0.2 0 0.3 0 0.3 0.1 0.7 0.1 1 0.2 0.1 0 0.3 0 0.4 0.1 0.3 0 0.6 0.1 0.9 0.1 0.2 0 0.3 0 0.5 0 0.1 0 0.3 0 0.4 0 0.1 0 0.2 0 0.3 0 0.4 0 0.8 0 1.3-0.1 0.2 0 0.4 0 0.6-0.1 0.6-0.1 1.3-0.2 1.9-0.3 10.3-1.9 17.6-9.1 23-17 0 0.3 0 0.5 0 0.8 0 0.5 0 0.9 0.1 1.4 0 0.1 0 0.3 0 0.4 0 0.3 0.1 0.6 0.1 0.8 0 0.2 0 0.3 0.1 0.4 0 0.2 0.1 0.5 0.1 0.7 0 0.1 0.1 0.3 0.1 0.4 0.1 0.2 0.1 0.4 0.2 0.7 0 0.1 0.1 0.2 0.1 0.4 0.1 0.2 0.2 0.5 0.3 0.7 0 0.1 0.1 0.2 0.1 0.2 0.1 0.3 0.3 0.5 0.5 0.8 0 0.1 0.1 0.1 0.1 0.2 0.1 0.2 0.3 0.4 0.4 0.5 0.1 0.1 0.1 0.2 0.2 0.2 0.1 0.1 0.3 0.3 0.4 0.4 0.1 0.1 0.2 0.1 0.3 0.2 0.1 0.1 0.3 0.2 0.4 0.3 0.1 0.1 0.2 0.1 0.3 0.2 0.2 0.1 0.3 0.2 0.5 0.3 0.1 0 0.2 0.1 0.3 0.1 0.2 0.1 0.5 0.2 0.7 0.3 0 0 0.1 0 0.1 0 0.3 0.1 0.6 0.1 0.9 0.2 0.1 0 0.2 0 0.3 0 0.2 0 0.4 0 0.6 0.1 0.1 0 0.2 0 0.4 0 0.1 0 0.2 0 0.3 0 0.1 0 0.1 0 0.2 0 0.3 0 0.5 0 0.8 0 0.1 0 0.2 0 0.4 0 0.4 0 0.8-0.1 1.2-0.2 3.9-0.8 9.1-3 13.9-11.1 0.1 0.5 0.2 0.9 0.4 1.3 0 0.1 0.1 0.2 0.1 0.3 0.2 0.4 0.3 0.8 0.5 1.1 0 0.1 0.1 0.1 0.1 0.2 0.2 0.3 0.4 0.6 0.6 0.9 0 0 0.1 0.1 0.1 0.2 0.3 0.3 0.5 0.5 0.8 0.8 0.1 0.1 0.1 0.1 0.2 0.1 0.3 0.2 0.6 0.4 0.9 0.6 0 0 0 0 0.1 0 0.4 0.2 0.7 0.3 1.1 0.4 0.1 0 0.2 0.1 0.3 0.1 0.4 0.1 0.8 0.2 1.2 0.3 0.1 0 0.1 0 0.2 0 0.4 0 0.8 0.1 1.2 0.1 0.1 0 0.1 0 0.2 0 0 0 0.1 0 0.1 0 0.5 0 1 0 1.5-0.1 0.1 0 0.2 0 0.3 0 0.5-0.1 1.1-0.1 1.7-0.3 19.9-4.1 27.8-32.8 27.8-48.5C198.6 56.3 198.6 56 198.6 55.8zM123.7 69.5c1.9-0.4 2.4 1.1 2.4 3.5 0 8.1-6.6 16.9-14.2 18.8C113.9 81.8 118.7 70.4 123.7 69.5z"/>
  <path d="M274 45.7c0-0.7-0.1-1.3-0.2-2v0l0 0c0-0.1 0-0.2-0.1-0.3 0-0.1-0.1-0.2-0.1-0.4 0-0.1-0.1-0.2-0.1-0.3 0-0.1-0.1-0.2-0.1-0.3 0-0.1-0.1-0.2-0.1-0.3 -0.1-0.1-0.1-0.2-0.2-0.3 0-0.1-0.1-0.2-0.1-0.2 -0.1-0.1-0.1-0.2-0.2-0.3 -0.1-0.1-0.1-0.2-0.2-0.2 -0.1-0.1-0.1-0.2-0.2-0.3 -0.1-0.1-0.1-0.1-0.2-0.2 -0.1-0.1-0.2-0.2-0.2-0.2 -0.1-0.1-0.1-0.1-0.2-0.2 -0.1-0.1-0.2-0.1-0.3-0.2 -0.1-0.1-0.2-0.1-0.2-0.2 -0.1-0.1-0.2-0.1-0.3-0.2 -0.1-0.1-0.2-0.1-0.3-0.1 -0.1-0.1-0.2-0.1-0.3-0.1 -0.1 0-0.2-0.1-0.3-0.1 -0.1 0-0.2-0.1-0.4-0.1 -0.1 0-0.2-0.1-0.3-0.1 -0.1 0-0.3-0.1-0.4-0.1 -0.1 0-0.2 0-0.2 0 -0.2 0-0.5 0-0.7 0h0c-0.3 0-0.5 0-0.8 0 -4.7 0.5-8.4 4.1-11.8 7.5 0.4-2.1 0.8-4.1 1.3-6.2 -4.7 0.6-9.4 1.3-14.1 2 -2.2 10.8-4.4 21.6-6.6 32.4 -0.2 0-0.3 0-0.5 0.1 -4.9 6.3-9.6 11.4-17.3 12.8 -0.4 0.1-0.7 0.1-1.1 0.2 -0.1 0-0.2 0-0.3 0 -0.3 0-0.6 0.1-0.9 0.1 0 0-0.1 0-0.1 0 -0.1 0-0.1 0-0.2 0 -0.2 0-0.3 0-0.5 0 -0.1 0-0.1 0-0.2 0 -0.1 0-0.2 0-0.4-0.1 -0.1 0-0.1 0-0.2 0 -0.1 0-0.2-0.1-0.4-0.1 -0.1 0-0.1 0-0.2-0.1 -0.2-0.1-0.3-0.1-0.4-0.2 0 0 0 0-0.1 0 -0.1-0.1-0.3-0.2-0.4-0.3 0 0-0.1-0.1-0.1-0.1 -0.1-0.1-0.2-0.2-0.3-0.3 0 0-0.1-0.1-0.1-0.2 -0.1-0.1-0.2-0.2-0.2-0.3 0-0.1-0.1-0.1-0.1-0.2 -0.1-0.1-0.1-0.3-0.2-0.4 0 0 0-0.1-0.1-0.1 -0.1-0.2-0.2-0.4-0.2-0.7 0-0.1 0-0.1 0-0.2 -0.1-0.2-0.1-0.4-0.1-0.6 0-0.1 0-0.2 0-0.3 0-0.2-0.1-0.4-0.1-0.6 0-0.1 0-0.2 0-0.3 0-0.2 0-0.4 0-0.7 0-0.1 0-0.2 0-0.3 0-0.3 0-0.7 0-1.1 0-1.2 0.1-2.6 0.2-3.9 11.7-2.9 22.5-13.3 22.5-24.5 0-0.3 0-0.6 0-0.8 0-0.1 0-0.2 0-0.3 0-0.2 0-0.4-0.1-0.6 0-0.1 0-0.2 0-0.3 0-0.2-0.1-0.3-0.1-0.5 0-0.1 0-0.2-0.1-0.3 0-0.2-0.1-0.3-0.1-0.5 0-0.1-0.1-0.2-0.1-0.3 -0.1-0.2-0.1-0.3-0.2-0.5 0-0.1-0.1-0.2-0.1-0.2 -0.1-0.2-0.2-0.4-0.3-0.6 0 0 0-0.1 0-0.1 -0.1-0.2-0.3-0.4-0.4-0.6 0-0.1-0.1-0.1-0.2-0.2 -0.1-0.1-0.2-0.3-0.4-0.4 -0.1-0.1-0.1-0.1-0.2-0.2 -0.1-0.1-0.3-0.2-0.4-0.3 -0.1-0.1-0.2-0.1-0.3-0.2 -0.1-0.1-0.3-0.2-0.4-0.2 -0.1 0-0.2-0.1-0.3-0.1 -0.2-0.1-0.3-0.1-0.5-0.2 -0.1 0-0.2-0.1-0.3-0.1 -0.2-0.1-0.5-0.1-0.8-0.2 -0.1 0-0.1 0-0.2 0 -0.3-0.1-0.7-0.1-1.1-0.1 -0.1 0-0.2 0-0.3 0 -0.2 0-0.4 0-0.7 0 0 0-0.1 0-0.2 0 -0.3 0-0.6 0-1 0 -0.2 0-0.3 0-0.5 0 -0.5 0.1-1.1 0.1-1.6 0.2 -20 3.5-26.4 28.5-26.4 39.7 0 0.6 0 1.3 0.1 1.8 0 0.2 0 0.4 0.1 0.6 0 0.4 0.1 0.8 0.1 1.1 0 0.2 0.1 0.4 0.1 0.6 0.1 0.3 0.1 0.7 0.2 1 0 0.2 0.1 0.4 0.1 0.5 0.1 0.3 0.2 0.6 0.3 0.9 0.1 0.1 0.1 0.3 0.2 0.4 0.1 0.4 0.3 0.7 0.5 1.1 0 0 0 0.1 0.1 0.1 0.2 0.4 0.4 0.7 0.7 1 0.1 0.1 0.2 0.2 0.2 0.3 0.2 0.2 0.3 0.4 0.5 0.6 0.1 0.1 0.2 0.2 0.3 0.3 0.2 0.2 0.4 0.3 0.6 0.5 0.1 0.1 0.2 0.2 0.4 0.3 0.2 0.1 0.4 0.3 0.6 0.4 0.1 0.1 0.2 0.1 0.3 0.2 0.3 0.1 0.6 0.3 0.9 0.4 0.1 0 0.1 0.1 0.2 0.1 0.4 0.1 0.8 0.3 1.2 0.4 0.1 0 0.2 0 0.4 0.1 0.3 0.1 0.6 0.1 0.9 0.2 0.2 0 0.3 0 0.5 0.1 0.3 0 0.6 0.1 0.9 0.1 0.2 0 0.3 0 0.5 0 0.1 0 0.2 0 0.3 0 0.1 0 0.2 0 0.3 0 0.4 0 0.9 0 1.3-0.1 0.2 0 0.4 0 0.6 0 0.6-0.1 1.3-0.2 2-0.3 10.2-1.9 17.4-8.6 22.8-16.2 -0.8 4-1.7 8-2.5 12.1 4.7-0.8 9.4-1.5 14.1-2.2 2.6-12.7 5.2-25.5 7.8-38.2 2.4-2.6 4.2-4.3 7.1-4.6 0.1 0 0.2 0 0.4 0 0.1 0 0.1 0 0.2 0 0.1 0 0.1 0.1 0.2 0.1 0 0 0.1 0 0.1 0.1 0.1 0 0.1 0.1 0.2 0.2 0 0 0.1 0.1 0.1 0.1 0.1 0.1 0.1 0.2 0.1 0.2 0 0 0.1 0.1 0.1 0.1 0 0.1 0.1 0.2 0.1 0.3 0 0 0 0.1 0 0.1 0.1 0.4 0.2 0.8 0.3 1.3 0 0.1 0 0.2 0.1 0.3 0 0.1 0 0.2 0.1 0.2 0 0.1 0.1 0.2 0.1 0.3 0 0.1 0.1 0.2 0.1 0.2 0 0.1 0.1 0.2 0.1 0.3 0 0.1 0.1 0.2 0.1 0.2 0 0.1 0.1 0.2 0.1 0.3 0 0.1 0.1 0.1 0.1 0.2 0.1 0.1 0.1 0.2 0.2 0.2 0.1 0.1 0.1 0.1 0.2 0.2 0.1 0.1 0.2 0.1 0.3 0.2 0.1 0.1 0.2 0.1 0.2 0.1 0.1 0.1 0.2 0.1 0.3 0.1 0.1 0 0.2 0.1 0.3 0.1 0.1 0 0.3 0.1 0.4 0.1 0.1 0 0.2 0 0.4 0 0 0 0.1 0 0.1 0 0.2 0 0.4 0 0.7 0C271.8 53 274 49.1 274 45.7zM223.9 49.6c1.9-0.3 2.4 1.1 2.4 3.6 0 8.1-6.6 16.7-14.2 18.6C214.2 61.8 218.9 50.5 223.9 49.6z"/>
  <path d="M126.1 73c0-2.4-0.6-3.9-2.4-3.5 -5 1-9.8 12.3-11.7 22.4C119.5 89.9 126.1 81.1 126.1 73zM122.8 73.8c-0.3 4.1-2.6 8.4-5.7 11.4C118.9 79.7 121.1 75.6 122.8 73.8z"/>
  <path d="M226.4 53.2c0-2.4-0.6-3.9-2.4-3.6 -5 0.9-9.8 12.2-11.7 22.2C219.7 69.9 226.4 61.3 226.4 53.2zM223 53.9c-0.2 4.1-2.5 8.4-5.7 11.3C219.1 59.7 221.3 55.7 223 53.9z"/>
  <path d="M280.8 99.1c0 1.4 1.8 3.1 3.9 2.9 2-0.2 4.5-2.2 5.8-8 0.4-1.9 0.8-3.9 1.2-5.8C285.5 90.6 280.8 93.8 280.8 99.1zM287 94.3c-0.9 3.4-2.2 4.3-2.5 4.4h0c-0.1 0-0.2 0-0.3-0.1C284.3 97.4 284.8 96 287 94.3z"/>
  <path d="M319.3 34.1c-0.6-0.8-1.6-1.2-2.6-1.2 -4.7 0-9.5 0.1-14.3 0.3 -1.5 0.1-2.8 1.1-3.1 2.6 -2.2 10.5-4.4 21-6.6 31.5 -1.1 3.5-2.6 5.8-4.2 6.4 0-0.2 0-0.4 0-0.6 0-0.5 0.1-1.2 0.2-1.7 0 0 0-0.1 0-0.1 2.3-11.2 4.7-22.5 7-33.7 0.2-1-0.1-2.1-0.7-2.8 -0.6-0.7-1.6-1.2-2.5-1.2 -0.1 0-0.1 0-0.2 0 -4.6 0.3-9.4 0.6-14.2 1.1 -1.5 0.1-2.7 1.2-3 2.6 -0.1 0.5-0.2 0.9-0.3 1.4 -1.6-1.9-4-3-6.7-3 -0.4 0-0.8 0-1.2 0.1 -2.8 0.3-5.2 1.4-7.3 2.8 -0.1-0.2-0.3-0.4-0.4-0.5 -0.6-0.7-1.5-1.1-2.4-1.1 -0.1 0-0.3 0-0.4 0 -4.5 0.6-9.3 1.2-14.1 2 -1.4 0.2-2.5 1.2-2.8 2.6 -0.7 3.6-1.5 7.2-2.2 10.8 0-0.1 0-0.2 0-0.2 0-7.1-3.9-11.2-10.8-11.2 -1.2 0-2.5 0.1-3.8 0.4 -9.4 1.7-16.1 7.5-20.7 14.6 -0.2-7.4-4.3-10.1-8.1-10.1 -0.6 0-1.3 0.1-2 0.2 -4.2 0.8-7.2 3.3-8.3 6.7 -0.2-0.5-0.4-1-0.8-1.4 -0.6-0.6-1.5-1-2.3-1 -0.2 0-0.4 0-0.7 0.1 -4.7 1-9.4 1.9-14.1 2.9 -1.3 0.3-2.3 1.3-2.6 2.6l-1.8 8.8 -4.8 23.8c-1 3.7-2.6 6.3-4.2 7.3l0 0c0-0.6 0.1-1.2 0.2-1.7 0 0 0-0.1 0-0.1l7-34.7c0.2-1.1-0.1-2.2-0.9-3 -0.6-0.6-1.5-1-2.3-1 -0.2 0-0.4 0-0.7 0.1 -4.7 1-9.4 1.9-14.1 2.9 -1.3 0.3-2.3 1.3-2.6 2.6l-2 9.7c-0.4-6.2-4.1-9.8-10.4-9.8 -1.3 0-2.7 0.2-4.3 0.5 -6.4 1.2-12 4.5-16.6 9.5 -0.2-0.3-0.4-0.6-0.6-0.9 -1.6-2-4-3.1-6.7-3.1 -0.6 0-1.2 0.1-1.8 0.2 -2.7 0.5-5.1 1.7-7.2 3.2 -0.1-0.2-0.2-0.3-0.4-0.5 -0.6-0.7-1.5-1-2.4-1 -0.2 0-0.3 0-0.5 0 -4.8 0.8-9.5 1.5-14 2.1 -1.4 0.2-2.5 1.2-2.8 2.6 -1.3 6.3-2.6 12.5-3.9 18.8 -1.1-4.7-3.7-8.3-7.5-10.3 4-4.4 6.3-9.8 6.3-15.2 0-7.8-5.4-16.9-20.7-16.9 -1.2 0-2.4 0.1-3.7 0.2C18.9 51.7 1.2 65.8 1.2 80.6c0 7.7 4.8 12.2 13.2 12.2 0.2 0 0.5 0 0.7 0 0.9 0 1.7-0.4 2.3-1.1 -2.6 12.1-5.1 23.9-7.5 35.5 -0.2 1 0 2 0.7 2.8 0.6 0.8 1.6 1.2 2.6 1.2 0 0 0 0 0.1 0 4.6-0.1 9.4-0.3 14.2-0.6 1.5-0.1 2.8-1.2 3.1-2.6 0 0 0 0 0-0.1 2 2.2 5.1 3.4 9.1 3.4 0.6 0 1.2 0 1.9-0.1 8.3-0.8 14.2-5.5 18.1-11.7 -0.3 1.3-0.5 2.5-0.8 3.8 -0.2 1 0.1 2.1 0.8 2.9 0.6 0.7 1.5 1.1 2.4 1.1 0.1 0 0.3 0 0.4 0 4.6-0.6 9.3-1.2 14.1-1.9 1.4-0.2 2.5-1.3 2.8-2.6 2.5-12.5 5.1-24.9 7.6-37.4 1.1-1.2 2-2 2.8-2.5 0.5 1.9 1.9 5 6 5 0 0 0.1 0 0.1 0 -2 6.1-2.8 12-2.8 16.1 0 10.5 5.3 16.5 14.4 16.5 1.5 0 3.1-0.2 4.7-0.5 7.6-1.4 14.4-5.6 20.4-12.3 2 4.4 6 6.1 9.8 6.1 1 0 2.1-0.1 3.2-0.3 5-1 9.2-3.7 12.8-8 2 2.1 4.9 3.2 8.5 3.2 1.3 0 2.8-0.2 4.3-0.5 10.4-2.1 17.7-9.9 22.4-19.1 1.4 7.4 6.3 11.5 13.9 11.5 1.5 0 3.1-0.2 4.8-0.5 6-1.1 11.5-3.8 16.5-8.1l0 0.1c-0.2 1.1 0.1 2.2 0.9 3 0.6 0.7 1.5 1 2.4 1 0.2 0 0.4 0 0.5 0 4.8-0.8 9.5-1.5 14-2.2 1.4-0.2 2.5-1.2 2.8-2.6 2.5-12.4 5.1-24.9 7.6-37.3 1.2-1.2 2-1.9 2.8-2.4 0.5 2 1.9 5.3 6.3 5.3 0.3 0 0.7 0 1-0.1 1.5-0.2 2.8-0.6 3.9-1.2 -0.9 4.5-1.9 9-2.8 13.6 -0.6 2.8-0.8 5.1-0.9 7.1 0 4.5 1.2 8.1 3.6 10.6 1.4 1.5 3.1 2.5 5.2 3.1 -2.5 2.7-4.2 6.2-4.2 11 0 7.4 6 12.9 13.9 12.9 0.4 0 0.8 0 1.2 0 11-0.8 18.2-7.8 20.8-20.1 3.9-18.8 7.9-37.9 11.9-56.8C320.1 35.9 319.9 34.9 319.3 34.1zM235.5 60.7c-0.3 1.5-0.6 3-0.9 4.5l-1.5 7.4c-0.1 0.1-0.1 0.1-0.2 0.2 -5.1 6.6-9 10.5-15.2 11.5 -0.7 0.1-1.3 0.2-1.8 0.2 -0.6 0-0.8-0.1-0.8-0.1s-0.6-0.6-0.6-3.7c0-0.4 0-0.9 0-1.4C223.4 76.3 232 69.4 235.5 60.7zM183.1 56.6c0.3 3.4 2.5 6.7 6.2 6.8 -1.6 10.5-7.4 25.3-13.1 27.6 0.1-0.5 0.2-1.1 0.3-2L183.1 56.6zM134.7 81.4l-2.1 10.4 -0.1 0.6c-5 6.7-9 10.6-15.1 11.8 -0.7 0.1-1.3 0.2-1.8 0.2 -0.5 0-0.7-0.1-0.7-0.1 0 0-0.6-0.6-0.6-3.7 0-0.4 0-0.9 0-1.4C123.4 96.2 131.1 89.3 134.7 81.4zM17 82.9c0-6.4 2.2-11.1 5.4-14.4 -1.4 6.7-2.8 13.3-4.2 19.9 -0.1-0.5-0.3-0.8-0.5-1.1C17.4 86.6 17 85.7 17 82.9zM41.2 128c-0.5 0-1 0.1-1.6 0.1 0 0 0 0 0 0 0 0 0 0 0 0 -0.1 0-0.1 0-0.2 0 -0.2 0-0.4 0-0.6 0 -0.1 0-0.2 0-0.3 0 -0.2 0-0.3 0-0.5 0 -0.1 0-0.2 0-0.3 0 -0.2 0-0.3 0-0.5-0.1 -0.1 0-0.2 0-0.3-0.1 -0.2 0-0.3-0.1-0.4-0.1 -0.1 0-0.2-0.1-0.3-0.1 -0.2 0-0.3-0.1-0.4-0.1 -0.1 0-0.2-0.1-0.3-0.1 -0.2-0.1-0.3-0.1-0.5-0.2 -0.1 0-0.2-0.1-0.2-0.1 -0.2-0.1-0.4-0.2-0.6-0.4 0 0 0 0-0.1-0.1 -0.2-0.1-0.4-0.2-0.5-0.4 -0.1-0.1-0.1-0.1-0.2-0.2 -0.1-0.1-0.2-0.2-0.3-0.3 -0.1-0.1-0.1-0.2-0.2-0.2 -0.1-0.1-0.2-0.2-0.3-0.4 -0.1-0.1-0.1-0.2-0.2-0.3 -0.1-0.1-0.2-0.3-0.2-0.4 0-0.1-0.1-0.2-0.1-0.3 -0.1-0.2-0.1-0.3-0.2-0.5 0-0.1-0.1-0.2-0.1-0.3 0-0.2-0.1-0.4-0.1-0.6 0-0.1 0-0.2-0.1-0.3 0-0.3-0.1-0.6-0.1-1 0-1.6 0.4-3.4 1.3-5.8 0.3 0.3 0.6 0.5 0.9 0.8 0.1 0.1 0.2 0.1 0.3 0.2 0.2 0.2 0.4 0.3 0.5 0.4 0.1 0.1 0.2 0.1 0.3 0.2 0.2 0.1 0.3 0.2 0.5 0.3 0.1 0.1 0.2 0.1 0.3 0.2 0.2 0.1 0.3 0.2 0.4 0.2 0.1 0.1 0.2 0.1 0.3 0.1 0.1 0.1 0.3 0.1 0.4 0.2 0.1 0 0.2 0.1 0.3 0.1 0.1 0 0.3 0.1 0.4 0.1 0.1 0 0.2 0 0.3 0.1 0.2 0 0.3 0 0.5 0 0.1 0 0.2 0 0.3 0 0.2 0 0.5 0 0.7 0 7.1-0.6 9.7-11.1 9.7-18.5 0-0.4 0-0.8 0-1.2 0-0.1 0-0.3 0-0.4 0-0.3 0-0.5-0.1-0.8 0-0.2 0-0.3 0-0.4 0-0.2-0.1-0.5-0.1-0.7 0-0.2-0.1-0.3-0.1-0.5 0-0.2-0.1-0.4-0.1-0.6 0-0.2-0.1-0.3-0.1-0.4 -0.1-0.2-0.1-0.4-0.2-0.6 0-0.1-0.1-0.3-0.1-0.4 -0.1-0.2-0.1-0.4-0.2-0.5 -0.1-0.1-0.1-0.3-0.2-0.4 -0.1-0.2-0.1-0.3-0.2-0.5 -0.1-0.1-0.1-0.2-0.2-0.4 -0.1-0.2-0.2-0.3-0.3-0.5 -0.1-0.1-0.2-0.2-0.2-0.3 -0.1-0.1-0.2-0.3-0.3-0.4 -0.1-0.1-0.2-0.2-0.3-0.3 -0.1-0.1-0.2-0.2-0.4-0.4 -0.1-0.1-0.2-0.2-0.3-0.3 -0.1-0.1-0.3-0.2-0.4-0.3 -0.1-0.1-0.2-0.2-0.3-0.2 -0.2-0.1-0.3-0.2-0.5-0.2 -0.1-0.1-0.2-0.1-0.4-0.2 -0.2-0.1-0.3-0.1-0.5-0.2 -0.1 0-0.3-0.1-0.4-0.1 -0.2 0-0.4-0.1-0.6-0.1 -0.1 0-0.3-0.1-0.4-0.1 -0.2 0-0.4 0-0.7-0.1 -0.2 0-0.3 0-0.5 0 -0.4 0-0.8 0-1.2 0 -0.8 0.1-2.7 0.3-4.5 0.6 -2.7 12.7-5.3 25.3-8 37.9 -4.7 0.3-9.4 0.4-14.1 0.6 4.4-20.8 8.9-41.7 13.3-62.6 4.8-0.9 9.6-1.9 14.5-3 -1.5 7.4-3.1 14.7-4.6 22.1 0.2 0 0.4 0 0.6 0C44.7 83.7 51 74.5 51 67.2c0-0.3 0-0.7 0-1 0-0.1 0-0.2 0-0.3 0-0.2 0-0.4-0.1-0.6 0-0.1-0.1-0.2-0.1-0.4 0-0.2-0.1-0.4-0.1-0.6 0-0.1-0.1-0.2-0.1-0.4 -0.1-0.2-0.1-0.4-0.2-0.5 0-0.1-0.1-0.2-0.2-0.4 -0.1-0.2-0.1-0.3-0.2-0.5 -0.1-0.1-0.1-0.2-0.2-0.4 -0.1-0.2-0.2-0.3-0.3-0.5 -0.1-0.1-0.2-0.2-0.2-0.3 -0.1-0.1-0.2-0.3-0.3-0.4 -0.1-0.1-0.2-0.2-0.3-0.3 -0.1-0.1-0.3-0.3-0.4-0.4 -0.1-0.1-0.2-0.2-0.3-0.3 -0.1-0.1-0.3-0.2-0.5-0.3 -0.1-0.1-0.2-0.2-0.3-0.2 -0.2-0.1-0.4-0.2-0.5-0.3 -0.1-0.1-0.2-0.1-0.4-0.2 -0.2-0.1-0.4-0.2-0.7-0.3 -0.1 0-0.2-0.1-0.4-0.1 -0.3-0.1-0.6-0.2-0.9-0.3 -0.1 0-0.2-0.1-0.3-0.1 -0.4-0.1-0.8-0.2-1.3-0.2 -0.1 0-0.2 0-0.3 0 -0.4 0-0.7-0.1-1.1-0.1 -0.2 0-0.3 0-0.5 0 -0.3 0-0.6 0-1 0 -0.6 0-1.2 0-1.8 0.1 -11.4 1-24.4 8.9-24.4 25 0 5 1.3 5.7 1.4 6.6 -0.2 0-0.4 0-0.6 0 -0.1 0-0.2 0-0.3 0 -0.2 0-0.3 0-0.5 0 -0.2 0-0.4 0-0.6 0 -0.2 0-0.3 0-0.5 0 -0.2 0-0.4 0-0.6-0.1 -0.2 0-0.3 0-0.5-0.1 -0.2 0-0.4-0.1-0.5-0.1 -0.1 0-0.3-0.1-0.4-0.1 -0.2 0-0.3-0.1-0.5-0.1 -0.1 0-0.3-0.1-0.4-0.1 -0.2-0.1-0.3-0.1-0.5-0.2 -0.1-0.1-0.2-0.1-0.4-0.2 -0.2-0.1-0.3-0.2-0.4-0.2C8.2 88.1 8.1 88.1 8 88c-0.1-0.1-0.3-0.2-0.4-0.3 -0.1-0.1-0.2-0.1-0.3-0.2 -0.1-0.1-0.2-0.2-0.3-0.3 -0.1-0.1-0.2-0.2-0.3-0.3 -0.1-0.1-0.2-0.2-0.3-0.4 -0.1-0.1-0.2-0.2-0.2-0.3C6 86.1 6 86 5.9 85.9c-0.1-0.1-0.1-0.2-0.2-0.3 -0.1-0.1-0.2-0.3-0.2-0.5 -0.1-0.1-0.1-0.2-0.2-0.4 -0.1-0.2-0.1-0.3-0.2-0.5C5.1 84.1 5 84 5 83.8c-0.1-0.2-0.1-0.4-0.1-0.6 0-0.1-0.1-0.3-0.1-0.4 0-0.2-0.1-0.5-0.1-0.7 0-0.1 0-0.2 0-0.4 0-0.4 0-0.8 0-1.2 0-13.5 17-25.8 35.5-27.4 0.8-0.1 1.6-0.1 2.3-0.1 0.2 0 0.4 0 0.5 0 0.2 0 0.4 0 0.5 0 0.3 0 0.6 0 0.9 0 0.3 0 0.6 0 0.9 0 0.5 0 0.9 0.1 1.3 0.1 0.3 0 0.5 0 0.8 0.1 0.5 0.1 0.9 0.2 1.4 0.2 0.2 0 0.4 0.1 0.6 0.1 0.6 0.1 1.2 0.3 1.8 0.5 0.1 0 0.1 0 0.2 0.1 0.5 0.2 1 0.3 1.4 0.5 0.2 0.1 0.3 0.2 0.5 0.2 0.3 0.2 0.7 0.3 1 0.5 0.2 0.1 0.4 0.2 0.5 0.3 0.3 0.2 0.5 0.3 0.8 0.5 0.2 0.1 0.3 0.3 0.5 0.4 0.2 0.2 0.5 0.4 0.7 0.5 0.2 0.1 0.3 0.3 0.5 0.4 0.2 0.2 0.4 0.4 0.6 0.6 0.1 0.2 0.3 0.3 0.4 0.5 0.2 0.2 0.3 0.4 0.5 0.6 0.1 0.2 0.2 0.3 0.3 0.5 0.1 0.2 0.3 0.5 0.4 0.7 0.1 0.2 0.2 0.4 0.3 0.5 0.1 0.2 0.2 0.5 0.3 0.7 0.1 0.2 0.1 0.4 0.2 0.5 0.1 0.3 0.2 0.5 0.2 0.8 0 0.2 0.1 0.4 0.1 0.5 0.1 0.3 0.1 0.6 0.1 0.9 0 0.2 0.1 0.3 0.1 0.5 0 0.5 0.1 0.9 0.1 1.4 0 5.8-3.4 12.4-9.8 16.6 8.3 0.8 11.5 7.1 11.5 14.4C62.6 106.9 57.5 126.6 41.2 128zM33.7 112.6c1.4-6.7 2.9-13.5 4.3-20.3 0.9-0.1 1.6-0.2 2-0.2 0.3 0 0.6 0 0.8 0 1.6 0 4.9 0 4.9 8.3 0 6.1-2.1 14.8-6.6 15.2 -0.1 0-0.2 0-0.3 0 -0.8 0-1.7-0.3-3.6-2.1C34.7 113 34.3 112.7 33.7 112.6zM44.2 61.7c0.8 0.3 1.4 0.7 1.9 1.2 1 1 1.5 2.4 1.5 4.3 0 4.4-2.9 9.8-7 12.4 1.2-5.5 2.3-11.1 3.5-16.6C44.2 62.6 44.3 62.1 44.2 61.7zM95.8 84.7C95.8 84.7 95.8 84.7 95.8 84.7c-0.3 0-0.5 0-0.7-0.1 -0.1 0-0.1 0-0.2-0.1 -0.1 0-0.3-0.1-0.4-0.1 -0.1 0-0.1-0.1-0.2-0.1 -0.1-0.1-0.2-0.1-0.3-0.2 -0.1 0-0.1-0.1-0.2-0.2 -0.1-0.1-0.1-0.2-0.2-0.2 0-0.1-0.1-0.1-0.1-0.2 -0.1-0.1-0.1-0.2-0.2-0.3 0-0.1-0.1-0.1-0.1-0.2 0-0.1-0.1-0.2-0.1-0.3 0-0.1-0.1-0.2-0.1-0.2 0-0.1-0.1-0.2-0.1-0.3 0-0.1 0-0.2-0.1-0.3 0-0.1 0-0.2-0.1-0.3 -0.1-0.4-0.2-0.9-0.3-1.3 0 0 0-0.1 0-0.1 0-0.1-0.1-0.2-0.1-0.4 0 0 0-0.1-0.1-0.1 0-0.1-0.1-0.2-0.1-0.2 0 0-0.1-0.1-0.1-0.1 0-0.1-0.1-0.1-0.2-0.2 0 0-0.1-0.1-0.1-0.1 -0.1 0-0.1-0.1-0.2-0.1 -0.1 0-0.1 0-0.2 0 -0.1 0-0.2 0-0.4 0 -2.9 0.5-4.7 2.2-7.1 4.9 -2.6 12.8-5.2 25.6-7.8 38.3 -4.7 0.7-9.4 1.3-14.1 1.9 3.5-16.7 6.9-33.5 10.4-50.2 4.7-0.7 9.4-1.4 14.1-2.1 -0.4 2.1-0.8 4.2-1.3 6.3 3.4-3.5 7.1-7.2 11.8-8 0.4-0.1 0.8-0.1 1.1-0.1 0 0 0.1 0 0.1 0 0 0 0.1 0 0.1 0 0.1 0 0.2 0 0.3 0 0.1 0 0.3 0 0.4 0 0.1 0 0.2 0 0.3 0 0.1 0 0.2 0.1 0.4 0.1 0.1 0 0.2 0 0.3 0.1 0.1 0 0.2 0.1 0.3 0.1 0.1 0 0.2 0.1 0.2 0.1 0.1 0.1 0.2 0.1 0.3 0.2 0.1 0 0.1 0.1 0.2 0.1 0.1 0.1 0.3 0.2 0.4 0.3 0 0 0 0 0.1 0 0.2 0.1 0.3 0.3 0.4 0.4 0 0 0.1 0.1 0.1 0.1 0.1 0.1 0.2 0.2 0.3 0.3 0 0.1 0.1 0.1 0.1 0.2 0.1 0.1 0.1 0.2 0.2 0.3 0 0.1 0.1 0.1 0.1 0.2 0.1 0.1 0.1 0.2 0.2 0.3 0 0.1 0.1 0.2 0.1 0.2 0 0.1 0.1 0.2 0.1 0.3l0 0c0.3 0.8 0.5 1.8 0.5 2.8 0 3.4-2.2 7.5-7 8.4C96.4 84.6 96.1 84.7 95.8 84.7zM170.8 105c-0.6 0.1-1.1 0.2-1.7 0.3 -0.1 0-0.2 0-0.3 0 -0.5 0.1-1 0.1-1.5 0.1 0 0-0.1 0-0.1 0 -0.1 0-0.1 0-0.2 0 -0.4 0-0.8 0-1.2-0.1 -0.1 0-0.1 0-0.2 0 -0.4-0.1-0.8-0.1-1.2-0.3 -0.1 0-0.2 0-0.3-0.1 -0.4-0.1-0.8-0.3-1.1-0.4 0 0 0 0-0.1 0 -0.3-0.2-0.6-0.4-0.9-0.6 -0.1 0-0.1-0.1-0.2-0.1 -0.3-0.2-0.6-0.5-0.8-0.8 0-0.1-0.1-0.1-0.1-0.2 -0.2-0.3-0.4-0.5-0.6-0.9 0-0.1-0.1-0.1-0.1-0.2 -0.2-0.3-0.4-0.7-0.5-1.1 0-0.1-0.1-0.2-0.1-0.3 -0.2-0.4-0.3-0.8-0.4-1.3 -4.8 8-10 10.3-13.9 11.1 -0.4 0.1-0.8 0.1-1.2 0.2 -0.1 0-0.2 0-0.4 0 -0.3 0-0.5 0-0.8 0 -0.1 0-0.1 0-0.2 0 -0.1 0-0.2 0-0.3 0 -0.1 0-0.2 0-0.4 0 -0.2 0-0.4 0-0.6-0.1 -0.1 0-0.2 0-0.3 0 -0.3 0-0.6-0.1-0.9-0.2 0 0-0.1 0-0.1 0 -0.2-0.1-0.5-0.2-0.7-0.3 -0.1 0-0.2-0.1-0.3-0.1 -0.2-0.1-0.3-0.2-0.5-0.3 -0.1-0.1-0.2-0.1-0.3-0.2 -0.1-0.1-0.3-0.2-0.4-0.3 -0.1-0.1-0.2-0.1-0.3-0.2 -0.1-0.1-0.3-0.2-0.4-0.4 -0.1-0.1-0.2-0.1-0.2-0.2 -0.1-0.2-0.3-0.3-0.4-0.5 0-0.1-0.1-0.1-0.1-0.2 -0.2-0.2-0.3-0.5-0.5-0.8 0-0.1-0.1-0.2-0.1-0.2 -0.1-0.2-0.2-0.4-0.3-0.7 0-0.1-0.1-0.2-0.1-0.4 -0.1-0.2-0.1-0.4-0.2-0.7 0-0.1-0.1-0.3-0.1-0.4 -0.1-0.2-0.1-0.5-0.1-0.7 0-0.1-0.1-0.3-0.1-0.4 0-0.3-0.1-0.6-0.1-0.8 0-0.1 0-0.3 0-0.4 0-0.4-0.1-0.9-0.1-1.4 0-0.3 0-0.5 0-0.8 -5.4 7.9-12.7 15.1-23 17 -0.7 0.1-1.3 0.2-1.9 0.3 -0.2 0-0.4 0-0.6 0.1 -0.4 0-0.9 0.1-1.3 0.1 -0.1 0-0.2 0-0.3 0 -0.1 0-0.3 0-0.4 0 -0.2 0-0.3 0-0.5 0 -0.3 0-0.6 0-0.9-0.1 -0.1 0-0.3 0-0.4-0.1 -0.3-0.1-0.7-0.1-1-0.2 -0.1 0-0.2 0-0.3 0 -0.4-0.1-0.8-0.2-1.2-0.4 -0.1 0-0.2-0.1-0.3-0.1 -0.3-0.1-0.5-0.2-0.8-0.4 -0.1-0.1-0.2-0.1-0.4-0.2 -0.2-0.1-0.4-0.3-0.6-0.4 -0.1-0.1-0.2-0.2-0.4-0.3 -0.2-0.2-0.4-0.3-0.6-0.5 -0.1-0.1-0.2-0.2-0.3-0.3 -0.2-0.2-0.4-0.4-0.6-0.7 -0.1-0.1-0.2-0.2-0.2-0.3 -0.2-0.3-0.5-0.7-0.7-1.1 0-0.1-0.1-0.1-0.1-0.2 -0.2-0.3-0.3-0.6-0.4-1 -0.1-0.1-0.1-0.3-0.2-0.5 -0.1-0.3-0.2-0.6-0.3-0.9 -0.1-0.2-0.1-0.4-0.1-0.6 -0.1-0.3-0.1-0.6-0.2-1 0-0.2-0.1-0.4-0.1-0.6 -0.1-0.4-0.1-0.8-0.1-1.1 0-0.2 0-0.4-0.1-0.6 0-0.6-0.1-1.2-0.1-1.8 0-11.3 6.3-35.8 26.4-39.6 0.6-0.1 1.2-0.2 1.8-0.3 0.2 0 0.3 0 0.5 0 0.4 0 0.7-0.1 1.1-0.1 0.1 0 0.2 0 0.3 0 0.1 0 0.2 0 0.3 0 0.1 0 0.3 0 0.4 0 0.2 0 0.5 0 0.7 0.1 0.1 0 0.2 0 0.4 0 0.3 0 0.5 0.1 0.7 0.2 0.1 0 0.1 0 0.2 0 0.3 0.1 0.6 0.2 0.8 0.3 0.1 0 0.1 0.1 0.2 0.1 0.2 0.1 0.3 0.2 0.5 0.3 0.1 0.1 0.2 0.1 0.2 0.2 0.1 0.1 0.3 0.2 0.4 0.3 0.1 0.1 0.2 0.1 0.2 0.2 0.1 0.1 0.2 0.2 0.3 0.3 0.1 0.1 0.1 0.1 0.2 0.2 0.1 0.1 0.2 0.3 0.3 0.4 0 0.1 0.1 0.1 0.1 0.2 0.1 0.2 0.2 0.4 0.3 0.6 0 0 0 0.1 0.1 0.2 0.1 0.2 0.1 0.4 0.2 0.6 0 0.1 0.1 0.2 0.1 0.3 0 0.2 0.1 0.3 0.1 0.5 0 0.1 0 0.2 0.1 0.3 0 0.2 0.1 0.3 0.1 0.5 0 0.1 0 0.2 0 0.3 0 0.2 0 0.4 0.1 0.6 0 0.1 0 0.2 0 0.3 0 0.3 0 0.6 0 0.8 0 11.2-10.7 22.1-22.5 25 -0.1 1.4-0.2 2.8-0.2 3.9 0 0.4 0 0.7 0 1.1 0 0.1 0 0.2 0 0.3 0 0.2 0 0.5 0.1 0.7 0 0.1 0 0.2 0 0.3 0 0.2 0.1 0.4 0.1 0.6 0 0.1 0 0.2 0 0.3 0 0.2 0.1 0.4 0.1 0.6 0 0 0 0.1 0 0.1 0.1 0.2 0.1 0.5 0.2 0.7 0 0.1 0 0.1 0.1 0.2 0.1 0.1 0.1 0.3 0.2 0.4 0 0.1 0.1 0.1 0.1 0.2 0.1 0.1 0.1 0.2 0.2 0.3 0 0 0.1 0.1 0.1 0.2 0.1 0.1 0.2 0.2 0.3 0.3 0 0 0.1 0.1 0.1 0.1 0.1 0.1 0.3 0.2 0.4 0.3 0 0 0.1 0 0.1 0.1 0.1 0.1 0.2 0.1 0.4 0.2 0.1 0 0.1 0 0.2 0.1 0.1 0 0.2 0.1 0.4 0.1 0.1 0 0.1 0 0.2 0 0.1 0 0.3 0 0.4 0.1 0.1 0 0.1 0 0.2 0 0.2 0 0.4 0 0.6 0 0.3 0 0.7 0 1-0.1 0.1 0 0.2 0 0.3 0 0.4 0 0.7-0.1 1.1-0.2 7.7-1.5 12.4-6.7 17.3-13.3 0.1 0 0.1 0 0.2 0 2.2-10.9 4.4-21.8 6.6-32.7 4.7-1 9.4-1.9 14.1-2.9 -2.3 11.6-4.7 23.1-7 34.7 -0.2 0.8-0.3 1.7-0.3 2.5 0 0.3 0 0.5 0 0.8 0 0.1 0 0.2 0 0.2 0 0.2 0 0.3 0.1 0.5 0 0.1 0 0.2 0.1 0.3 0 0.1 0.1 0.3 0.1 0.4 0 0.1 0.1 0.2 0.1 0.2 0 0.1 0.1 0.2 0.2 0.3 0 0.1 0.1 0.1 0.1 0.2 0.1 0.1 0.1 0.2 0.2 0.3 0.1 0.1 0.1 0.1 0.2 0.2 0.1 0.1 0.2 0.1 0.3 0.2 0.1 0 0.1 0.1 0.2 0.1 0.1 0 0.2 0.1 0.4 0.1 0.1 0 0.2 0 0.3 0 0.2 0 0.4 0 0.7-0.1 3.8-0.8 6.3-5 7.8-10.2 2.2-10.9 4.4-21.8 6.6-32.7 4.7-1 9.4-1.9 14.1-2.9 -2.3 11.5-4.7 23.1-7 34.7 -0.3 1.4-0.5 2.7-0.5 3.6 0 0.2 0 0.4 0 0.6 0 0.1 0 0.1 0 0.2 0 0.1 0.1 0.3 0.1 0.4 0 0.1 0 0.1 0.1 0.2 0 0.1 0.1 0.2 0.1 0.3 0 0.1 0.1 0.1 0.1 0.2 0.1 0.1 0.1 0.2 0.2 0.2 0 0 0.1 0.1 0.1 0.1 0.1 0.1 0.2 0.2 0.3 0.2 0 0 0.1 0 0.1 0 0.2 0.1 0.3 0.1 0.5 0.1 0.1 0 0.1 0 0.2 0 0.1 0 0.3 0 0.4 0 0.3 0 0.6 0 0.9-0.1 9.6-2 16.9-25.3 16.9-36 -0.3 0.7-2.3 1.4-3.1 1.6 -0.2 0-0.3 0-0.5 0.1 0 0 0 0 0 0 0 0 0 0-0.1 0 -0.2 0-0.4 0-0.6-0.1 0 0 0 0 0 0 -0.2-0.1-0.4-0.2-0.6-0.3 0 0 0 0 0 0 -0.2-0.1-0.3-0.3-0.5-0.4 0 0 0 0 0-0.1 -0.1-0.2-0.3-0.3-0.4-0.5 0 0 0-0.1-0.1-0.1 -0.1-0.2-0.2-0.4-0.3-0.6 0 0 0-0.1 0-0.1 -0.1-0.2-0.1-0.4-0.2-0.6 0 0 0-0.1 0-0.1 -0.1-0.2-0.1-0.4-0.1-0.7 0 0 0 0 0-0.1 0-0.2 0-0.5 0-0.7 0-3 2-5.7 6.1-6.5 0.3-0.1 0.5-0.1 0.8-0.1 0.1 0 0.2 0 0.2 0 0.1 0 0.2 0 0.3 0 0.1 0 0.1 0 0.2 0 0.1 0 0.2 0 0.3 0 0.1 0 0.3 0 0.4 0.1 0.1 0 0.2 0 0.3 0.1 0.1 0 0.2 0.1 0.4 0.1 0.1 0 0.2 0.1 0.2 0.1 0.1 0 0.2 0.1 0.3 0.2 0.1 0 0.1 0.1 0.2 0.1 0.1 0.1 0.2 0.1 0.3 0.2 0.1 0 0.1 0.1 0.2 0.1 0.1 0.1 0.3 0.2 0.4 0.4 0 0 0 0 0 0 0.1 0.1 0.2 0.3 0.4 0.5 0 0.1 0.1 0.1 0.1 0.2 0.1 0.1 0.1 0.2 0.2 0.3 0 0.1 0.1 0.2 0.1 0.2 0.1 0.1 0.1 0.2 0.2 0.3 0 0.1 0.1 0.2 0.1 0.3 0 0.1 0.1 0.2 0.1 0.4 0 0.1 0.1 0.2 0.1 0.3 0 0.1 0.1 0.2 0.1 0.4 0 0.1 0 0.2 0.1 0.3 0 0.1 0 0.3 0.1 0.4 0 0.1 0 0.2 0 0.3 0 0.1 0 0.3 0.1 0.4 0 0.1 0 0.2 0 0.3 0 0.2 0 0.3 0 0.5 0 0.1 0 0.2 0 0.2 0 0.3 0 0.5 0 0.8C198.6 72.2 190.7 100.9 170.8 105zM267 53.6c-0.2 0-0.5 0-0.7 0 0 0-0.1 0-0.1 0 -0.1 0-0.2 0-0.4 0 -0.1 0-0.3 0-0.4-0.1 -0.1 0-0.2-0.1-0.3-0.1 -0.1 0-0.2-0.1-0.3-0.1 -0.1 0-0.2-0.1-0.2-0.1 -0.1-0.1-0.2-0.1-0.3-0.2 -0.1-0.1-0.1-0.1-0.2-0.2 -0.1-0.1-0.1-0.2-0.2-0.2 -0.1-0.1-0.1-0.1-0.1-0.2 -0.1-0.1-0.1-0.2-0.1-0.3 0-0.1-0.1-0.2-0.1-0.2 0-0.1-0.1-0.2-0.1-0.3 0-0.1-0.1-0.2-0.1-0.2 0-0.1-0.1-0.2-0.1-0.3 0-0.1 0-0.2-0.1-0.2 0-0.1 0-0.2-0.1-0.3 -0.1-0.4-0.2-0.9-0.3-1.3 0 0 0-0.1 0-0.1 0-0.1-0.1-0.2-0.1-0.3 0-0.1 0-0.1-0.1-0.1 0-0.1-0.1-0.2-0.1-0.2 0 0-0.1-0.1-0.1-0.1 -0.1-0.1-0.1-0.1-0.2-0.2 0 0-0.1-0.1-0.1-0.1 -0.1 0-0.1-0.1-0.2-0.1 -0.1 0-0.1 0-0.2 0 -0.1 0-0.2 0-0.4 0 -2.9 0.4-4.7 2-7.1 4.6 -2.6 12.7-5.2 25.5-7.8 38.2 -4.7 0.7-9.4 1.4-14.1 2.2 0.8-4 1.6-8 2.5-12.1 -5.4 7.6-12.6 14.3-22.8 16.2 -0.7 0.1-1.3 0.2-2 0.3 -0.2 0-0.4 0-0.6 0 -0.5 0-0.9 0.1-1.3 0.1 -0.1 0-0.2 0-0.3 0 -0.1 0-0.2 0-0.3 0 -0.2 0-0.3 0-0.5 0 -0.3 0-0.6 0-0.9-0.1 -0.2 0-0.3 0-0.5-0.1 -0.3 0-0.6-0.1-0.9-0.2 -0.1 0-0.2 0-0.4-0.1 -0.4-0.1-0.8-0.2-1.2-0.4 -0.1 0-0.1-0.1-0.2-0.1 -0.3-0.1-0.6-0.2-0.9-0.4 -0.1-0.1-0.2-0.1-0.3-0.2 -0.2-0.1-0.4-0.3-0.6-0.4 -0.1-0.1-0.2-0.2-0.4-0.3 -0.2-0.2-0.4-0.3-0.6-0.5 -0.1-0.1-0.2-0.2-0.3-0.3 -0.2-0.2-0.4-0.4-0.5-0.6 -0.1-0.1-0.2-0.2-0.2-0.3 -0.2-0.3-0.5-0.7-0.7-1 0 0 0-0.1-0.1-0.1 -0.2-0.3-0.3-0.7-0.5-1.1 -0.1-0.1-0.1-0.3-0.2-0.4 -0.1-0.3-0.2-0.6-0.3-0.9 -0.1-0.2-0.1-0.4-0.1-0.5 -0.1-0.3-0.1-0.6-0.2-1 0-0.2-0.1-0.4-0.1-0.6 -0.1-0.4-0.1-0.8-0.1-1.1 0-0.2 0-0.4-0.1-0.6 0-0.6-0.1-1.2-0.1-1.8 0-11.2 6.3-36.1 26.4-39.7 0.6-0.1 1.1-0.2 1.6-0.2 0.2 0 0.3 0 0.5 0 0.3 0 0.7 0 1 0 0 0 0.1 0 0.2 0 0.2 0 0.4 0 0.7 0 0.1 0 0.2 0 0.3 0 0.4 0 0.7 0.1 1.1 0.1 0.1 0 0.1 0 0.2 0 0.3 0.1 0.5 0.1 0.8 0.2 0.1 0 0.2 0.1 0.3 0.1 0.2 0.1 0.4 0.1 0.5 0.2 0.1 0 0.2 0.1 0.3 0.1 0.2 0.1 0.3 0.2 0.4 0.2 0.1 0.1 0.2 0.1 0.3 0.2 0.1 0.1 0.3 0.2 0.4 0.3 0.1 0.1 0.1 0.1 0.2 0.2 0.1 0.1 0.2 0.3 0.4 0.4 0.1 0.1 0.1 0.1 0.2 0.2 0.2 0.2 0.3 0.4 0.4 0.6 0 0 0 0.1 0 0.1 0.1 0.2 0.2 0.4 0.3 0.6 0 0.1 0.1 0.2 0.1 0.2 0.1 0.2 0.1 0.3 0.2 0.5 0 0.1 0.1 0.2 0.1 0.3 0 0.2 0.1 0.3 0.1 0.5 0 0.1 0 0.2 0.1 0.3 0 0.2 0.1 0.3 0.1 0.5 0 0.1 0 0.2 0 0.3 0 0.2 0 0.4 0.1 0.6 0 0.1 0 0.2 0 0.3 0 0.3 0 0.6 0 0.8 0 11.2-10.7 21.6-22.5 24.5 -0.1 1.4-0.2 2.8-0.2 3.9 0 0.4 0 0.7 0 1.1 0 0.1 0 0.2 0 0.3 0 0.2 0 0.5 0 0.7 0 0.1 0 0.2 0 0.3 0 0.2 0.1 0.4 0.1 0.6 0 0.1 0 0.2 0 0.3 0 0.2 0.1 0.4 0.1 0.6 0 0.1 0 0.1 0 0.2 0.1 0.2 0.1 0.5 0.2 0.7 0 0.1 0 0.1 0.1 0.1 0.1 0.1 0.1 0.3 0.2 0.4 0 0.1 0.1 0.1 0.1 0.2 0.1 0.1 0.1 0.2 0.2 0.3 0 0.1 0.1 0.1 0.1 0.2 0.1 0.1 0.2 0.2 0.3 0.3 0 0 0.1 0.1 0.1 0.1 0.1 0.1 0.3 0.2 0.4 0.3 0 0 0 0 0.1 0 0.1 0.1 0.3 0.1 0.4 0.2 0.1 0 0.1 0 0.2 0.1 0.1 0 0.2 0.1 0.4 0.1 0.1 0 0.1 0 0.2 0 0.1 0 0.2 0 0.4 0.1 0.1 0 0.1 0 0.2 0 0.2 0 0.3 0 0.5 0 0.1 0 0.1 0 0.2 0 0 0 0.1 0 0.1 0 0.3 0 0.6 0 0.9-0.1 0.1 0 0.2 0 0.3 0 0.4 0 0.7-0.1 1.1-0.2 7.7-1.4 12.4-6.4 17.3-12.8 0.2 0 0.3-0.1 0.5-0.1 2.2-10.8 4.4-21.6 6.6-32.4 4.7-0.7 9.4-1.4 14.1-2 -0.4 2.1-0.8 4.1-1.3 6.2 3.4-3.4 7.1-7 11.8-7.5 0.3 0 0.5 0 0.8 0h0c0.2 0 0.5 0 0.7 0 0.1 0 0.2 0 0.2 0 0.2 0 0.3 0 0.4 0.1 0.1 0 0.2 0.1 0.3 0.1 0.1 0 0.2 0.1 0.4 0.1 0.1 0 0.2 0.1 0.3 0.1 0.1 0 0.2 0.1 0.3 0.1 0.1 0 0.2 0.1 0.3 0.1 0.1 0.1 0.2 0.1 0.3 0.2 0.1 0.1 0.2 0.1 0.2 0.2 0.1 0.1 0.2 0.1 0.3 0.2 0.1 0.1 0.1 0.1 0.2 0.2 0.1 0.1 0.2 0.2 0.2 0.2 0.1 0.1 0.1 0.1 0.2 0.2 0.1 0.1 0.1 0.2 0.2 0.3 0.1 0.1 0.1 0.2 0.2 0.2 0.1 0.1 0.1 0.2 0.2 0.3 0 0.1 0.1 0.2 0.1 0.2 0.1 0.1 0.1 0.2 0.2 0.3 0 0.1 0.1 0.2 0.1 0.3 0 0.1 0.1 0.2 0.1 0.3 0 0.1 0.1 0.2 0.1 0.3 0 0.1 0.1 0.2 0.1 0.4 0 0.1 0.1 0.2 0.1 0.3l0 0v0c0.2 0.6 0.2 1.3 0.2 2C274 49.1 271.8 53 267 53.6zM304.8 93c-2.9 14-11.3 17-17.8 17.5 -0.3 0-0.6 0-0.9 0 0 0-0.1 0-0.1 0 -0.2 0-0.3 0-0.5 0 -0.2 0-0.4 0-0.6 0 -0.2 0-0.3 0-0.5-0.1 -0.2 0-0.4 0-0.6-0.1 -0.2 0-0.3-0.1-0.5-0.1 -0.2 0-0.4-0.1-0.6-0.1 -0.2 0-0.3-0.1-0.5-0.1 -0.2-0.1-0.4-0.1-0.5-0.2 -0.1-0.1-0.3-0.1-0.4-0.2 -0.2-0.1-0.3-0.1-0.5-0.2 -0.1-0.1-0.3-0.1-0.4-0.2 -0.2-0.1-0.3-0.2-0.5-0.3 -0.1-0.1-0.3-0.2-0.4-0.2 -0.1-0.1-0.3-0.2-0.4-0.3 -0.1-0.1-0.3-0.2-0.4-0.3 -0.1-0.1-0.3-0.2-0.4-0.3 -0.1-0.1-0.2-0.2-0.3-0.3 -0.1-0.1-0.2-0.3-0.4-0.4 -0.1-0.1-0.2-0.2-0.3-0.3 -0.1-0.1-0.2-0.3-0.3-0.4 -0.1-0.1-0.2-0.2-0.3-0.4 -0.1-0.2-0.2-0.3-0.3-0.5 -0.1-0.1-0.1-0.3-0.2-0.4 -0.1-0.2-0.2-0.4-0.2-0.5 -0.1-0.1-0.1-0.3-0.2-0.4 -0.1-0.2-0.1-0.4-0.2-0.6 0-0.1-0.1-0.3-0.1-0.4 -0.1-0.2-0.1-0.5-0.1-0.7 0-0.1 0-0.2-0.1-0.4 0-0.4-0.1-0.7-0.1-1.1 0-9.1 7.6-12.7 16.9-16 0.3-1.5 0.7-2.9 1-4.4 -4.2 5-8.6 6.2-11.9 6.5 -0.4 0-0.8 0-1.1 0 0 0 0 0 0 0 -0.3 0-0.5 0-0.8 0 -0.1 0-0.1 0-0.2 0 -0.3 0-0.7-0.1-1-0.1 -0.1 0-0.2 0-0.3-0.1 -0.2 0-0.4-0.1-0.6-0.1 -0.1 0-0.2-0.1-0.4-0.1 -0.2-0.1-0.4-0.1-0.5-0.2 -0.1 0-0.2-0.1-0.4-0.2 -0.2-0.1-0.3-0.1-0.5-0.2 -0.1-0.1-0.2-0.1-0.3-0.2 -0.2-0.1-0.3-0.2-0.4-0.3 -0.1-0.1-0.2-0.2-0.3-0.2 -0.1-0.1-0.3-0.2-0.4-0.3 -0.1-0.1-0.2-0.2-0.3-0.3 -0.1-0.1-0.2-0.2-0.4-0.4 -0.1-0.1-0.2-0.2-0.3-0.3 -0.1-0.1-0.2-0.3-0.3-0.4 -0.1-0.1-0.2-0.2-0.2-0.4 -0.1-0.2-0.2-0.3-0.3-0.5 -0.1-0.1-0.1-0.3-0.2-0.4 -0.1-0.2-0.2-0.4-0.2-0.5 -0.1-0.1-0.1-0.3-0.2-0.5 -0.1-0.2-0.1-0.4-0.2-0.6 0-0.2-0.1-0.3-0.1-0.5 -0.1-0.2-0.1-0.5-0.1-0.7 0-0.2-0.1-0.3-0.1-0.5 0-0.3-0.1-0.6-0.1-0.9 0-0.1 0-0.3 0-0.4 0-0.5-0.1-0.9-0.1-1.4 0-1.9 0.3-4 0.8-6.4 2.2-10.7 4.4-21.3 6.6-32 4.7-0.4 9.4-0.8 14.1-1 -2.3 11.2-4.7 22.4-7 33.7 -0.2 0.8-0.3 1.7-0.3 2.5 0 0.3 0 0.5 0 0.8 0 0.1 0 0.2 0 0.2 0 0.2 0 0.4 0.1 0.5 0 0.1 0 0.2 0.1 0.3 0 0.1 0.1 0.3 0.1 0.4 0 0.1 0.1 0.2 0.1 0.3 0.1 0.1 0.1 0.2 0.2 0.4 0 0.1 0.1 0.2 0.2 0.2 0.1 0.1 0.1 0.2 0.2 0.3 0.1 0.1 0.1 0.1 0.2 0.2 0.1 0.1 0.2 0.1 0.3 0.2 0.1 0 0.2 0.1 0.3 0.1 0.1 0 0.2 0.1 0.3 0.1 0.1 0 0.2 0 0.3 0 0.2 0 0.3 0 0.5 0 3.8-0.3 6.3-4.1 7.8-9.1 2.2-10.6 4.4-21.1 6.6-31.6 4.7-0.2 9.4-0.3 14.2-0.3C312.7 55.1 308.7 74 304.8 93z"/>
  <path fill="#FFFFFF" d="M103.8 73.5c0-1-0.2-1.9-0.5-2.8l0 0c0-0.1-0.1-0.2-0.1-0.3 0-0.1-0.1-0.2-0.1-0.2 -0.1-0.1-0.1-0.2-0.2-0.3 0-0.1-0.1-0.1-0.1-0.2 -0.1-0.1-0.1-0.2-0.2-0.3 0-0.1-0.1-0.1-0.1-0.2 -0.1-0.1-0.2-0.2-0.3-0.3 0 0-0.1-0.1-0.1-0.1 -0.1-0.1-0.3-0.3-0.4-0.4 0 0 0 0-0.1 0 -0.1-0.1-0.3-0.2-0.4-0.3 -0.1 0-0.1-0.1-0.2-0.1 -0.1-0.1-0.2-0.1-0.3-0.2 -0.1 0-0.2-0.1-0.2-0.1 -0.1 0-0.2-0.1-0.3-0.1 -0.1 0-0.2 0-0.3-0.1 -0.1 0-0.2-0.1-0.4-0.1 -0.1 0-0.2 0-0.3 0 -0.1 0-0.2 0-0.4 0 -0.1 0-0.2 0-0.3 0 -0.1 0-0.1 0-0.1 0 0 0-0.1 0-0.1 0 -0.4 0-0.7 0-1.1 0.1 -4.7 0.8-8.4 4.5-11.8 8 0.4-2.1 0.8-4.2 1.3-6.3 -4.7 0.7-9.4 1.5-14.1 2.1C69 88 65.5 104.8 62.1 121.5c4.7-0.6 9.4-1.2 14.1-1.9 2.6-12.8 5.2-25.5 7.8-38.3 2.4-2.6 4.2-4.4 7.1-4.9 0.1 0 0.3 0 0.4 0 0.1 0 0.1 0 0.2 0 0.1 0 0.1 0 0.2 0.1 0 0 0.1 0 0.1 0.1 0.1 0 0.1 0.1 0.2 0.2 0 0 0.1 0.1 0.1 0.1 0 0.1 0.1 0.2 0.1 0.2 0 0 0 0.1 0.1 0.1 0 0.1 0.1 0.2 0.1 0.4 0 0 0 0.1 0 0.1 0.1 0.4 0.2 0.8 0.3 1.3 0 0.1 0 0.2 0.1 0.3 0 0.1 0 0.2 0.1 0.3 0 0.1 0.1 0.2 0.1 0.3 0 0.1 0.1 0.2 0.1 0.2 0 0.1 0.1 0.2 0.1 0.3 0 0.1 0.1 0.2 0.1 0.2 0 0.1 0.1 0.2 0.2 0.3 0 0.1 0.1 0.1 0.1 0.2 0.1 0.1 0.1 0.2 0.2 0.2 0.1 0.1 0.1 0.1 0.2 0.2 0.1 0.1 0.2 0.1 0.3 0.2 0.1 0 0.1 0.1 0.2 0.1 0.1 0.1 0.3 0.1 0.4 0.1 0.1 0 0.1 0 0.2 0.1 0.2 0 0.5 0.1 0.7 0.1 0 0 0 0 0 0 0.3 0 0.6 0 0.9-0.1C101.6 81.1 103.8 77 103.8 73.5z"/>
  <path fill="#FFFFFF" d="M51.1 80.5c6.4-4.3 9.8-10.9 9.8-16.6 0-0.5 0-1-0.1-1.4 0-0.2-0.1-0.3-0.1-0.5 0-0.3-0.1-0.6-0.1-0.9 0-0.2-0.1-0.4-0.1-0.5 -0.1-0.3-0.1-0.5-0.2-0.8 -0.1-0.2-0.1-0.4-0.2-0.5 -0.1-0.3-0.2-0.5-0.3-0.7 -0.1-0.2-0.2-0.4-0.3-0.5 -0.1-0.2-0.2-0.5-0.4-0.7 -0.1-0.2-0.2-0.3-0.3-0.5 -0.2-0.2-0.3-0.4-0.5-0.6 -0.1-0.2-0.3-0.3-0.4-0.5 -0.2-0.2-0.4-0.4-0.6-0.6 -0.2-0.1-0.3-0.3-0.5-0.4 -0.2-0.2-0.4-0.4-0.7-0.6 -0.2-0.1-0.3-0.3-0.5-0.4 -0.2-0.2-0.5-0.3-0.8-0.5 -0.2-0.1-0.3-0.2-0.5-0.3 -0.3-0.2-0.6-0.3-1-0.5 -0.2-0.1-0.3-0.2-0.5-0.2 -0.5-0.2-0.9-0.4-1.4-0.5 -0.1 0-0.1-0.1-0.2-0.1 -0.6-0.2-1.2-0.3-1.8-0.5 -0.2 0-0.4-0.1-0.6-0.1 -0.4-0.1-0.9-0.2-1.4-0.2 -0.3 0-0.5-0.1-0.8-0.1 -0.4 0-0.9-0.1-1.3-0.1 -0.3 0-0.6 0-0.9 0 -0.3 0-0.6 0-0.9 0 -0.2 0-0.4 0-0.5 0 -0.2 0-0.4 0-0.5 0 -0.8 0-1.5 0.1-2.3 0.1 -18.5 1.6-35.5 14-35.5 27.4 0 0.4 0 0.8 0 1.2 0 0.1 0 0.2 0 0.4 0 0.2 0.1 0.5 0.1 0.7 0 0.1 0.1 0.3 0.1 0.4 0 0.2 0.1 0.4 0.1 0.6 0 0.1 0.1 0.3 0.1 0.4 0.1 0.2 0.1 0.4 0.2 0.5 0.1 0.1 0.1 0.2 0.2 0.4 0.1 0.2 0.1 0.3 0.2 0.5 0.1 0.1 0.1 0.2 0.2 0.3C6 83.3 6 83.5 6.1 83.6c0.1 0.1 0.2 0.2 0.2 0.3 0.1 0.1 0.2 0.2 0.3 0.4 0.1 0.1 0.2 0.2 0.3 0.3 0.1 0.1 0.2 0.2 0.3 0.3C7.4 84.9 7.5 85 7.6 85c0.1 0.1 0.3 0.2 0.4 0.3 0.1 0.1 0.2 0.1 0.3 0.2 0.1 0.1 0.3 0.2 0.4 0.2 0.1 0.1 0.2 0.1 0.4 0.2C9.3 86 9.4 86 9.6 86.1c0.1 0 0.3 0.1 0.4 0.1 0.2 0 0.3 0.1 0.5 0.1 0.1 0 0.3 0.1 0.4 0.1 0.2 0 0.4 0.1 0.5 0.1 0.1 0 0.3 0 0.5 0.1 0.2 0 0.4 0.1 0.6 0.1 0.2 0 0.3 0 0.5 0 0.2 0 0.4 0 0.6 0 0.2 0 0.3 0 0.5 0 0.1 0 0.2 0 0.3 0 0.2 0 0.4 0 0.6 0 -0.1-0.9-1.4-1.6-1.4-6.6 0-16.1 13-24 24.4-25 0.6-0.1 1.2-0.1 1.8-0.1 0.3 0 0.6 0 1 0 0.2 0 0.3 0 0.5 0 0.4 0 0.7 0.1 1.1 0.1 0.1 0 0.2 0 0.3 0 0.4 0.1 0.9 0.1 1.3 0.2 0.1 0 0.2 0.1 0.3 0.1 0.3 0.1 0.6 0.2 0.9 0.3 0.1 0 0.2 0.1 0.4 0.1 0.2 0.1 0.4 0.2 0.7 0.3 0.1 0.1 0.3 0.1 0.4 0.2 0.2 0.1 0.4 0.2 0.5 0.3 0.1 0.1 0.2 0.2 0.3 0.2 0.2 0.1 0.3 0.2 0.5 0.3 0.1 0.1 0.2 0.2 0.3 0.3 0.1 0.1 0.3 0.2 0.4 0.4 0.1 0.1 0.2 0.2 0.3 0.3 0.1 0.1 0.2 0.3 0.3 0.4 0.1 0.1 0.2 0.2 0.2 0.3 0.1 0.1 0.2 0.3 0.3 0.4 0.1 0.1 0.1 0.2 0.2 0.4 0.1 0.2 0.2 0.3 0.2 0.5 0.1 0.1 0.1 0.2 0.2 0.4 0.1 0.2 0.1 0.3 0.2 0.5 0 0.1 0.1 0.2 0.1 0.4 0 0.2 0.1 0.4 0.1 0.6 0 0.1 0.1 0.2 0.1 0.4 0 0.2 0.1 0.4 0.1 0.6 0 0.1 0 0.2 0 0.3 0 0.3 0 0.7 0 1 0 7.3-6.3 16.5-14.1 17.1 -0.2 0-0.4 0-0.6 0 1.5-7.3 3.1-14.7 4.6-22.1 -4.8 1.1-9.6 2.1-14.5 3 -4.4 21-8.9 41.8-13.3 62.6 4.7-0.1 9.4-0.3 14.1-0.6 2.7-12.6 5.3-25.3 8-37.9 1.8-0.3 3.7-0.6 4.5-0.6 0.4 0 0.8 0 1.2 0 0.2 0 0.3 0 0.5 0 0.2 0 0.5 0 0.7 0.1 0.2 0 0.3 0 0.4 0.1 0.2 0 0.4 0.1 0.6 0.1 0.1 0 0.3 0.1 0.4 0.1 0.2 0.1 0.4 0.1 0.5 0.2 0.1 0.1 0.3 0.1 0.4 0.2 0.2 0.1 0.3 0.2 0.5 0.2 0.1 0.1 0.2 0.1 0.3 0.2 0.1 0.1 0.3 0.2 0.4 0.3 0.1 0.1 0.2 0.2 0.3 0.3 0.1 0.1 0.2 0.2 0.4 0.4 0.1 0.1 0.2 0.2 0.3 0.3 0.1 0.1 0.2 0.3 0.3 0.4 0.1 0.1 0.2 0.2 0.2 0.3 0.1 0.2 0.2 0.3 0.3 0.5 0.1 0.1 0.1 0.2 0.2 0.4 0.1 0.2 0.2 0.3 0.2 0.5 0.1 0.1 0.1 0.3 0.2 0.4 0.1 0.2 0.1 0.4 0.2 0.5 0 0.1 0.1 0.3 0.1 0.4 0.1 0.2 0.1 0.4 0.2 0.6 0 0.1 0.1 0.3 0.1 0.4 0 0.2 0.1 0.4 0.1 0.6 0 0.2 0.1 0.3 0.1 0.5 0 0.2 0.1 0.5 0.1 0.7 0 0.2 0 0.3 0 0.4 0 0.3 0 0.5 0.1 0.8 0 0.1 0 0.3 0 0.4 0 0.4 0 0.8 0 1.2 0 7.4-2.5 17.9-9.7 18.5 -0.2 0-0.5 0-0.7 0 -0.1 0-0.2 0-0.3 0 -0.2 0-0.3 0-0.5 0 -0.1 0-0.2 0-0.3-0.1 -0.1 0-0.3-0.1-0.4-0.1 -0.1 0-0.2-0.1-0.3-0.1 -0.1 0-0.3-0.1-0.4-0.2 -0.1 0-0.2-0.1-0.3-0.1 -0.1-0.1-0.3-0.2-0.4-0.2 -0.1-0.1-0.2-0.1-0.3-0.2 -0.2-0.1-0.3-0.2-0.5-0.3 -0.1-0.1-0.2-0.1-0.3-0.2 -0.2-0.1-0.4-0.3-0.5-0.4 -0.1-0.1-0.2-0.1-0.3-0.2 -0.3-0.2-0.6-0.5-0.9-0.8 -0.9 2.3-1.3 4.2-1.3 5.8 0 0.4 0 0.7 0.1 1 0 0.1 0 0.2 0.1 0.3 0 0.2 0.1 0.4 0.1 0.6 0 0.1 0.1 0.2 0.1 0.3 0.1 0.2 0.1 0.3 0.2 0.5 0 0.1 0.1 0.2 0.1 0.3 0.1 0.1 0.1 0.3 0.2 0.4 0.1 0.1 0.1 0.2 0.2 0.3 0.1 0.1 0.2 0.3 0.3 0.4 0.1 0.1 0.1 0.2 0.2 0.2 0.1 0.1 0.2 0.2 0.3 0.3 0.1 0.1 0.1 0.1 0.2 0.2 0.2 0.1 0.3 0.3 0.5 0.4 0 0 0 0 0.1 0.1 0.2 0.1 0.4 0.3 0.6 0.4 0.1 0 0.1 0.1 0.2 0.1 0.2 0.1 0.3 0.1 0.5 0.2 0.1 0 0.2 0.1 0.3 0.1 0.1 0 0.3 0.1 0.4 0.1 0.1 0 0.2 0.1 0.3 0.1 0.1 0 0.3 0.1 0.4 0.1 0.1 0 0.2 0 0.3 0.1 0.2 0 0.3 0 0.5 0.1 0.1 0 0.2 0 0.3 0 0.2 0 0.3 0 0.5 0 0.1 0 0.2 0 0.3 0 0.2 0 0.4 0 0.6 0 0.1 0 0.1 0 0.2 0 0 0 0 0 0 0 0 0 0 0 0 0 0.5 0 1.1 0 1.6-0.1 16.3-1.5 21.4-21.1 21.4-30.4C62.6 87.6 59.4 81.3 51.1 80.5z"/>
  <path fill="#FFFFFF" d="M284.5 96c0.3-0.1 1.6-1 2.5-4.4 -2.2 1.6-2.7 3.1-2.8 4.3C284.2 96 284.3 96 284.5 96L284.5 96z"/>
  <path fill="#FFFFFF" d="M295.9 65.4c-1.5 5-4 8.8-7.8 9.1 -0.2 0-0.4 0-0.5 0 -0.1 0-0.2 0-0.3 0 -0.1 0-0.2-0.1-0.3-0.1 -0.1 0-0.2-0.1-0.3-0.1 -0.1-0.1-0.2-0.1-0.3-0.2 -0.1-0.1-0.1-0.1-0.2-0.2 -0.1-0.1-0.2-0.2-0.2-0.3 -0.1-0.1-0.1-0.1-0.2-0.2 -0.1-0.1-0.1-0.2-0.2-0.4 0-0.1-0.1-0.2-0.1-0.3 0-0.1-0.1-0.3-0.1-0.4 0-0.1-0.1-0.2-0.1-0.3 0-0.2-0.1-0.3-0.1-0.5 0-0.1 0-0.2 0-0.3 0-0.3 0-0.5 0-0.8 0-0.8 0.1-1.7 0.3-2.5 2.3-11.2 4.7-22.5 7-33.7 -4.7 0.3-9.4 0.6-14.1 1 -2.2 10.6-4.4 21.3-6.6 32 -0.5 2.4-0.8 4.6-0.8 6.4 0 0.5 0 1 0.1 1.4 0 0.2 0 0.3 0 0.4 0 0.3 0.1 0.6 0.1 0.9 0 0.2 0.1 0.3 0.1 0.5 0 0.2 0.1 0.5 0.1 0.7 0 0.2 0.1 0.3 0.1 0.5 0.1 0.2 0.1 0.4 0.2 0.6 0.1 0.2 0.1 0.3 0.2 0.5 0.1 0.2 0.2 0.4 0.2 0.6 0.1 0.1 0.1 0.3 0.2 0.4 0.1 0.2 0.2 0.3 0.3 0.5 0.1 0.1 0.2 0.3 0.2 0.4 0.1 0.1 0.2 0.3 0.3 0.4 0.1 0.1 0.2 0.2 0.3 0.3 0.1 0.1 0.2 0.3 0.4 0.4 0.1 0.1 0.2 0.2 0.3 0.3 0.1 0.1 0.3 0.2 0.4 0.3 0.1 0.1 0.2 0.2 0.3 0.2 0.1 0.1 0.3 0.2 0.4 0.3 0.1 0.1 0.2 0.1 0.3 0.2 0.2 0.1 0.3 0.2 0.5 0.2 0.1 0.1 0.2 0.1 0.4 0.2 0.2 0.1 0.4 0.1 0.5 0.2 0.1 0 0.2 0.1 0.4 0.1 0.2 0.1 0.4 0.1 0.6 0.1 0.1 0 0.2 0 0.3 0.1 0.3 0.1 0.6 0.1 1 0.1 0.1 0 0.1 0 0.2 0 0.3 0 0.5 0 0.8 0 0 0 0 0 0 0 0.4 0 0.8 0 1.1 0 3.3-0.3 7.7-1.5 11.9-6.5 -0.3 1.5-0.6 2.9-1 4.4 -9.3 3.3-16.9 6.9-16.9 16 0 0.4 0 0.8 0.1 1.1 0 0.1 0 0.2 0.1 0.4 0 0.2 0.1 0.5 0.1 0.7 0 0.1 0.1 0.3 0.1 0.4 0.1 0.2 0.1 0.4 0.2 0.6 0.1 0.1 0.1 0.3 0.2 0.4 0.1 0.2 0.1 0.4 0.2 0.5 0.1 0.1 0.1 0.3 0.2 0.4 0.1 0.2 0.2 0.3 0.3 0.5 0.1 0.1 0.2 0.2 0.3 0.4 0.1 0.1 0.2 0.3 0.3 0.4 0.1 0.1 0.2 0.2 0.3 0.3 0.1 0.1 0.2 0.3 0.4 0.4 0.1 0.1 0.2 0.2 0.3 0.3 0.1 0.1 0.3 0.2 0.4 0.3 0.1 0.1 0.2 0.2 0.4 0.3 0.1 0.1 0.3 0.2 0.4 0.3 0.1 0.1 0.3 0.2 0.4 0.2 0.2 0.1 0.3 0.2 0.5 0.3 0.1 0.1 0.3 0.1 0.4 0.2 0.2 0.1 0.3 0.2 0.5 0.2 0.1 0.1 0.3 0.1 0.4 0.2 0.2 0.1 0.3 0.1 0.5 0.2 0.1 0 0.3 0.1 0.5 0.1 0.2 0 0.4 0.1 0.6 0.1 0.2 0 0.3 0.1 0.5 0.1 0.2 0 0.4 0.1 0.6 0.1 0.2 0 0.3 0 0.5 0.1 0.2 0 0.4 0 0.6 0 0.2 0 0.3 0 0.5 0 0 0 0.1 0 0.1 0 0.3 0 0.6 0 0.9 0 6.4-0.5 14.9-3.5 17.8-17.5 4-19 7.9-38 11.9-56.8 -4.7 0-9.4 0.1-14.2 0.3C300.3 44.3 298.1 54.8 295.9 65.4zM290.5 91.3c-1.3 5.8-3.8 7.9-5.8 8 -2.2 0.2-3.9-1.5-3.9-2.9 0-5.3 4.7-8.5 10.8-10.9C291.3 87.4 290.9 89.4 290.5 91.3z"/>
  <path fill="#FFFFFF" d="M198.6 53.1c0-0.1 0-0.2 0-0.2 0-0.2 0-0.3 0-0.5 0-0.1 0-0.2 0-0.3 0-0.1 0-0.3-0.1-0.4 0-0.1 0-0.2 0-0.3 0-0.1 0-0.3-0.1-0.4 0-0.1 0-0.2-0.1-0.3 0-0.1-0.1-0.3-0.1-0.4 0-0.1-0.1-0.2-0.1-0.3 0-0.1-0.1-0.2-0.1-0.4 0-0.1-0.1-0.2-0.1-0.3 -0.1-0.1-0.1-0.2-0.2-0.3 0-0.1-0.1-0.2-0.1-0.2 -0.1-0.1-0.1-0.2-0.2-0.3 0-0.1-0.1-0.1-0.1-0.2 -0.1-0.2-0.2-0.3-0.4-0.5 0 0 0 0 0 0 -0.1-0.1-0.3-0.3-0.4-0.4 -0.1 0-0.1-0.1-0.2-0.1 -0.1-0.1-0.2-0.2-0.3-0.2 -0.1 0-0.1-0.1-0.2-0.1 -0.1-0.1-0.2-0.1-0.3-0.2 -0.1 0-0.2-0.1-0.2-0.1 -0.1 0-0.2-0.1-0.4-0.1 -0.1 0-0.2 0-0.3-0.1 -0.1 0-0.3 0-0.4-0.1 -0.1 0-0.2 0-0.3 0 -0.1 0-0.1 0-0.2 0 -0.1 0-0.2 0-0.3 0 -0.1 0-0.2 0-0.2 0 -0.2 0-0.5 0.1-0.8 0.1 -4.1 0.8-6.1 3.5-6.1 6.5 0 0.2 0 0.5 0 0.7 0 0 0 0 0 0.1 0 0.2 0.1 0.5 0.1 0.7 0 0 0 0.1 0 0.1 0.1 0.2 0.1 0.4 0.2 0.6 0 0 0 0.1 0 0.1 0.1 0.2 0.2 0.4 0.3 0.6 0 0 0 0.1 0.1 0.1 0.1 0.2 0.2 0.4 0.4 0.5 0 0 0 0 0 0.1 0.1 0.2 0.3 0.3 0.5 0.4 0 0 0 0 0 0 0.2 0.1 0.4 0.2 0.6 0.3 0 0 0 0 0 0 0.2 0.1 0.4 0.1 0.6 0.1 0 0 0 0 0.1 0 0 0 0 0 0 0 0.2 0 0.3 0 0.5 0 0.8-0.2 2.8-0.9 3.1-1.6 0 10.7-7.3 34.1-16.9 36 -0.3 0.1-0.7 0.1-0.9 0.1 -0.1 0-0.3 0-0.4 0 -0.1 0-0.1 0-0.2 0 -0.2 0-0.4-0.1-0.5-0.1 0 0-0.1 0-0.1 0 -0.1-0.1-0.2-0.1-0.3-0.2 0 0-0.1-0.1-0.1-0.1 -0.1-0.1-0.2-0.2-0.2-0.2 0 0-0.1-0.1-0.1-0.2 -0.1-0.1-0.1-0.2-0.1-0.3 0-0.1 0-0.1-0.1-0.2 0-0.1-0.1-0.2-0.1-0.4 0-0.1 0-0.1 0-0.2 0-0.2 0-0.4 0-0.6 0-0.9 0.2-2.2 0.5-3.6 2.3-11.6 4.7-23.1 7-34.7 -4.7 1-9.4 1.9-14.1 2.9 -2.2 10.9-4.4 21.8-6.6 32.7 -1.5 5.2-4 9.4-7.8 10.2 -0.3 0.1-0.5 0.1-0.7 0.1 -0.1 0-0.2 0-0.3 0 -0.1 0-0.2 0-0.4-0.1 -0.1 0-0.2-0.1-0.2-0.1 -0.1 0-0.2-0.1-0.3-0.2 -0.1-0.1-0.1-0.1-0.2-0.2 -0.1-0.1-0.1-0.2-0.2-0.3 0-0.1-0.1-0.1-0.1-0.2 -0.1-0.1-0.1-0.2-0.2-0.3 0-0.1-0.1-0.2-0.1-0.2 0-0.1-0.1-0.3-0.1-0.4 0-0.1 0-0.2-0.1-0.3 0-0.2 0-0.3-0.1-0.5 0-0.1 0-0.2 0-0.2 0-0.3 0-0.5 0-0.8 0-0.8 0.1-1.7 0.3-2.5 2.3-11.6 4.7-23.1 7-34.7 -4.7 1-9.4 1.9-14.1 2.9 -2.2 10.9-4.4 21.8-6.6 32.7 -0.1 0-0.1 0-0.2 0 -4.9 6.5-9.6 11.8-17.3 13.3 -0.4 0.1-0.8 0.1-1.1 0.2 -0.1 0-0.2 0-0.3 0 -0.4 0-0.7 0.1-1 0.1 -0.2 0-0.4 0-0.6 0 -0.1 0-0.1 0-0.2 0 -0.1 0-0.3 0-0.4-0.1 -0.1 0-0.1 0-0.2 0 -0.1 0-0.2-0.1-0.4-0.1 -0.1 0-0.1 0-0.2-0.1 -0.1 0-0.3-0.1-0.4-0.2 0 0-0.1 0-0.1-0.1 -0.2-0.1-0.3-0.2-0.4-0.3 0 0-0.1-0.1-0.1-0.1 -0.1-0.1-0.2-0.2-0.3-0.3 0 0-0.1-0.1-0.1-0.2 -0.1-0.1-0.2-0.2-0.2-0.3 0-0.1-0.1-0.1-0.1-0.2 -0.1-0.1-0.1-0.3-0.2-0.4 0-0.1-0.1-0.1-0.1-0.2 -0.1-0.2-0.2-0.4-0.2-0.7 0 0 0-0.1 0-0.1 0-0.2-0.1-0.4-0.1-0.6 0-0.1 0-0.2 0-0.3 0-0.2-0.1-0.4-0.1-0.6 0-0.1 0-0.2 0-0.3 0-0.2 0-0.4-0.1-0.7 0-0.1 0-0.2 0-0.3 0-0.3 0-0.7 0-1.1 0-1.2 0.1-2.6 0.2-3.9 11.7-2.9 22.5-13.7 22.5-25 0-0.3 0-0.6 0-0.8 0-0.1 0-0.2 0-0.3 0-0.2 0-0.4-0.1-0.6 0-0.1 0-0.2 0-0.3 0-0.2-0.1-0.3-0.1-0.5 0-0.1 0-0.2-0.1-0.3 0-0.2-0.1-0.3-0.1-0.5 0-0.1-0.1-0.2-0.1-0.3 -0.1-0.2-0.1-0.4-0.2-0.6 0-0.1 0-0.1-0.1-0.2 -0.1-0.2-0.2-0.4-0.3-0.6 0-0.1-0.1-0.1-0.1-0.2 -0.1-0.1-0.2-0.3-0.3-0.4 -0.1-0.1-0.1-0.1-0.2-0.2 -0.1-0.1-0.2-0.2-0.3-0.3 -0.1-0.1-0.1-0.1-0.2-0.2 -0.1-0.1-0.2-0.2-0.4-0.3 -0.1-0.1-0.2-0.1-0.2-0.2 -0.2-0.1-0.3-0.2-0.5-0.3 -0.1 0-0.1-0.1-0.2-0.1 -0.3-0.1-0.5-0.2-0.8-0.3 -0.1 0-0.1 0-0.2 0 -0.2-0.1-0.5-0.1-0.7-0.2 -0.1 0-0.2 0-0.4 0 -0.2 0-0.5-0.1-0.7-0.1 -0.1 0-0.3 0-0.4 0 -0.1 0-0.2 0-0.3 0 -0.1 0-0.2 0-0.3 0 -0.3 0-0.7 0-1.1 0.1 -0.2 0-0.3 0-0.5 0 -0.6 0.1-1.1 0.1-1.8 0.3 -20 3.9-26.4 28.4-26.4 39.6 0 0.6 0 1.3 0.1 1.8 0 0.2 0 0.4 0.1 0.6 0 0.4 0.1 0.8 0.1 1.1 0 0.2 0.1 0.4 0.1 0.6 0.1 0.3 0.1 0.7 0.2 1 0 0.2 0.1 0.4 0.1 0.6 0.1 0.3 0.2 0.6 0.3 0.9 0.1 0.2 0.1 0.3 0.2 0.5 0.1 0.3 0.3 0.7 0.4 1 0 0.1 0.1 0.1 0.1 0.2 0.2 0.4 0.4 0.7 0.7 1.1 0.1 0.1 0.1 0.2 0.2 0.3 0.2 0.2 0.4 0.5 0.6 0.7 0.1 0.1 0.2 0.2 0.3 0.3 0.2 0.2 0.4 0.3 0.6 0.5 0.1 0.1 0.2 0.2 0.4 0.3 0.2 0.1 0.4 0.3 0.6 0.4 0.1 0.1 0.2 0.1 0.4 0.2 0.3 0.1 0.5 0.3 0.8 0.4 0.1 0 0.2 0.1 0.3 0.1 0.4 0.1 0.8 0.3 1.2 0.4 0.1 0 0.2 0 0.3 0.1 0.3 0.1 0.7 0.1 1 0.2 0.1 0 0.3 0 0.4 0.1 0.3 0 0.6 0.1 0.9 0.1 0.2 0 0.3 0 0.5 0 0.1 0 0.3 0 0.4 0 0.1 0 0.2 0 0.3 0 0.4 0 0.8 0 1.3-0.1 0.2 0 0.4 0 0.6-0.1 0.6-0.1 1.3-0.2 1.9-0.3 10.3-1.9 17.6-9.1 23-17 0 0.3 0 0.5 0 0.8 0 0.5 0 0.9 0.1 1.4 0 0.1 0 0.3 0 0.4 0 0.3 0.1 0.6 0.1 0.8 0 0.2 0 0.3 0.1 0.4 0 0.2 0.1 0.5 0.1 0.7 0 0.1 0.1 0.3 0.1 0.4 0.1 0.2 0.1 0.4 0.2 0.7 0 0.1 0.1 0.2 0.1 0.4 0.1 0.2 0.2 0.5 0.3 0.7 0 0.1 0.1 0.2 0.1 0.2 0.1 0.3 0.3 0.5 0.5 0.8 0 0.1 0.1 0.1 0.1 0.2 0.1 0.2 0.3 0.4 0.4 0.5 0.1 0.1 0.1 0.1 0.2 0.2 0.1 0.1 0.3 0.3 0.4 0.4 0.1 0.1 0.2 0.1 0.3 0.2 0.1 0.1 0.3 0.2 0.4 0.3 0.1 0.1 0.2 0.1 0.3 0.2 0.2 0.1 0.3 0.2 0.5 0.3 0.1 0 0.2 0.1 0.3 0.1 0.2 0.1 0.5 0.2 0.7 0.3 0 0 0.1 0 0.1 0 0.3 0.1 0.6 0.1 0.9 0.2 0.1 0 0.2 0 0.3 0 0.2 0 0.4 0.1 0.6 0.1 0.1 0 0.2 0 0.4 0 0.1 0 0.2 0 0.3 0 0.1 0 0.1 0 0.2 0 0.3 0 0.5 0 0.8 0 0.1 0 0.2 0 0.4 0 0.4 0 0.8-0.1 1.2-0.2 3.9-0.8 9.1-3 13.9-11.1 0.1 0.5 0.2 0.9 0.4 1.3 0 0.1 0.1 0.2 0.1 0.3 0.2 0.4 0.3 0.8 0.5 1.1 0 0.1 0.1 0.1 0.1 0.2 0.2 0.3 0.4 0.6 0.6 0.9 0 0 0.1 0.1 0.1 0.2 0.3 0.3 0.5 0.5 0.8 0.8 0.1 0.1 0.1 0.1 0.2 0.1 0.3 0.2 0.6 0.4 0.9 0.6 0 0 0 0 0.1 0 0.4 0.2 0.7 0.3 1.1 0.4 0.1 0 0.2 0.1 0.3 0.1 0.4 0.1 0.8 0.2 1.2 0.3 0.1 0 0.1 0 0.2 0 0.4 0 0.8 0.1 1.2 0.1 0.1 0 0.1 0 0.2 0 0 0 0.1 0 0.1 0 0.5 0 1 0 1.5-0.1 0.1 0 0.2 0 0.3 0 0.5-0.1 1.1-0.1 1.7-0.3 19.9-4.1 27.8-32.8 27.8-48.5C198.6 53.6 198.6 53.3 198.6 53.1zM123.7 66.8c1.9-0.4 2.4 1.1 2.4 3.5 0 8.1-6.6 16.9-14.2 18.8C113.9 79.1 118.7 67.8 123.7 66.8z"/>
  <path fill="#FFFFFF" d="M274 43c0-0.7-0.1-1.3-0.2-2l0 0 0 0c0-0.1 0-0.2-0.1-0.3 0-0.1-0.1-0.2-0.1-0.4 0-0.1-0.1-0.2-0.1-0.3 0-0.1-0.1-0.2-0.1-0.3 0-0.1-0.1-0.2-0.1-0.3 -0.1-0.1-0.1-0.2-0.2-0.3 0-0.1-0.1-0.2-0.1-0.2 -0.1-0.1-0.1-0.2-0.2-0.3 -0.1-0.1-0.1-0.2-0.2-0.2 -0.1-0.1-0.1-0.2-0.2-0.3 -0.1-0.1-0.1-0.1-0.2-0.2 -0.1-0.1-0.2-0.2-0.2-0.2 -0.1-0.1-0.1-0.1-0.2-0.2 -0.1-0.1-0.2-0.1-0.3-0.2 -0.1-0.1-0.2-0.1-0.2-0.2 -0.1-0.1-0.2-0.1-0.3-0.2 -0.1 0-0.2-0.1-0.3-0.1 -0.1-0.1-0.2-0.1-0.3-0.1 -0.1 0-0.2-0.1-0.3-0.1 -0.1 0-0.2-0.1-0.4-0.1 -0.1 0-0.2-0.1-0.3-0.1 -0.1 0-0.3-0.1-0.4-0.1 -0.1 0-0.2 0-0.2 0 -0.2 0-0.5 0-0.7 0h0c-0.3 0-0.5 0-0.8 0 -4.7 0.5-8.4 4.1-11.8 7.5 0.4-2.1 0.8-4.1 1.3-6.2 -4.7 0.6-9.4 1.3-14.1 2 -2.2 10.8-4.4 21.6-6.6 32.4 -0.2 0-0.3 0-0.5 0.1 -4.9 6.4-9.6 11.4-17.3 12.8 -0.4 0.1-0.7 0.1-1.1 0.2 -0.1 0-0.2 0-0.3 0 -0.3 0-0.6 0-0.9 0.1 0 0-0.1 0-0.1 0 -0.1 0-0.1 0-0.2 0 -0.2 0-0.3 0-0.5 0 -0.1 0-0.1 0-0.2 0 -0.1 0-0.2 0-0.4-0.1 -0.1 0-0.1 0-0.2 0 -0.1 0-0.2-0.1-0.4-0.1 -0.1 0-0.1 0-0.2-0.1 -0.2-0.1-0.3-0.1-0.4-0.2 0 0 0 0-0.1 0 -0.1-0.1-0.3-0.2-0.4-0.3 0 0-0.1-0.1-0.1-0.1 -0.1-0.1-0.2-0.2-0.3-0.3 0-0.1-0.1-0.1-0.1-0.2 -0.1-0.1-0.2-0.2-0.2-0.3 0-0.1-0.1-0.1-0.1-0.2 -0.1-0.1-0.1-0.3-0.2-0.4 0-0.1 0-0.1-0.1-0.1 -0.1-0.2-0.2-0.4-0.2-0.7 0-0.1 0-0.1 0-0.2 -0.1-0.2-0.1-0.4-0.1-0.6 0-0.1 0-0.2 0-0.3 0-0.2-0.1-0.4-0.1-0.6 0-0.1 0-0.2 0-0.3 0-0.2 0-0.4 0-0.7 0-0.1 0-0.2 0-0.3 0-0.3 0-0.7 0-1.1 0-1.2 0.1-2.6 0.2-3.9 11.7-2.9 22.5-13.3 22.5-24.5 0-0.3 0-0.6 0-0.8 0-0.1 0-0.2 0-0.3 0-0.2 0-0.4-0.1-0.6 0-0.1 0-0.2 0-0.3 0-0.2-0.1-0.3-0.1-0.5 0-0.1 0-0.2-0.1-0.3 0-0.2-0.1-0.3-0.1-0.5 0-0.1-0.1-0.2-0.1-0.3 -0.1-0.2-0.1-0.3-0.2-0.5 0-0.1-0.1-0.2-0.1-0.2 -0.1-0.2-0.2-0.4-0.3-0.6 0 0 0-0.1 0-0.1 -0.1-0.2-0.3-0.4-0.4-0.6 0-0.1-0.1-0.1-0.2-0.2 -0.1-0.1-0.2-0.3-0.4-0.4 -0.1-0.1-0.1-0.1-0.2-0.2 -0.1-0.1-0.3-0.2-0.4-0.3 -0.1-0.1-0.2-0.1-0.3-0.2 -0.1-0.1-0.3-0.2-0.4-0.3 -0.1 0-0.2-0.1-0.3-0.1 -0.2-0.1-0.3-0.1-0.5-0.2 -0.1 0-0.2-0.1-0.3-0.1 -0.2-0.1-0.5-0.1-0.8-0.2 -0.1 0-0.1 0-0.2 0 -0.3-0.1-0.7-0.1-1.1-0.1 -0.1 0-0.2 0-0.3 0 -0.2 0-0.4 0-0.7 0 0 0-0.1 0-0.2 0 -0.3 0-0.6 0-1 0 -0.2 0-0.3 0-0.5 0 -0.5 0.1-1.1 0.1-1.6 0.2 -20 3.5-26.4 28.5-26.4 39.7 0 0.6 0 1.3 0.1 1.8 0 0.2 0 0.4 0.1 0.6 0 0.4 0.1 0.8 0.1 1.1 0 0.2 0.1 0.4 0.1 0.6 0.1 0.3 0.1 0.7 0.2 1 0 0.2 0.1 0.4 0.1 0.5 0.1 0.3 0.2 0.6 0.3 0.9 0.1 0.1 0.1 0.3 0.2 0.4 0.1 0.4 0.3 0.7 0.5 1.1 0 0 0 0.1 0.1 0.1 0.2 0.4 0.4 0.7 0.7 1 0.1 0.1 0.2 0.2 0.2 0.3 0.2 0.2 0.3 0.4 0.5 0.6 0.1 0.1 0.2 0.2 0.3 0.3 0.2 0.2 0.4 0.3 0.6 0.5 0.1 0.1 0.2 0.2 0.4 0.3 0.2 0.1 0.4 0.3 0.6 0.4 0.1 0.1 0.2 0.1 0.3 0.2 0.3 0.1 0.6 0.3 0.9 0.4 0.1 0 0.1 0.1 0.2 0.1 0.4 0.1 0.8 0.3 1.2 0.4 0.1 0 0.2 0.1 0.4 0.1 0.3 0.1 0.6 0.1 0.9 0.2 0.2 0 0.3 0 0.5 0.1 0.3 0 0.6 0.1 0.9 0.1 0.2 0 0.3 0 0.5 0 0.1 0 0.2 0 0.3 0 0.1 0 0.2 0 0.3 0 0.4 0 0.9 0 1.3-0.1 0.2 0 0.4 0 0.6 0 0.6-0.1 1.3-0.2 2-0.3 10.2-1.9 17.4-8.6 22.8-16.2 -0.8 4-1.7 8-2.5 12.1 4.7-0.8 9.4-1.5 14.1-2.2 2.6-12.8 5.2-25.5 7.8-38.2 2.4-2.6 4.2-4.3 7.1-4.6 0.1 0 0.2 0 0.4 0 0.1 0 0.1 0 0.2 0 0.1 0 0.1 0.1 0.2 0.1 0 0 0.1 0 0.1 0.1 0.1 0 0.1 0.1 0.2 0.2 0 0 0.1 0.1 0.1 0.1 0.1 0.1 0.1 0.2 0.1 0.2 0 0 0.1 0.1 0.1 0.1 0 0.1 0.1 0.2 0.1 0.3 0 0 0 0.1 0 0.1 0.1 0.4 0.2 0.8 0.3 1.3 0 0.1 0 0.2 0.1 0.3 0 0.1 0 0.2 0.1 0.2 0 0.1 0.1 0.2 0.1 0.3 0 0.1 0.1 0.2 0.1 0.2 0 0.1 0.1 0.2 0.1 0.3 0 0.1 0.1 0.2 0.1 0.2 0 0.1 0.1 0.2 0.1 0.3 0 0.1 0.1 0.1 0.1 0.2 0.1 0.1 0.1 0.2 0.2 0.2 0.1 0.1 0.1 0.1 0.2 0.2 0.1 0.1 0.2 0.1 0.3 0.2 0.1 0 0.2 0.1 0.2 0.1 0.1 0 0.2 0.1 0.3 0.1 0.1 0 0.2 0.1 0.3 0.1 0.1 0 0.3 0 0.4 0.1 0.1 0 0.2 0 0.4 0 0 0 0.1 0 0.1 0 0.2 0 0.4 0 0.7 0C271.8 50.4 274 46.4 274 43zM223.9 46.9c1.9-0.3 2.4 1.1 2.4 3.6 0 8.1-6.6 16.8-14.2 18.6C214.2 59.1 218.9 47.8 223.9 46.9z"/>
  <path fill="#FFFFFF" d="M126.1 70.3c0-2.4-0.6-3.9-2.4-3.5 -5 1-9.8 12.3-11.7 22.4C119.5 87.2 126.1 78.4 126.1 70.3z"/>
  <path fill="#FFFFFF" d="M226.4 50.5c0-2.4-0.6-3.9-2.4-3.6 -5 0.9-9.8 12.2-11.7 22.2C219.7 67.3 226.4 58.6 226.4 50.5z"/>
  <path fill="#FFFFFF" d="M280.8 96.4c0 1.4 1.8 3.1 3.9 2.9 2-0.2 4.5-2.2 5.8-8 0.4-1.9 0.8-3.9 1.2-5.8C285.5 87.9 280.8 91.1 280.8 96.4z"/>
  <path fill="#FFFFFF" d="M319.3 31.4c-0.6-0.8-1.6-1.2-2.6-1.2 -4.7 0-9.5 0.1-14.3 0.3 -1.5 0.1-2.8 1.1-3.1 2.6 -2.2 10.5-4.4 21-6.6 31.5 -1.1 3.5-2.6 5.8-4.2 6.4 0-0.2 0-0.4 0-0.6 0-0.5 0.1-1.2 0.2-1.7 0 0 0-0.1 0-0.1 2.3-11.2 4.7-22.5 7-33.7 0.2-1-0.1-2.1-0.7-2.8 -0.6-0.7-1.6-1.2-2.5-1.2 -0.1 0-0.1 0-0.2 0 -4.6 0.3-9.4 0.6-14.2 1.1 -1.5 0.1-2.7 1.2-3 2.6 -0.1 0.5-0.2 0.9-0.3 1.4 -1.6-1.9-4-3-6.7-3 -0.4 0-0.8 0-1.2 0.1 -2.8 0.3-5.2 1.4-7.3 2.8 -0.1-0.2-0.3-0.4-0.4-0.5 -0.6-0.7-1.5-1.1-2.4-1.1 -0.1 0-0.3 0-0.4 0 -4.5 0.6-9.3 1.2-14.1 2 -1.4 0.2-2.5 1.3-2.8 2.6 -0.7 3.6-1.5 7.2-2.2 10.8 0-0.1 0-0.2 0-0.2 0-7.1-3.9-11.2-10.8-11.2 -1.2 0-2.5 0.1-3.8 0.4 -9.4 1.7-16.1 7.5-20.7 14.6 -0.2-7.4-4.3-10.1-8.1-10.1 -0.6 0-1.3 0.1-2 0.2 -4.2 0.8-7.2 3.3-8.3 6.7 -0.2-0.5-0.4-1-0.8-1.4 -0.6-0.6-1.5-1-2.3-1 -0.2 0-0.4 0-0.7 0.1 -4.7 1-9.4 1.9-14.1 2.9 -1.3 0.3-2.3 1.3-2.6 2.6l-1.8 8.8 -4.8 23.8c-1 3.7-2.6 6.3-4.2 7.3l0 0c0-0.6 0.1-1.2 0.2-1.7 0 0 0-0.1 0-0.1l7-34.7c0.2-1.1-0.1-2.2-0.9-3 -0.6-0.6-1.5-1-2.3-1 -0.2 0-0.4 0-0.7 0.1 -4.7 1-9.4 1.9-14.1 2.9 -1.3 0.3-2.3 1.3-2.6 2.6l-2 9.7c-0.4-6.2-4.1-9.8-10.4-9.8 -1.3 0-2.7 0.2-4.3 0.5 -6.4 1.2-12 4.5-16.6 9.5 -0.2-0.3-0.4-0.6-0.6-0.9 -1.6-2-4-3.1-6.7-3.1 -0.6 0-1.2 0.1-1.8 0.2 -2.7 0.5-5.1 1.7-7.2 3.2 -0.1-0.2-0.2-0.3-0.4-0.5 -0.6-0.7-1.5-1-2.4-1 -0.2 0-0.3 0-0.5 0 -4.8 0.8-9.5 1.5-14 2.1 -1.4 0.2-2.5 1.2-2.8 2.6 -1.3 6.3-2.6 12.5-3.9 18.8 -1.1-4.7-3.7-8.3-7.5-10.3 4-4.4 6.3-9.8 6.3-15.2 0-7.8-5.4-16.9-20.7-16.9 -1.2 0-2.4 0.1-3.7 0.2C18.9 49 1.2 63.1 1.2 77.9c0 7.7 4.8 12.2 13.2 12.2 0.2 0 0.5 0 0.7 0 0.9 0 1.7-0.4 2.3-1.1 -2.6 12.1-5.1 23.9-7.5 35.5 -0.2 1 0 2 0.7 2.8 0.6 0.8 1.6 1.2 2.6 1.2 0 0 0 0 0.1 0 4.6-0.1 9.4-0.3 14.2-0.6 1.5-0.1 2.8-1.2 3.1-2.6 0 0 0 0 0-0.1 2 2.2 5.1 3.4 9.1 3.4 0.6 0 1.2 0 1.9-0.1 8.3-0.7 14.2-5.5 18.1-11.7 -0.3 1.3-0.5 2.5-0.8 3.8 -0.2 1 0.1 2.1 0.8 2.9 0.6 0.7 1.5 1.1 2.4 1.1 0.1 0 0.3 0 0.4 0 4.6-0.6 9.3-1.2 14.1-1.9 1.4-0.2 2.5-1.2 2.8-2.6 2.5-12.5 5.1-24.9 7.6-37.4 1.1-1.2 2-2 2.8-2.5 0.5 1.9 1.9 4.9 6 4.9 0 0 0.1 0 0.1 0 -2 6.1-2.8 12-2.8 16.1 0 10.5 5.3 16.5 14.4 16.5 1.5 0 3.1-0.2 4.7-0.5 7.6-1.4 14.4-5.5 20.4-12.3 2 4.4 6 6.1 9.8 6.1 1 0 2.1-0.1 3.2-0.3 5-1 9.2-3.7 12.8-8 2 2.1 4.9 3.2 8.5 3.2 1.3 0 2.8-0.2 4.3-0.5 10.4-2.1 17.7-9.9 22.4-19.1 1.4 7.4 6.3 11.5 13.9 11.5 1.5 0 3.1-0.2 4.8-0.5 6-1.1 11.5-3.8 16.5-8.1l0 0.1c-0.2 1.1 0.1 2.2 0.9 3 0.6 0.7 1.5 1 2.4 1 0.2 0 0.4 0 0.5 0 4.8-0.8 9.5-1.5 14-2.2 1.4-0.2 2.5-1.3 2.8-2.6 2.5-12.4 5.1-24.9 7.6-37.3 1.2-1.2 2-1.9 2.8-2.4 0.5 2 1.9 5.3 6.3 5.3 0.3 0 0.7 0 1-0.1 1.5-0.2 2.8-0.6 3.9-1.2 -0.9 4.5-1.9 9-2.8 13.6 -0.6 2.8-0.8 5.1-0.9 7.1 0 4.5 1.2 8.1 3.6 10.6 1.4 1.5 3.1 2.5 5.2 3.1 -2.5 2.7-4.2 6.2-4.2 11 0 7.4 6 12.9 13.9 12.9 0.4 0 0.8 0 1.2 0 11-0.8 18.2-7.8 20.8-20.1 3.9-18.8 7.9-37.9 11.9-56.8C320.1 33.2 319.9 32.2 319.3 31.4zM235.5 58c-0.3 1.5-0.6 3-0.9 4.5l-1.5 7.4c-0.1 0.1-0.1 0.1-0.2 0.2 -5.1 6.6-9 10.4-15.2 11.5 -0.7 0.1-1.3 0.2-1.8 0.2 -0.6 0-0.8-0.1-0.8-0.1 0 0-0.6-0.6-0.6-3.7 0-0.4 0-0.9 0-1.4C223.4 73.6 232 66.7 235.5 58zM183.1 53.9c0.3 3.4 2.5 6.7 6.2 6.8 -1.6 10.5-7.4 25.3-13.1 27.6 0.1-0.5 0.2-1.1 0.3-2L183.1 53.9zM134.7 78.7l-2.1 10.4 -0.1 0.6c-5 6.7-9 10.6-15.1 11.8 -0.7 0.1-1.3 0.2-1.8 0.2 -0.5 0-0.7-0.1-0.7-0.1 0 0-0.6-0.6-0.6-3.7 0-0.4 0-0.9 0-1.4C123.4 93.5 131.1 86.6 134.7 78.7zM17 80.2c0-6.4 2.2-11.1 5.4-14.4 -1.4 6.7-2.8 13.3-4.2 19.9 -0.1-0.4-0.3-0.8-0.5-1.1C17.4 84 17 83.1 17 80.2zM41.2 125.4c-0.5 0-1 0.1-1.6 0.1 0 0 0 0 0 0 0 0 0 0 0 0 -0.1 0-0.1 0-0.2 0 -0.2 0-0.4 0-0.6 0 -0.1 0-0.2 0-0.3 0 -0.2 0-0.3 0-0.5 0 -0.1 0-0.2 0-0.3 0 -0.2 0-0.3 0-0.5-0.1 -0.1 0-0.2 0-0.3-0.1 -0.2 0-0.3-0.1-0.4-0.1 -0.1 0-0.2 0-0.3-0.1 -0.2 0-0.3-0.1-0.4-0.1 -0.1 0-0.2-0.1-0.3-0.1 -0.2-0.1-0.3-0.1-0.5-0.2 -0.1 0-0.2-0.1-0.2-0.1 -0.2-0.1-0.4-0.2-0.6-0.4 0 0 0 0-0.1-0.1 -0.2-0.1-0.4-0.2-0.5-0.4 -0.1-0.1-0.1-0.1-0.2-0.2 -0.1-0.1-0.2-0.2-0.3-0.3 -0.1-0.1-0.1-0.1-0.2-0.2 -0.1-0.1-0.2-0.2-0.3-0.4 -0.1-0.1-0.1-0.2-0.2-0.3 -0.1-0.1-0.2-0.3-0.2-0.4 0-0.1-0.1-0.2-0.1-0.3 -0.1-0.2-0.1-0.3-0.2-0.5 0-0.1-0.1-0.2-0.1-0.3 0-0.2-0.1-0.4-0.1-0.6 0-0.1 0-0.2-0.1-0.3 0-0.3-0.1-0.6-0.1-1 0-1.6 0.4-3.4 1.3-5.8 0.3 0.3 0.6 0.5 0.9 0.8 0.1 0.1 0.2 0.1 0.3 0.2 0.2 0.2 0.4 0.3 0.5 0.4 0.1 0.1 0.2 0.1 0.3 0.2 0.2 0.1 0.3 0.2 0.5 0.3 0.1 0.1 0.2 0.1 0.3 0.2 0.2 0.1 0.3 0.2 0.4 0.2 0.1 0 0.2 0.1 0.3 0.1 0.1 0.1 0.3 0.1 0.4 0.2 0.1 0 0.2 0.1 0.3 0.1 0.1 0 0.3 0.1 0.4 0.1 0.1 0 0.2 0 0.3 0.1 0.2 0 0.3 0 0.5 0 0.1 0 0.2 0 0.3 0 0.2 0 0.5 0 0.7 0 7.1-0.6 9.7-11.1 9.7-18.5 0-0.4 0-0.8 0-1.2 0-0.1 0-0.3 0-0.4 0-0.3 0-0.5-0.1-0.8 0-0.1 0-0.3 0-0.4 0-0.2-0.1-0.5-0.1-0.7 0-0.2-0.1-0.3-0.1-0.5 0-0.2-0.1-0.4-0.1-0.6 0-0.1-0.1-0.3-0.1-0.4 -0.1-0.2-0.1-0.4-0.2-0.6 0-0.1-0.1-0.3-0.1-0.4 -0.1-0.2-0.1-0.4-0.2-0.5 -0.1-0.1-0.1-0.3-0.2-0.4 -0.1-0.2-0.1-0.3-0.2-0.5 -0.1-0.1-0.1-0.3-0.2-0.4 -0.1-0.2-0.2-0.3-0.3-0.5 -0.1-0.1-0.2-0.2-0.2-0.3 -0.1-0.1-0.2-0.3-0.3-0.4 -0.1-0.1-0.2-0.2-0.3-0.3 -0.1-0.1-0.2-0.2-0.4-0.4 -0.1-0.1-0.2-0.2-0.3-0.3 -0.1-0.1-0.3-0.2-0.4-0.3 -0.1-0.1-0.2-0.2-0.3-0.2 -0.2-0.1-0.3-0.2-0.5-0.2 -0.1-0.1-0.2-0.1-0.4-0.2 -0.2-0.1-0.3-0.1-0.5-0.2 -0.1 0-0.3-0.1-0.4-0.1 -0.2-0.1-0.4-0.1-0.6-0.1 -0.1 0-0.3-0.1-0.4-0.1 -0.2 0-0.4 0-0.7-0.1 -0.2 0-0.3 0-0.5 0 -0.4 0-0.8 0-1.2 0 -0.8 0.1-2.7 0.3-4.5 0.6 -2.7 12.7-5.3 25.3-8 37.9 -4.7 0.3-9.4 0.4-14.1 0.6 4.4-20.8 8.9-41.7 13.3-62.6 4.8-0.9 9.6-1.9 14.5-3 -1.5 7.4-3.1 14.7-4.6 22.1 0.2 0 0.4 0 0.6 0C44.7 81 51 71.9 51 64.5c0-0.3 0-0.7 0-1 0-0.1 0-0.2 0-0.3 0-0.2 0-0.4-0.1-0.6 0-0.1-0.1-0.2-0.1-0.4 0-0.2-0.1-0.4-0.1-0.6 0-0.1-0.1-0.2-0.1-0.4 -0.1-0.2-0.1-0.4-0.2-0.5 0-0.1-0.1-0.2-0.2-0.4 -0.1-0.2-0.1-0.3-0.2-0.5 -0.1-0.1-0.1-0.2-0.2-0.4 -0.1-0.2-0.2-0.3-0.3-0.4 -0.1-0.1-0.2-0.2-0.2-0.3 -0.1-0.1-0.2-0.3-0.3-0.4 -0.1-0.1-0.2-0.2-0.3-0.3 -0.1-0.1-0.3-0.3-0.4-0.4 -0.1-0.1-0.2-0.2-0.3-0.3 -0.1-0.1-0.3-0.2-0.5-0.3 -0.1-0.1-0.2-0.2-0.3-0.2 -0.2-0.1-0.4-0.2-0.5-0.3 -0.1-0.1-0.2-0.1-0.4-0.2 -0.2-0.1-0.4-0.2-0.7-0.3 -0.1 0-0.2-0.1-0.4-0.1 -0.3-0.1-0.6-0.2-0.9-0.3 -0.1 0-0.2-0.1-0.3-0.1 -0.4-0.1-0.8-0.2-1.3-0.2 -0.1 0-0.2 0-0.3 0 -0.4 0-0.7-0.1-1.1-0.1 -0.2 0-0.3 0-0.5 0 -0.3 0-0.6 0-1 0 -0.6 0-1.2 0-1.8 0.1 -11.4 1-24.4 8.9-24.4 25 0 5 1.3 5.7 1.4 6.6 -0.2 0-0.4 0-0.6 0 -0.1 0-0.2 0-0.3 0 -0.2 0-0.3 0-0.5 0 -0.2 0-0.4 0-0.6 0 -0.2 0-0.3 0-0.5 0 -0.2 0-0.4 0-0.6-0.1 -0.2 0-0.3 0-0.5-0.1 -0.2 0-0.4-0.1-0.5-0.1 -0.1 0-0.3-0.1-0.4-0.1 -0.2 0-0.3-0.1-0.5-0.1 -0.1 0-0.3-0.1-0.4-0.1C9.4 86 9.3 86 9.1 85.9c-0.1-0.1-0.2-0.1-0.4-0.2 -0.2-0.1-0.3-0.1-0.4-0.2 -0.1-0.1-0.2-0.1-0.3-0.2 -0.1-0.1-0.3-0.2-0.4-0.3 -0.1-0.1-0.2-0.1-0.3-0.2 -0.1-0.1-0.2-0.2-0.3-0.3 -0.1-0.1-0.2-0.2-0.3-0.3 -0.1-0.1-0.2-0.2-0.3-0.4 -0.1-0.1-0.2-0.2-0.2-0.3C6 83.5 6 83.3 5.9 83.2c-0.1-0.1-0.1-0.2-0.2-0.3 -0.1-0.1-0.2-0.3-0.2-0.5 -0.1-0.1-0.1-0.2-0.2-0.4 -0.1-0.2-0.1-0.3-0.2-0.5 0-0.1-0.1-0.2-0.1-0.4 -0.1-0.2-0.1-0.4-0.1-0.6 0-0.1-0.1-0.3-0.1-0.4 0-0.2-0.1-0.5-0.1-0.7 0-0.1 0-0.2 0-0.4 0-0.4 0-0.8 0-1.2 0-13.5 17-25.8 35.5-27.4 0.8-0.1 1.6-0.1 2.3-0.1 0.2 0 0.4 0 0.5 0 0.2 0 0.4 0 0.5 0 0.3 0 0.6 0 0.9 0 0.3 0 0.6 0 0.9 0 0.5 0 0.9 0.1 1.3 0.1 0.3 0 0.5 0 0.8 0.1 0.5 0.1 0.9 0.2 1.4 0.2 0.2 0 0.4 0.1 0.6 0.1 0.6 0.1 1.2 0.3 1.8 0.5 0.1 0 0.1 0 0.2 0.1 0.5 0.2 1 0.3 1.4 0.5 0.2 0.1 0.3 0.2 0.5 0.2 0.3 0.2 0.7 0.3 1 0.5 0.2 0.1 0.4 0.2 0.5 0.3 0.3 0.2 0.5 0.3 0.8 0.5 0.2 0.1 0.3 0.3 0.5 0.4 0.2 0.2 0.5 0.4 0.7 0.6 0.2 0.1 0.3 0.3 0.5 0.4 0.2 0.2 0.4 0.4 0.6 0.6 0.1 0.2 0.3 0.3 0.4 0.5 0.2 0.2 0.3 0.4 0.5 0.6 0.1 0.2 0.2 0.3 0.3 0.5 0.1 0.2 0.3 0.5 0.4 0.7 0.1 0.2 0.2 0.3 0.3 0.5 0.1 0.2 0.2 0.5 0.3 0.7 0.1 0.2 0.1 0.4 0.2 0.5 0.1 0.3 0.2 0.5 0.2 0.8 0 0.2 0.1 0.4 0.1 0.5 0.1 0.3 0.1 0.6 0.1 0.9 0 0.2 0.1 0.3 0.1 0.5 0 0.5 0.1 0.9 0.1 1.4 0 5.8-3.4 12.4-9.8 16.6 8.3 0.8 11.5 7.1 11.5 14.4C62.6 104.3 57.5 123.9 41.2 125.4zM33.7 109.9c1.4-6.7 2.9-13.5 4.3-20.3 0.9-0.1 1.6-0.2 2-0.2 0.3 0 0.6 0 0.8 0 1.6 0 4.9 0 4.9 8.3 0 6.1-2.1 14.8-6.6 15.2 -0.1 0-0.2 0-0.3 0 -0.8 0-1.7-0.3-3.6-2.1C34.7 110.3 34.3 110.1 33.7 109.9zM44.2 59.1c0.8 0.3 1.4 0.7 1.9 1.2 1 1 1.5 2.4 1.5 4.3 0 4.4-2.9 9.8-7 12.4 1.2-5.5 2.3-11.1 3.5-16.6C44.2 59.9 44.3 59.5 44.2 59.1zM95.8 82C95.8 82 95.8 82 95.8 82c-0.3 0-0.5 0-0.7-0.1 -0.1 0-0.1 0-0.2-0.1 -0.1 0-0.3-0.1-0.4-0.1 -0.1 0-0.1-0.1-0.2-0.1 -0.1-0.1-0.2-0.1-0.3-0.2 -0.1-0.1-0.1-0.1-0.2-0.2 -0.1-0.1-0.1-0.2-0.2-0.2 0-0.1-0.1-0.1-0.1-0.2 -0.1-0.1-0.1-0.2-0.2-0.3 0-0.1-0.1-0.1-0.1-0.2 0-0.1-0.1-0.2-0.1-0.3 0-0.1-0.1-0.2-0.1-0.2 0-0.1-0.1-0.2-0.1-0.3 0-0.1 0-0.2-0.1-0.3 0-0.1 0-0.2-0.1-0.3 -0.1-0.4-0.2-0.9-0.3-1.3 0 0 0-0.1 0-0.1 0-0.1-0.1-0.2-0.1-0.4 0 0 0-0.1-0.1-0.1 0-0.1-0.1-0.2-0.1-0.2 0 0-0.1-0.1-0.1-0.1 0-0.1-0.1-0.1-0.2-0.2 0 0-0.1-0.1-0.1-0.1 -0.1 0-0.1-0.1-0.2-0.1 -0.1 0-0.1 0-0.2 0 -0.1 0-0.2 0-0.4 0 -2.9 0.5-4.7 2.2-7.1 4.9 -2.6 12.8-5.2 25.6-7.8 38.3 -4.7 0.7-9.4 1.3-14.1 1.9C65.5 104.8 69 88 72.4 71.3c4.7-0.7 9.4-1.4 14.1-2.1 -0.4 2.1-0.8 4.2-1.3 6.3 3.4-3.5 7.1-7.2 11.8-8 0.4-0.1 0.8-0.1 1.1-0.1 0 0 0.1 0 0.1 0 0 0 0.1 0 0.1 0 0.1 0 0.2 0 0.3 0 0.1 0 0.3 0 0.4 0 0.1 0 0.2 0 0.3 0 0.1 0 0.2 0.1 0.4 0.1 0.1 0 0.2 0 0.3 0.1 0.1 0 0.2 0.1 0.3 0.1 0.1 0 0.2 0.1 0.2 0.1 0.1 0 0.2 0.1 0.3 0.2 0.1 0 0.1 0.1 0.2 0.1 0.1 0.1 0.3 0.2 0.4 0.3 0 0 0 0 0.1 0 0.2 0.1 0.3 0.3 0.4 0.4 0 0 0.1 0.1 0.1 0.1 0.1 0.1 0.2 0.2 0.3 0.3 0 0.1 0.1 0.1 0.1 0.2 0.1 0.1 0.1 0.2 0.2 0.3 0 0.1 0.1 0.1 0.1 0.2 0.1 0.1 0.1 0.2 0.2 0.3 0 0.1 0.1 0.2 0.1 0.2 0 0.1 0.1 0.2 0.1 0.3l0 0c0.3 0.8 0.5 1.8 0.5 2.8 0 3.4-2.2 7.5-7 8.4C96.4 82 96.1 82 95.8 82zM170.8 102.3c-0.6 0.1-1.1 0.2-1.7 0.3 -0.1 0-0.2 0-0.3 0 -0.5 0.1-1 0.1-1.5 0.1 0 0-0.1 0-0.1 0 -0.1 0-0.1 0-0.2 0 -0.4 0-0.8 0-1.2-0.1 -0.1 0-0.1 0-0.2 0 -0.4-0.1-0.8-0.1-1.2-0.3 -0.1 0-0.2 0-0.3-0.1 -0.4-0.1-0.8-0.3-1.1-0.4 0 0 0 0-0.1 0 -0.3-0.2-0.6-0.4-0.9-0.6 -0.1 0-0.1-0.1-0.2-0.1 -0.3-0.2-0.6-0.5-0.8-0.8 0-0.1-0.1-0.1-0.1-0.2 -0.2-0.3-0.4-0.5-0.6-0.9 0-0.1-0.1-0.1-0.1-0.2 -0.2-0.3-0.4-0.7-0.5-1.1 0-0.1-0.1-0.2-0.1-0.3 -0.2-0.4-0.3-0.8-0.4-1.3 -4.8 8-10 10.3-13.9 11.1 -0.4 0.1-0.8 0.1-1.2 0.2 -0.1 0-0.2 0-0.4 0 -0.3 0-0.5 0-0.8 0 -0.1 0-0.1 0-0.2 0 -0.1 0-0.2 0-0.3 0 -0.1 0-0.2 0-0.4 0 -0.2 0-0.4 0-0.6-0.1 -0.1 0-0.2 0-0.3 0 -0.3 0-0.6-0.1-0.9-0.2 0 0-0.1 0-0.1 0 -0.2-0.1-0.5-0.2-0.7-0.3 -0.1 0-0.2-0.1-0.3-0.1 -0.2-0.1-0.3-0.2-0.5-0.3 -0.1-0.1-0.2-0.1-0.3-0.2 -0.1-0.1-0.3-0.2-0.4-0.3 -0.1-0.1-0.2-0.1-0.3-0.2 -0.1-0.1-0.3-0.2-0.4-0.4 -0.1-0.1-0.2-0.1-0.2-0.2 -0.1-0.2-0.3-0.3-0.4-0.5 0-0.1-0.1-0.1-0.1-0.2 -0.2-0.3-0.3-0.5-0.5-0.8 0-0.1-0.1-0.2-0.1-0.2 -0.1-0.2-0.2-0.4-0.3-0.7 0-0.1-0.1-0.2-0.1-0.4 -0.1-0.2-0.1-0.4-0.2-0.7 0-0.1-0.1-0.3-0.1-0.4 -0.1-0.2-0.1-0.5-0.1-0.7 0-0.1-0.1-0.3-0.1-0.4 0-0.3-0.1-0.6-0.1-0.8 0-0.1 0-0.3 0-0.4 0-0.4-0.1-0.9-0.1-1.4 0-0.3 0-0.5 0-0.8 -5.4 7.9-12.7 15.1-23 17 -0.7 0.1-1.3 0.2-1.9 0.3 -0.2 0-0.4 0-0.6 0.1 -0.4 0-0.9 0.1-1.3 0.1 -0.1 0-0.2 0-0.3 0 -0.1 0-0.3 0-0.4 0 -0.2 0-0.3 0-0.5 0 -0.3 0-0.6 0-0.9-0.1 -0.1 0-0.3 0-0.4-0.1 -0.3-0.1-0.7-0.1-1-0.2 -0.1 0-0.2 0-0.3-0.1 -0.4-0.1-0.8-0.2-1.2-0.4 -0.1 0-0.2-0.1-0.3-0.1 -0.3-0.1-0.5-0.2-0.8-0.4 -0.1-0.1-0.2-0.1-0.4-0.2 -0.2-0.1-0.4-0.3-0.6-0.4 -0.1-0.1-0.2-0.2-0.4-0.3 -0.2-0.2-0.4-0.3-0.6-0.5 -0.1-0.1-0.2-0.2-0.3-0.3 -0.2-0.2-0.4-0.4-0.6-0.7 -0.1-0.1-0.2-0.2-0.2-0.3 -0.2-0.3-0.5-0.7-0.7-1.1 0-0.1-0.1-0.1-0.1-0.2 -0.2-0.3-0.3-0.6-0.4-1 -0.1-0.1-0.1-0.3-0.2-0.5 -0.1-0.3-0.2-0.6-0.3-0.9 -0.1-0.2-0.1-0.4-0.1-0.6 -0.1-0.3-0.1-0.6-0.2-1 0-0.2-0.1-0.4-0.1-0.6 -0.1-0.4-0.1-0.8-0.1-1.1 0-0.2 0-0.4-0.1-0.6 0-0.6-0.1-1.2-0.1-1.8 0-11.3 6.3-35.8 26.4-39.6 0.6-0.1 1.2-0.2 1.8-0.3 0.2 0 0.3 0 0.5 0 0.4 0 0.7-0.1 1.1-0.1 0.1 0 0.2 0 0.3 0 0.1 0 0.2 0 0.3 0 0.1 0 0.3 0 0.4 0 0.2 0 0.5 0 0.7 0.1 0.1 0 0.2 0 0.4 0 0.3 0 0.5 0.1 0.7 0.2 0.1 0 0.1 0 0.2 0 0.3 0.1 0.6 0.2 0.8 0.3 0.1 0 0.1 0.1 0.2 0.1 0.2 0.1 0.3 0.2 0.5 0.3 0.1 0.1 0.2 0.1 0.2 0.2 0.1 0.1 0.3 0.2 0.4 0.3 0.1 0.1 0.2 0.1 0.2 0.2 0.1 0.1 0.2 0.2 0.3 0.3 0.1 0.1 0.1 0.1 0.2 0.2 0.1 0.1 0.2 0.3 0.3 0.4 0 0.1 0.1 0.1 0.1 0.2 0.1 0.2 0.2 0.4 0.3 0.6 0 0 0 0.1 0.1 0.2 0.1 0.2 0.1 0.4 0.2 0.6 0 0.1 0.1 0.2 0.1 0.3 0 0.2 0.1 0.3 0.1 0.5 0 0.1 0 0.2 0.1 0.3 0 0.2 0.1 0.3 0.1 0.5 0 0.1 0 0.2 0 0.3 0 0.2 0 0.4 0.1 0.6 0 0.1 0 0.2 0 0.3 0 0.3 0 0.6 0 0.8 0 11.2-10.7 22.1-22.5 25 -0.1 1.4-0.2 2.8-0.2 3.9 0 0.4 0 0.7 0 1.1 0 0.1 0 0.2 0 0.3 0 0.2 0 0.5 0.1 0.7 0 0.1 0 0.2 0 0.3 0 0.2 0.1 0.4 0.1 0.6 0 0.1 0 0.2 0 0.3 0 0.2 0.1 0.4 0.1 0.6 0 0 0 0.1 0 0.1 0.1 0.2 0.1 0.4 0.2 0.7 0 0.1 0 0.1 0.1 0.2 0.1 0.1 0.1 0.3 0.2 0.4 0 0.1 0.1 0.1 0.1 0.2 0.1 0.1 0.1 0.2 0.2 0.3 0 0.1 0.1 0.1 0.1 0.2 0.1 0.1 0.2 0.2 0.3 0.3 0 0 0.1 0.1 0.1 0.1 0.1 0.1 0.3 0.2 0.4 0.3 0 0 0.1 0 0.1 0.1 0.1 0.1 0.2 0.1 0.4 0.2 0.1 0 0.1 0 0.2 0.1 0.1 0 0.2 0.1 0.4 0.1 0.1 0 0.1 0 0.2 0 0.1 0 0.3 0 0.4 0.1 0.1 0 0.1 0 0.2 0 0.2 0 0.4 0 0.6 0 0.3 0 0.7 0 1-0.1 0.1 0 0.2 0 0.3 0 0.4 0 0.7-0.1 1.1-0.2 7.7-1.5 12.4-6.7 17.3-13.3 0.1 0 0.1 0 0.2 0 2.2-10.9 4.4-21.8 6.6-32.7 4.7-1 9.4-1.9 14.1-2.9 -2.3 11.6-4.7 23.1-7 34.7 -0.2 0.8-0.3 1.7-0.3 2.5 0 0.3 0 0.5 0 0.8 0 0.1 0 0.2 0 0.2 0 0.2 0 0.3 0.1 0.5 0 0.1 0 0.2 0.1 0.3 0 0.1 0.1 0.3 0.1 0.4 0 0.1 0.1 0.2 0.1 0.2 0 0.1 0.1 0.2 0.2 0.3 0 0.1 0.1 0.1 0.1 0.2 0.1 0.1 0.1 0.2 0.2 0.3 0.1 0.1 0.1 0.1 0.2 0.2 0.1 0.1 0.2 0.1 0.3 0.2 0.1 0 0.1 0.1 0.2 0.1 0.1 0 0.2 0.1 0.4 0.1 0.1 0 0.2 0 0.3 0 0.2 0 0.4 0 0.7-0.1 3.8-0.8 6.3-5 7.8-10.2 2.2-10.9 4.4-21.8 6.6-32.7 4.7-1 9.4-1.9 14.1-2.9 -2.3 11.5-4.7 23.1-7 34.7 -0.3 1.4-0.5 2.7-0.5 3.6 0 0.2 0 0.4 0 0.6 0 0.1 0 0.1 0 0.2 0 0.1 0.1 0.3 0.1 0.4 0 0.1 0 0.1 0.1 0.2 0 0.1 0.1 0.2 0.1 0.3 0 0.1 0.1 0.1 0.1 0.2 0.1 0.1 0.1 0.2 0.2 0.2 0 0 0.1 0.1 0.1 0.1 0.1 0.1 0.2 0.2 0.3 0.2 0 0 0.1 0 0.1 0 0.2 0.1 0.3 0.1 0.5 0.1 0.1 0 0.1 0 0.2 0 0.1 0 0.3 0 0.4 0 0.3 0 0.6 0 0.9-0.1 9.6-2 16.9-25.3 16.9-36 -0.3 0.7-2.3 1.4-3.1 1.6 -0.2 0-0.3 0-0.5 0 0 0 0 0 0 0 0 0 0 0-0.1 0 -0.2 0-0.4 0-0.6-0.1 0 0 0 0 0 0 -0.2-0.1-0.4-0.2-0.6-0.3 0 0 0 0 0 0 -0.2-0.1-0.3-0.3-0.5-0.4 0 0 0 0 0-0.1 -0.1-0.2-0.3-0.3-0.4-0.5 0 0 0-0.1-0.1-0.1 -0.1-0.2-0.2-0.4-0.3-0.6 0 0 0-0.1 0-0.1 -0.1-0.2-0.1-0.4-0.2-0.6 0 0 0-0.1 0-0.1 -0.1-0.2-0.1-0.5-0.1-0.7 0 0 0 0 0-0.1 0-0.2 0-0.5 0-0.7 0-3 2-5.7 6.1-6.5 0.3-0.1 0.5-0.1 0.8-0.1 0.1 0 0.2 0 0.2 0 0.1 0 0.2 0 0.3 0 0.1 0 0.1 0 0.2 0 0.1 0 0.2 0 0.3 0 0.1 0 0.3 0 0.4 0.1 0.1 0 0.2 0 0.3 0.1 0.1 0 0.2 0.1 0.4 0.1 0.1 0 0.2 0.1 0.2 0.1 0.1 0 0.2 0.1 0.3 0.2 0.1 0 0.1 0.1 0.2 0.1 0.1 0.1 0.2 0.1 0.3 0.2 0.1 0 0.1 0.1 0.2 0.1 0.1 0.1 0.3 0.2 0.4 0.4 0 0 0 0 0 0 0.1 0.1 0.2 0.3 0.4 0.5 0 0.1 0.1 0.1 0.1 0.2 0.1 0.1 0.1 0.2 0.2 0.3 0 0.1 0.1 0.2 0.1 0.2 0.1 0.1 0.1 0.2 0.2 0.3 0 0.1 0.1 0.2 0.1 0.3 0 0.1 0.1 0.2 0.1 0.4 0 0.1 0.1 0.2 0.1 0.3 0 0.1 0.1 0.2 0.1 0.4 0 0.1 0 0.2 0.1 0.3 0 0.1 0 0.3 0.1 0.4 0 0.1 0 0.2 0 0.3 0 0.1 0 0.3 0.1 0.4 0 0.1 0 0.2 0 0.3 0 0.2 0 0.3 0 0.5 0 0.1 0 0.2 0 0.2 0 0.3 0 0.5 0 0.8C198.6 69.5 190.7 98.2 170.8 102.3zM267 50.9c-0.2 0-0.5 0-0.7 0 0 0-0.1 0-0.1 0 -0.1 0-0.2 0-0.4 0 -0.1 0-0.3 0-0.4-0.1 -0.1 0-0.2-0.1-0.3-0.1 -0.1 0-0.2-0.1-0.3-0.1 -0.1 0-0.2-0.1-0.2-0.1 -0.1-0.1-0.2-0.1-0.3-0.2 -0.1-0.1-0.1-0.1-0.2-0.2 -0.1-0.1-0.1-0.2-0.2-0.2 -0.1-0.1-0.1-0.1-0.1-0.2 -0.1-0.1-0.1-0.2-0.1-0.3 0-0.1-0.1-0.1-0.1-0.2 0-0.1-0.1-0.2-0.1-0.3 0-0.1-0.1-0.2-0.1-0.2 0-0.1-0.1-0.2-0.1-0.3 0-0.1 0-0.2-0.1-0.2 0-0.1 0-0.2-0.1-0.3 -0.1-0.4-0.2-0.9-0.3-1.3 0 0 0-0.1 0-0.1 0-0.1-0.1-0.2-0.1-0.3 0-0.1 0-0.1-0.1-0.1 0-0.1-0.1-0.2-0.1-0.2 0 0-0.1-0.1-0.1-0.1 -0.1-0.1-0.1-0.1-0.2-0.2 0 0-0.1-0.1-0.1-0.1 -0.1 0-0.1-0.1-0.2-0.1 -0.1 0-0.1 0-0.2 0 -0.1 0-0.2 0-0.4 0 -2.9 0.4-4.7 2-7.1 4.6 -2.6 12.7-5.2 25.5-7.8 38.2 -4.7 0.7-9.4 1.4-14.1 2.2 0.8-4 1.6-8 2.5-12.1 -5.4 7.6-12.6 14.3-22.8 16.2 -0.7 0.1-1.3 0.2-2 0.3 -0.2 0-0.4 0-0.6 0 -0.5 0-0.9 0.1-1.3 0.1 -0.1 0-0.2 0-0.3 0 -0.1 0-0.2 0-0.3 0 -0.2 0-0.3 0-0.5 0 -0.3 0-0.6 0-0.9-0.1 -0.2 0-0.3 0-0.5-0.1 -0.3 0-0.6-0.1-0.9-0.2 -0.1 0-0.2 0-0.4-0.1 -0.4-0.1-0.8-0.2-1.2-0.4 -0.1 0-0.1-0.1-0.2-0.1 -0.3-0.1-0.6-0.3-0.9-0.4 -0.1-0.1-0.2-0.1-0.3-0.2 -0.2-0.1-0.4-0.3-0.6-0.4 -0.1-0.1-0.2-0.2-0.4-0.3 -0.2-0.2-0.4-0.3-0.6-0.5 -0.1-0.1-0.2-0.2-0.3-0.3 -0.2-0.2-0.4-0.4-0.5-0.6 -0.1-0.1-0.2-0.2-0.2-0.3 -0.2-0.3-0.5-0.7-0.7-1 0 0 0-0.1-0.1-0.1 -0.2-0.3-0.3-0.7-0.5-1.1 -0.1-0.1-0.1-0.3-0.2-0.4 -0.1-0.3-0.2-0.6-0.3-0.9 -0.1-0.2-0.1-0.4-0.1-0.5 -0.1-0.3-0.1-0.6-0.2-1 0-0.2-0.1-0.4-0.1-0.6 -0.1-0.4-0.1-0.8-0.1-1.1 0-0.2 0-0.4-0.1-0.6 0-0.6-0.1-1.2-0.1-1.8 0-11.2 6.3-36.1 26.4-39.7 0.6-0.1 1.1-0.2 1.6-0.2 0.2 0 0.3 0 0.5 0 0.3 0 0.7 0 1 0 0 0 0.1 0 0.2 0 0.2 0 0.4 0 0.7 0 0.1 0 0.2 0 0.3 0 0.4 0 0.7 0.1 1.1 0.1 0.1 0 0.1 0 0.2 0 0.3 0.1 0.5 0.1 0.8 0.2 0.1 0 0.2 0.1 0.3 0.1 0.2 0.1 0.4 0.1 0.5 0.2 0.1 0 0.2 0.1 0.3 0.1 0.2 0.1 0.3 0.2 0.4 0.3 0.1 0.1 0.2 0.1 0.3 0.2 0.1 0.1 0.3 0.2 0.4 0.3 0.1 0.1 0.1 0.1 0.2 0.2 0.1 0.1 0.2 0.3 0.4 0.4 0.1 0.1 0.1 0.1 0.2 0.2 0.2 0.2 0.3 0.4 0.4 0.6 0 0 0 0.1 0 0.1 0.1 0.2 0.2 0.4 0.3 0.6 0 0.1 0.1 0.2 0.1 0.2 0.1 0.2 0.1 0.3 0.2 0.5 0 0.1 0.1 0.2 0.1 0.3 0 0.2 0.1 0.3 0.1 0.5 0 0.1 0 0.2 0.1 0.3 0 0.2 0.1 0.3 0.1 0.5 0 0.1 0 0.2 0 0.3 0 0.2 0 0.4 0.1 0.6 0 0.1 0 0.2 0 0.3 0 0.3 0 0.6 0 0.8 0 11.2-10.7 21.6-22.5 24.5 -0.1 1.4-0.2 2.8-0.2 3.9 0 0.4 0 0.7 0 1.1 0 0.1 0 0.2 0 0.3 0 0.2 0 0.5 0 0.7 0 0.1 0 0.2 0 0.3 0 0.2 0.1 0.4 0.1 0.6 0 0.1 0 0.2 0 0.3 0 0.2 0.1 0.4 0.1 0.6 0 0.1 0 0.1 0 0.2 0.1 0.2 0.1 0.5 0.2 0.7 0 0 0 0.1 0.1 0.1 0.1 0.2 0.1 0.3 0.2 0.4 0 0.1 0.1 0.1 0.1 0.2 0.1 0.1 0.1 0.2 0.2 0.3 0 0.1 0.1 0.1 0.1 0.2 0.1 0.1 0.2 0.2 0.3 0.3 0 0 0.1 0.1 0.1 0.1 0.1 0.1 0.3 0.2 0.4 0.3 0 0 0 0 0.1 0 0.1 0.1 0.3 0.1 0.4 0.2 0.1 0 0.1 0 0.2 0.1 0.1 0 0.2 0.1 0.4 0.1 0.1 0 0.1 0 0.2 0 0.1 0 0.2 0 0.4 0.1 0.1 0 0.1 0 0.2 0 0.2 0 0.3 0 0.5 0 0.1 0 0.1 0 0.2 0 0 0 0.1 0 0.1 0 0.3 0 0.6 0 0.9-0.1 0.1 0 0.2 0 0.3 0 0.4 0 0.7-0.1 1.1-0.2 7.7-1.4 12.4-6.4 17.3-12.8 0.2 0 0.3 0 0.5-0.1 2.2-10.8 4.4-21.6 6.6-32.4 4.7-0.7 9.4-1.4 14.1-2 -0.4 2.1-0.8 4.1-1.3 6.2 3.4-3.4 7.1-7 11.8-7.5 0.3 0 0.5 0 0.8 0h0c0.2 0 0.5 0 0.7 0 0.1 0 0.2 0 0.2 0 0.2 0 0.3 0 0.4 0.1 0.1 0 0.2 0.1 0.3 0.1 0.1 0 0.2 0.1 0.4 0.1 0.1 0 0.2 0.1 0.3 0.1 0.1 0 0.2 0.1 0.3 0.1 0.1 0 0.2 0.1 0.3 0.1 0.1 0.1 0.2 0.1 0.3 0.2 0.1 0.1 0.2 0.1 0.2 0.2 0.1 0.1 0.2 0.1 0.3 0.2 0.1 0.1 0.1 0.1 0.2 0.2 0.1 0.1 0.2 0.2 0.2 0.2 0.1 0.1 0.1 0.1 0.2 0.2 0.1 0.1 0.1 0.2 0.2 0.3 0.1 0.1 0.1 0.2 0.2 0.2 0.1 0.1 0.1 0.2 0.2 0.3 0 0.1 0.1 0.2 0.1 0.2 0.1 0.1 0.1 0.2 0.2 0.3 0 0.1 0.1 0.2 0.1 0.3 0 0.1 0.1 0.2 0.1 0.3 0 0.1 0.1 0.2 0.1 0.3 0 0.1 0.1 0.2 0.1 0.4 0 0.1 0.1 0.2 0.1 0.3l0 0v0c0.2 0.6 0.2 1.3 0.2 2C274 46.4 271.8 50.4 267 50.9zM304.8 90.3c-2.9 14-11.3 17-17.8 17.5 -0.3 0-0.6 0-0.9 0 0 0-0.1 0-0.1 0 -0.2 0-0.3 0-0.5 0 -0.2 0-0.4 0-0.6 0 -0.2 0-0.3 0-0.5-0.1 -0.2 0-0.4 0-0.6-0.1 -0.2 0-0.3-0.1-0.5-0.1 -0.2 0-0.4-0.1-0.6-0.1 -0.2 0-0.3-0.1-0.5-0.1 -0.2-0.1-0.4-0.1-0.5-0.2 -0.1-0.1-0.3-0.1-0.4-0.2 -0.2-0.1-0.3-0.1-0.5-0.2 -0.1-0.1-0.3-0.1-0.4-0.2 -0.2-0.1-0.3-0.2-0.5-0.3 -0.1-0.1-0.3-0.2-0.4-0.2 -0.1-0.1-0.3-0.2-0.4-0.3 -0.1-0.1-0.3-0.2-0.4-0.3 -0.1-0.1-0.3-0.2-0.4-0.3 -0.1-0.1-0.2-0.2-0.3-0.3 -0.1-0.1-0.2-0.3-0.4-0.4 -0.1-0.1-0.2-0.2-0.3-0.3 -0.1-0.1-0.2-0.3-0.3-0.4 -0.1-0.1-0.2-0.2-0.3-0.4 -0.1-0.2-0.2-0.3-0.3-0.5 -0.1-0.1-0.1-0.3-0.2-0.4 -0.1-0.2-0.2-0.3-0.2-0.5 -0.1-0.1-0.1-0.3-0.2-0.4 -0.1-0.2-0.1-0.4-0.2-0.6 0-0.1-0.1-0.3-0.1-0.4 -0.1-0.2-0.1-0.5-0.1-0.7 0-0.1 0-0.2-0.1-0.4 0-0.4-0.1-0.7-0.1-1.1 0-9.1 7.6-12.7 16.9-16 0.3-1.5 0.7-2.9 1-4.4 -4.2 5-8.6 6.2-11.9 6.5 -0.4 0-0.8 0-1.1 0 0 0 0 0 0 0 -0.3 0-0.5 0-0.8 0 -0.1 0-0.1 0-0.2 0 -0.3 0-0.7-0.1-1-0.1 -0.1 0-0.2 0-0.3-0.1 -0.2 0-0.4-0.1-0.6-0.1 -0.1 0-0.2-0.1-0.4-0.1 -0.2-0.1-0.4-0.1-0.5-0.2 -0.1 0-0.2-0.1-0.4-0.2 -0.2-0.1-0.3-0.1-0.5-0.2 -0.1-0.1-0.2-0.1-0.3-0.2 -0.2-0.1-0.3-0.2-0.4-0.3 -0.1-0.1-0.2-0.2-0.3-0.2 -0.1-0.1-0.3-0.2-0.4-0.3 -0.1-0.1-0.2-0.2-0.3-0.3 -0.1-0.1-0.2-0.2-0.4-0.4 -0.1-0.1-0.2-0.2-0.3-0.3 -0.1-0.1-0.2-0.3-0.3-0.4 -0.1-0.1-0.2-0.2-0.2-0.4 -0.1-0.2-0.2-0.3-0.3-0.5 -0.1-0.1-0.1-0.3-0.2-0.4 -0.1-0.2-0.2-0.4-0.2-0.6 -0.1-0.1-0.1-0.3-0.2-0.5 -0.1-0.2-0.1-0.4-0.2-0.6 0-0.2-0.1-0.3-0.1-0.5 -0.1-0.2-0.1-0.5-0.1-0.7 0-0.2-0.1-0.3-0.1-0.5 0-0.3-0.1-0.6-0.1-0.9 0-0.1 0-0.3 0-0.4 0-0.5-0.1-0.9-0.1-1.4 0-1.9 0.3-4 0.8-6.4 2.2-10.7 4.4-21.3 6.6-32 4.7-0.4 9.4-0.8 14.1-1 -2.3 11.2-4.7 22.4-7 33.7 -0.2 0.8-0.3 1.7-0.3 2.5 0 0.3 0 0.5 0 0.8 0 0.1 0 0.2 0 0.3 0 0.2 0 0.4 0.1 0.5 0 0.1 0 0.2 0.1 0.3 0 0.1 0.1 0.3 0.1 0.4 0 0.1 0.1 0.2 0.1 0.3 0.1 0.1 0.1 0.2 0.2 0.4 0 0.1 0.1 0.2 0.2 0.2 0.1 0.1 0.1 0.2 0.2 0.3 0.1 0.1 0.1 0.1 0.2 0.2 0.1 0.1 0.2 0.1 0.3 0.2 0.1 0 0.2 0.1 0.3 0.1 0.1 0 0.2 0.1 0.3 0.1 0.1 0 0.2 0 0.3 0 0.2 0 0.3 0 0.5 0 3.8-0.3 6.3-4.1 7.8-9.1 2.2-10.6 4.4-21.1 6.6-31.7 4.7-0.2 9.4-0.3 14.2-0.3C312.7 52.4 308.7 71.3 304.8 90.3z"/>
  <path d="M50.8 80.5c6.4-4.3 9.8-10.9 9.8-16.6 0-0.5 0-1-0.1-1.4 0-0.2 0-0.3-0.1-0.5 0-0.3-0.1-0.6-0.1-0.9 0-0.2-0.1-0.4-0.1-0.5 -0.1-0.3-0.1-0.5-0.2-0.8 -0.1-0.2-0.1-0.4-0.2-0.5 -0.1-0.3-0.2-0.5-0.3-0.7 -0.1-0.2-0.2-0.4-0.3-0.5 -0.1-0.2-0.2-0.5-0.4-0.7 -0.1-0.2-0.2-0.3-0.3-0.5 -0.1-0.2-0.3-0.4-0.5-0.6 -0.1-0.2-0.3-0.3-0.4-0.5 -0.2-0.2-0.4-0.4-0.6-0.6 -0.1-0.1-0.3-0.3-0.5-0.4 -0.2-0.2-0.4-0.4-0.7-0.6 -0.2-0.1-0.3-0.3-0.5-0.4 -0.2-0.2-0.5-0.3-0.8-0.5 -0.2-0.1-0.3-0.2-0.5-0.3 -0.3-0.2-0.6-0.3-1-0.5 -0.2-0.1-0.3-0.2-0.5-0.2 -0.5-0.2-0.9-0.4-1.5-0.5 -0.1 0-0.1 0-0.2-0.1 -0.6-0.2-1.2-0.3-1.8-0.5 -0.2 0-0.4-0.1-0.6-0.1 -0.4-0.1-0.9-0.2-1.4-0.2 -0.3 0-0.5-0.1-0.8-0.1 -0.4 0-0.9-0.1-1.3-0.1 -0.3 0-0.6 0-0.9 0 -0.5 0-1 0-1.5 0 -0.2 0-0.4 0-0.5 0 -0.8 0-1.5 0.1-2.3 0.1 -18.5 1.6-35.5 14-35.5 27.4 0 0.4 0 0.8 0 1.2 0 0.1 0 0.2 0 0.4 0 0.2 0.1 0.5 0.1 0.7 0 0.1 0.1 0.3 0.1 0.4 0 0.2 0.1 0.4 0.1 0.6 0 0.1 0.1 0.3 0.1 0.4C4.9 81.6 4.9 81.8 5 82c0 0.1 0.1 0.2 0.2 0.4 0.1 0.2 0.1 0.3 0.2 0.5 0.1 0.1 0.1 0.2 0.2 0.3 0.1 0.1 0.2 0.3 0.3 0.4 0.1 0.1 0.2 0.2 0.2 0.3 0.1 0.1 0.2 0.2 0.3 0.4 0.1 0.1 0.2 0.2 0.3 0.3 0.1 0.1 0.2 0.2 0.4 0.3 0.1 0.1 0.2 0.2 0.3 0.2 0.1 0.1 0.3 0.2 0.4 0.3 0.1 0.1 0.2 0.1 0.3 0.2 0.1 0.1 0.3 0.2 0.4 0.2 0.1 0.1 0.2 0.1 0.4 0.2C9 85.9 9.2 85.9 9.3 86c0.1 0 0.3 0.1 0.4 0.1 0.2 0.1 0.3 0.1 0.5 0.1 0.1 0 0.3 0.1 0.4 0.1 0.2 0 0.4 0.1 0.5 0.1 0.1 0 0.3 0 0.5 0.1 0.2 0 0.4 0.1 0.6 0.1 0.2 0 0.3 0 0.5 0 0.2 0 0.4 0 0.6 0 0.2 0 0.3 0 0.5 0 0.3 0 0.6 0 0.9 0 -0.1-0.9-1.4-1.6-1.4-6.6 0-16.1 13-24 24.4-25 0.6-0.1 1.2-0.1 1.8-0.1 0.3 0 0.6 0 1 0 0.2 0 0.3 0 0.5 0 0.4 0 0.7 0.1 1.1 0.1 0.1 0 0.2 0 0.3 0 0.4 0.1 0.9 0.1 1.3 0.2 0.1 0 0.2 0.1 0.3 0.1 0.3 0.1 0.6 0.2 0.9 0.3 0.1 0 0.2 0.1 0.4 0.2 0.2 0.1 0.4 0.2 0.7 0.3 0.1 0.1 0.2 0.1 0.4 0.2 0.2 0.1 0.4 0.2 0.5 0.3 0.1 0.1 0.2 0.2 0.4 0.2 0.2 0.1 0.3 0.2 0.5 0.3 0.1 0.1 0.2 0.2 0.3 0.3 0.1 0.1 0.3 0.2 0.4 0.4 0.1 0.1 0.2 0.2 0.3 0.3 0.1 0.1 0.2 0.3 0.3 0.4 0.1 0.1 0.2 0.2 0.2 0.3 0.1 0.1 0.2 0.3 0.3 0.4 0.1 0.1 0.1 0.2 0.2 0.4 0.1 0.2 0.2 0.3 0.2 0.5 0.1 0.1 0.1 0.2 0.2 0.4 0.1 0.2 0.1 0.3 0.2 0.5 0 0.1 0.1 0.2 0.1 0.4 0.1 0.2 0.1 0.4 0.1 0.6 0 0.1 0.1 0.2 0.1 0.4 0 0.2 0.1 0.4 0.1 0.6 0 0.1 0 0.2 0 0.3 0 0.3 0 0.7 0 1 0 7.3-6.3 16.5-14.1 17.1 -0.2 0-0.4 0-0.6 0 1.5-7.3 3.1-14.7 4.6-22.1 -4.8 1.1-9.6 2-14.5 3 -4.4 20.9-8.9 41.8-13.3 62.6 4.7-0.1 9.4-0.3 14.1-0.6 2.7-12.6 5.3-25.3 8-37.9 1.8-0.3 3.7-0.6 4.5-0.6 0.4 0 0.8 0 1.2 0 0.2 0 0.3 0 0.5 0 0.2 0 0.5 0 0.7 0.1 0.2 0 0.3 0 0.4 0.1 0.2 0 0.4 0.1 0.6 0.1 0.1 0 0.3 0.1 0.4 0.1 0.2 0.1 0.4 0.1 0.5 0.2 0.1 0.1 0.3 0.1 0.4 0.2 0.2 0.1 0.3 0.2 0.5 0.2 0.1 0.1 0.2 0.1 0.3 0.2 0.1 0.1 0.3 0.2 0.4 0.3 0.1 0.1 0.2 0.2 0.3 0.3 0.1 0.1 0.2 0.2 0.4 0.4 0.1 0.1 0.2 0.2 0.3 0.3 0.1 0.1 0.2 0.3 0.3 0.4 0.1 0.1 0.2 0.2 0.2 0.3 0.1 0.2 0.2 0.3 0.3 0.5 0.1 0.1 0.1 0.2 0.2 0.4 0.1 0.2 0.2 0.3 0.2 0.5 0.1 0.1 0.1 0.3 0.2 0.4 0.1 0.2 0.1 0.4 0.2 0.5 0 0.1 0.1 0.3 0.1 0.4 0.1 0.2 0.1 0.4 0.2 0.6 0 0.1 0.1 0.3 0.1 0.4 0 0.2 0.1 0.4 0.1 0.6 0 0.2 0.1 0.3 0.1 0.5 0 0.2 0.1 0.5 0.1 0.7 0 0.1 0 0.3 0.1 0.4 0 0.3 0 0.5 0.1 0.8 0 0.1 0 0.3 0 0.4 0 0.4 0 0.8 0 1.2 0 7.4-2.5 17.9-9.7 18.5 -0.2 0-0.5 0-0.7 0 -0.1 0-0.2 0-0.3 0 -0.2 0-0.3 0-0.5 0 -0.1 0-0.2 0-0.3-0.1 -0.1 0-0.3-0.1-0.4-0.1 -0.1 0-0.2-0.1-0.3-0.1 -0.1-0.1-0.3-0.1-0.4-0.2 -0.1 0-0.2-0.1-0.3-0.1 -0.2-0.1-0.3-0.2-0.5-0.2 -0.1-0.1-0.2-0.1-0.3-0.2 -0.2-0.1-0.3-0.2-0.5-0.3 -0.1-0.1-0.2-0.1-0.3-0.2 -0.2-0.1-0.4-0.3-0.6-0.4 -0.1-0.1-0.2-0.1-0.3-0.2 -0.3-0.2-0.6-0.5-0.9-0.8 -0.9 2.3-1.3 4.2-1.3 5.7 0 0.4 0 0.7 0.1 1 0 0.1 0 0.2 0 0.3 0 0.2 0.1 0.4 0.1 0.6 0 0.1 0.1 0.2 0.1 0.3 0.1 0.2 0.1 0.3 0.2 0.5 0 0.1 0.1 0.2 0.1 0.3 0.1 0.1 0.1 0.3 0.2 0.4 0.1 0.1 0.1 0.2 0.2 0.3 0.1 0.1 0.2 0.3 0.3 0.4 0.1 0.1 0.1 0.2 0.2 0.2 0.1 0.1 0.2 0.2 0.3 0.3 0.1 0.1 0.1 0.1 0.2 0.2 0.2 0.1 0.3 0.3 0.5 0.4 0 0 0 0 0.1 0.1 0.2 0.1 0.4 0.3 0.6 0.4 0.1 0 0.1 0.1 0.2 0.1 0.2 0.1 0.3 0.1 0.5 0.2 0.1 0 0.2 0.1 0.3 0.1 0.1 0 0.3 0.1 0.4 0.1 0.1 0 0.2 0.1 0.3 0.1 0.2 0 0.3 0.1 0.4 0.1 0.1 0 0.2 0 0.3 0.1 0.2 0 0.3 0 0.5 0.1 0.1 0 0.2 0 0.3 0 0.2 0 0.3 0 0.5 0 0.1 0 0.2 0 0.3 0 0.2 0 0.4 0 0.6 0 0.1 0 0.1 0 0.2 0 0 0 0 0 0 0 0.5 0 1.1 0 1.6-0.1 16.3-1.5 21.4-21.1 21.4-30.4C62.3 87.5 59.1 81.2 50.8 80.5z"/>
  <path d="M103.5 73.5c0-1-0.2-1.9-0.5-2.8 0-0.1-0.1-0.2-0.1-0.3 0-0.1-0.1-0.2-0.1-0.2 -0.1-0.1-0.1-0.2-0.2-0.3 0-0.1-0.1-0.1-0.1-0.2 -0.1-0.1-0.1-0.2-0.2-0.3 0-0.1-0.1-0.1-0.1-0.2 -0.1-0.1-0.2-0.2-0.3-0.3 0-0.1-0.1-0.1-0.1-0.1 -0.1-0.1-0.3-0.3-0.4-0.4 0 0 0 0-0.1 0 -0.1-0.1-0.3-0.2-0.4-0.3 -0.1 0-0.1-0.1-0.2-0.1 -0.1-0.1-0.2-0.1-0.3-0.2 -0.1 0-0.2-0.1-0.2-0.1 -0.1 0-0.2-0.1-0.3-0.1 -0.1 0-0.2 0-0.3-0.1 -0.1 0-0.2-0.1-0.4-0.1 -0.1 0-0.2 0-0.3 0 -0.1 0-0.2 0-0.4 0 -0.1 0-0.2 0-0.3 0 -0.1 0-0.2 0-0.3 0 -0.4 0-0.7 0-1.1 0.1 -4.7 0.8-8.4 4.5-11.8 8 0.4-2.1 0.8-4.2 1.3-6.3 -4.7 0.7-9.4 1.5-14.1 2.1 -3.4 16.8-6.9 33.5-10.4 50.2 4.7-0.6 9.4-1.2 14.1-1.9 2.6-12.8 5.2-25.5 7.8-38.3 2.4-2.6 4.2-4.4 7.1-4.9 0.1 0 0.3 0 0.4 0 0.1 0 0.1 0 0.2 0 0.1 0 0.1 0 0.2 0.1 0 0 0.1 0 0.1 0.1 0.1 0 0.1 0.1 0.2 0.2 0 0 0.1 0.1 0.1 0.1 0 0.1 0.1 0.2 0.1 0.2 0 0 0 0.1 0.1 0.1 0 0.1 0.1 0.2 0.1 0.3 0 0 0 0.1 0 0.1 0.1 0.4 0.2 0.8 0.3 1.3 0 0.1 0 0.2 0.1 0.3 0 0.1 0 0.2 0.1 0.2 0 0.1 0.1 0.2 0.1 0.3 0 0.1 0.1 0.2 0.1 0.2 0 0.1 0.1 0.2 0.1 0.3 0 0.1 0.1 0.1 0.1 0.2 0 0.1 0.1 0.2 0.1 0.3 0 0.1 0.1 0.1 0.1 0.2 0.1 0.1 0.1 0.2 0.2 0.2 0.1 0.1 0.1 0.1 0.2 0.2 0.1 0.1 0.2 0.1 0.3 0.2 0.1 0 0.1 0.1 0.2 0.1 0.1 0.1 0.3 0.1 0.4 0.1 0.1 0 0.1 0 0.2 0.1 0.2 0 0.5 0.1 0.7 0.1 0.3 0 0.6 0 0.9-0.1C101.3 81 103.5 76.9 103.5 73.5z"/>
  <path d="M198.4 53.8c0-0.3 0-0.5 0-0.8 0-0.1 0-0.2 0-0.2 0-0.2 0-0.3 0-0.5 0-0.1 0-0.2 0-0.3 0-0.1 0-0.3-0.1-0.4 0-0.1 0-0.2-0.1-0.3 0-0.1 0-0.3-0.1-0.4 0-0.1 0-0.2-0.1-0.3 0-0.1-0.1-0.3-0.1-0.4 0-0.1-0.1-0.2-0.1-0.3 0-0.1-0.1-0.2-0.1-0.4 0-0.1-0.1-0.2-0.1-0.3 0-0.1-0.1-0.2-0.2-0.3 0-0.1-0.1-0.2-0.1-0.2 -0.1-0.1-0.1-0.2-0.2-0.3 0-0.1-0.1-0.1-0.1-0.2 -0.1-0.2-0.2-0.3-0.3-0.5 0 0 0 0 0 0 -0.1-0.1-0.3-0.3-0.4-0.4 -0.1 0-0.1-0.1-0.2-0.1 -0.1-0.1-0.2-0.2-0.3-0.2 -0.1 0-0.1-0.1-0.2-0.1 -0.1-0.1-0.2-0.1-0.3-0.2 -0.1 0-0.2-0.1-0.2-0.1 -0.1 0-0.2-0.1-0.4-0.1 -0.1 0-0.2 0-0.3-0.1 -0.1 0-0.3 0-0.4-0.1 -0.1 0-0.2 0-0.3 0 -0.2 0-0.3 0-0.5 0 -0.1 0-0.1 0-0.2 0 -0.2 0-0.5 0.1-0.8 0.1 -4.1 0.8-6.1 3.5-6.1 6.5 0 0.2 0 0.5 0 0.7 0 0 0 0 0 0.1 0 0.2 0.1 0.5 0.1 0.7 0 0 0 0.1 0 0.1 0.1 0.2 0.1 0.4 0.2 0.6 0 0 0 0.1 0 0.1 0.1 0.2 0.2 0.4 0.3 0.6 0 0 0 0.1 0.1 0.1 0.1 0.2 0.2 0.4 0.4 0.5 0 0 0 0 0 0.1 0.1 0.2 0.3 0.3 0.5 0.4 0 0 0 0 0 0 0.2 0.1 0.4 0.2 0.6 0.3 0 0 0 0 0.1 0 0.2 0.1 0.4 0.1 0.6 0.1 0 0 0.1 0 0.1 0 0.2 0 0.3 0 0.5 0 0.8-0.2 2.8-0.9 3.1-1.6 0 10.7-7.3 34.1-16.9 36 -0.3 0.1-0.6 0.1-0.9 0.1 -0.1 0-0.3 0-0.4 0 -0.1 0-0.1 0-0.2 0 -0.2 0-0.4-0.1-0.5-0.1 0 0-0.1 0-0.1 0 -0.1-0.1-0.2-0.1-0.3-0.2 0 0-0.1-0.1-0.1-0.1 -0.1-0.1-0.2-0.2-0.2-0.2 0 0-0.1-0.1-0.1-0.2 -0.1-0.1-0.1-0.2-0.1-0.3 0-0.1-0.1-0.1-0.1-0.2 0-0.1-0.1-0.2-0.1-0.4 0-0.1 0-0.1 0-0.2 0-0.2 0-0.4 0-0.6 0-0.9 0.2-2.2 0.5-3.6 2.3-11.6 4.7-23.1 7-34.7 -4.7 1-9.4 1.9-14.1 2.9 -2.2 10.9-4.4 21.8-6.6 32.7 -1.5 5.2-4 9.4-7.8 10.2 -0.3 0.1-0.5 0.1-0.7 0.1 -0.1 0-0.2 0-0.3 0 -0.1 0-0.3 0-0.4-0.1 -0.1 0-0.1-0.1-0.2-0.1 -0.1-0.1-0.2-0.1-0.3-0.2 -0.1 0-0.1-0.1-0.2-0.2 -0.1-0.1-0.2-0.2-0.2-0.3 0-0.1-0.1-0.1-0.1-0.2 -0.1-0.1-0.1-0.2-0.2-0.3 0-0.1-0.1-0.2-0.1-0.2 0-0.1-0.1-0.3-0.1-0.4 0-0.1 0-0.2-0.1-0.3 0-0.2-0.1-0.3-0.1-0.5 0-0.1 0-0.2 0-0.2 0-0.3 0-0.5 0-0.8 0-0.8 0.1-1.7 0.3-2.5 2.3-11.6 4.7-23.1 7-34.7 -4.7 1-9.4 1.9-14.1 2.9 -2.2 10.9-4.4 21.8-6.6 32.7 -0.1 0-0.1 0-0.2 0 -4.9 6.5-9.6 11.8-17.3 13.3 -0.4 0.1-0.8 0.1-1.1 0.2 -0.1 0-0.2 0-0.3 0 -0.4 0-0.7 0.1-1 0.1 -0.2 0-0.4 0-0.6 0 -0.1 0-0.1 0-0.2 0 -0.1 0-0.3 0-0.4-0.1 -0.1 0-0.1 0-0.2 0 -0.1 0-0.2-0.1-0.4-0.1 -0.1 0-0.1 0-0.2-0.1 -0.1-0.1-0.3-0.1-0.4-0.2 0 0-0.1 0-0.1-0.1 -0.1-0.1-0.3-0.2-0.4-0.3 0 0-0.1-0.1-0.1-0.1 -0.1-0.1-0.2-0.2-0.3-0.3 0 0-0.1-0.1-0.1-0.2 -0.1-0.1-0.2-0.2-0.2-0.3 0-0.1-0.1-0.1-0.1-0.2 -0.1-0.1-0.1-0.3-0.2-0.4 0-0.1-0.1-0.1-0.1-0.2 -0.1-0.2-0.2-0.4-0.2-0.7 0 0 0-0.1 0-0.1 -0.1-0.2-0.1-0.4-0.1-0.6 0-0.1 0-0.2 0-0.3 0-0.2-0.1-0.4-0.1-0.6 0-0.1 0-0.2 0-0.3 0-0.2 0-0.4-0.1-0.7 0-0.1 0-0.2 0-0.3 0-0.3 0-0.7 0-1.1 0-1.2 0.1-2.6 0.2-3.9 11.7-2.9 22.5-13.7 22.5-25 0-0.3 0-0.6 0-0.8 0-0.1 0-0.2 0-0.3 0-0.2 0-0.4-0.1-0.6 0-0.1 0-0.2 0-0.3 0-0.2-0.1-0.3-0.1-0.5 0-0.1 0-0.2-0.1-0.3 0-0.2-0.1-0.3-0.1-0.5 0-0.1 0-0.2-0.1-0.3 -0.1-0.2-0.1-0.4-0.2-0.5 0-0.1 0-0.1-0.1-0.2 -0.1-0.2-0.2-0.4-0.3-0.6 0-0.1-0.1-0.1-0.1-0.2 -0.1-0.1-0.2-0.3-0.3-0.4 -0.1-0.1-0.1-0.1-0.2-0.2 -0.1-0.1-0.2-0.2-0.3-0.3 -0.1-0.1-0.1-0.1-0.2-0.2 -0.1-0.1-0.2-0.2-0.4-0.3 -0.1-0.1-0.2-0.1-0.2-0.2 -0.2-0.1-0.3-0.2-0.5-0.3 -0.1 0-0.1-0.1-0.2-0.1 -0.3-0.1-0.5-0.2-0.8-0.3 -0.1 0-0.1 0-0.2 0 -0.2-0.1-0.5-0.1-0.7-0.2 -0.1 0-0.2 0-0.4 0 -0.2 0-0.5-0.1-0.7-0.1 -0.1 0-0.3 0-0.4 0 -0.2 0-0.4 0-0.6 0 -0.3 0-0.7 0-1.1 0.1 -0.2 0-0.3 0-0.5 0 -0.6 0.1-1.1 0.2-1.8 0.3 -20 3.9-26.4 28.4-26.4 39.6 0 0.6 0 1.3 0.1 1.8 0 0.2 0 0.4 0.1 0.6 0 0.4 0.1 0.8 0.1 1.1 0 0.2 0.1 0.4 0.1 0.6 0.1 0.3 0.1 0.7 0.2 1 0 0.2 0.1 0.4 0.1 0.6 0.1 0.3 0.2 0.6 0.3 0.9 0.1 0.2 0.1 0.3 0.2 0.5 0.1 0.3 0.3 0.7 0.4 1 0 0.1 0.1 0.1 0.1 0.2 0.2 0.4 0.4 0.7 0.7 1.1 0.1 0.1 0.1 0.2 0.2 0.3 0.2 0.2 0.4 0.4 0.5 0.7 0.1 0.1 0.2 0.2 0.3 0.3 0.2 0.2 0.4 0.3 0.6 0.5 0.1 0.1 0.2 0.2 0.4 0.3 0.2 0.1 0.4 0.3 0.6 0.4 0.1 0.1 0.2 0.1 0.4 0.2 0.3 0.1 0.5 0.3 0.8 0.4 0.1 0 0.2 0.1 0.3 0.1 0.4 0.1 0.8 0.3 1.2 0.4 0.1 0 0.2 0 0.2 0.1 0.3 0.1 0.7 0.1 1 0.2 0.1 0 0.3 0 0.4 0.1 0.3 0 0.6 0.1 0.9 0.1 0.2 0 0.3 0 0.5 0 0.2 0 0.5 0 0.7 0 0.4 0 0.8 0 1.3-0.1 0.2 0 0.4 0 0.6 0 0.6-0.1 1.3-0.2 1.9-0.3 10.3-1.9 17.6-9.1 23-17 0 0.3 0 0.5 0 0.8 0 0.5 0 0.9 0 1.4 0 0.1 0 0.3 0 0.4 0 0.3 0.1 0.6 0.1 0.8 0 0.2 0 0.3 0.1 0.4 0 0.2 0.1 0.5 0.2 0.7 0 0.1 0.1 0.3 0.1 0.4 0.1 0.2 0.1 0.4 0.2 0.7 0 0.1 0.1 0.2 0.1 0.4 0.1 0.2 0.2 0.4 0.3 0.7 0 0.1 0.1 0.2 0.1 0.2 0.1 0.3 0.3 0.5 0.5 0.8 0 0.1 0.1 0.1 0.1 0.2 0.1 0.2 0.3 0.4 0.4 0.5 0.1 0.1 0.1 0.1 0.2 0.2 0.1 0.1 0.3 0.3 0.4 0.4 0.1 0.1 0.2 0.1 0.3 0.2 0.1 0.1 0.3 0.2 0.4 0.3 0.1 0.1 0.2 0.1 0.3 0.2 0.2 0.1 0.3 0.2 0.5 0.3 0.1 0 0.2 0.1 0.3 0.1 0.2 0.1 0.5 0.2 0.7 0.3 0 0 0.1 0 0.1 0 0.3 0.1 0.6 0.1 0.8 0.2 0.1 0 0.2 0 0.3 0 0.2 0 0.4 0.1 0.6 0.1 0.1 0 0.2 0 0.4 0 0.2 0 0.3 0 0.5 0 0.3 0 0.5 0 0.8 0 0.1 0 0.2 0 0.4 0 0.4 0 0.8-0.1 1.2-0.2 3.9-0.8 9.1-3 13.9-11.1 0.1 0.5 0.2 0.9 0.4 1.3 0 0.1 0.1 0.2 0.1 0.3 0.2 0.4 0.3 0.8 0.5 1.1 0 0.1 0.1 0.1 0.1 0.2 0.2 0.3 0.4 0.6 0.6 0.8 0 0.1 0.1 0.1 0.1 0.2 0.3 0.3 0.5 0.5 0.8 0.8 0.1 0 0.1 0.1 0.2 0.1 0.3 0.2 0.6 0.4 0.9 0.6 0 0 0 0 0.1 0 0.4 0.2 0.7 0.3 1.1 0.4 0.1 0 0.2 0.1 0.3 0.1 0.4 0.1 0.8 0.2 1.2 0.3 0.1 0 0.1 0 0.2 0 0.4 0.1 0.8 0.1 1.2 0.1 0.1 0 0.2 0 0.3 0 0.5 0 1 0 1.5-0.1 0.1 0 0.2 0 0.3 0 0.5-0.1 1.1-0.1 1.7-0.3C190.5 98.1 198.4 69.4 198.4 53.8zM123.4 66.7c1.9-0.4 2.4 1.1 2.4 3.5 0 8.1-6.6 16.9-14.2 18.8C113.7 79 118.4 67.7 123.4 66.7z"/>
  <path d="M273.5 41L273.5 41c0-0.1-0.1-0.2-0.1-0.3 0-0.1-0.1-0.2-0.1-0.4 0-0.1-0.1-0.2-0.1-0.3 0-0.1-0.1-0.2-0.1-0.3 0-0.1-0.1-0.2-0.1-0.3 -0.1-0.1-0.1-0.2-0.2-0.3 0-0.1-0.1-0.2-0.1-0.2 -0.1-0.1-0.1-0.2-0.2-0.3 -0.1-0.1-0.1-0.2-0.2-0.2 -0.1-0.1-0.1-0.2-0.2-0.3 -0.1-0.1-0.1-0.1-0.2-0.2 -0.1-0.1-0.2-0.2-0.2-0.2 -0.1-0.1-0.1-0.1-0.2-0.2 -0.1-0.1-0.2-0.1-0.3-0.2 -0.1-0.1-0.2-0.1-0.2-0.2 -0.1-0.1-0.2-0.1-0.3-0.2 -0.1 0-0.2-0.1-0.3-0.1 -0.1-0.1-0.2-0.1-0.3-0.1 -0.1 0-0.2-0.1-0.3-0.1 -0.1 0-0.2-0.1-0.4-0.1 -0.1 0-0.2-0.1-0.3-0.1 -0.1 0-0.3-0.1-0.4-0.1 -0.1 0-0.2 0-0.2 0 -0.2 0-0.5 0-0.7 0 -0.3 0-0.5 0-0.8 0 -4.7 0.5-8.4 4.1-11.8 7.5 0.4-2.1 0.8-4.1 1.3-6.2 -4.7 0.6-9.4 1.3-14.1 2 -2.2 10.8-4.4 21.6-6.6 32.4 -0.2 0-0.3 0-0.5 0.1 -4.9 6.4-9.6 11.4-17.3 12.8 -0.4 0.1-0.7 0.1-1.1 0.2 -0.1 0-0.2 0-0.3 0 -0.3 0-0.6 0.1-0.9 0.1 0 0 0 0-0.1 0 -0.1 0-0.1 0-0.2 0 -0.2 0-0.3 0-0.5 0 -0.1 0-0.1 0-0.2 0 -0.1 0-0.3 0-0.4-0.1 -0.1 0-0.1 0-0.2 0 -0.1 0-0.2-0.1-0.3-0.1 -0.1 0-0.1 0-0.2-0.1 -0.1-0.1-0.3-0.1-0.4-0.2 0 0 0 0-0.1 0 -0.1-0.1-0.3-0.2-0.4-0.3 0 0-0.1-0.1-0.1-0.1 -0.1-0.1-0.2-0.2-0.3-0.3 0-0.1-0.1-0.1-0.1-0.2 -0.1-0.1-0.2-0.2-0.2-0.3 0-0.1-0.1-0.1-0.1-0.2 -0.1-0.1-0.1-0.3-0.2-0.4 0 0 0-0.1-0.1-0.1 -0.1-0.2-0.2-0.4-0.2-0.7 0-0.1 0-0.1 0-0.2 -0.1-0.2-0.1-0.4-0.1-0.6 0-0.1 0-0.2 0-0.3 0-0.2-0.1-0.4-0.1-0.6 0-0.1 0-0.2 0-0.3 0-0.2 0-0.4-0.1-0.7 0-0.1 0-0.2 0-0.3 0-0.3 0-0.7 0-1.1 0-1.2 0.1-2.6 0.2-3.9 11.7-2.9 22.5-13.3 22.5-24.5 0-0.3 0-0.6 0-0.8 0-0.1 0-0.2 0-0.3 0-0.2 0-0.4-0.1-0.6 0-0.1 0-0.2 0-0.3 0-0.2-0.1-0.3-0.1-0.5 0-0.1 0-0.2-0.1-0.3 0-0.2-0.1-0.3-0.1-0.5 0-0.1-0.1-0.2-0.1-0.3 -0.1-0.2-0.1-0.3-0.2-0.5 0-0.1-0.1-0.2-0.1-0.2 -0.1-0.2-0.2-0.4-0.3-0.6 0 0 0-0.1 0-0.1 -0.1-0.2-0.3-0.4-0.4-0.6 0-0.1-0.1-0.1-0.2-0.2 -0.1-0.1-0.2-0.3-0.4-0.4 -0.1-0.1-0.1-0.1-0.2-0.2 -0.1-0.1-0.2-0.2-0.4-0.3 -0.1-0.1-0.2-0.1-0.3-0.2 -0.1-0.1-0.3-0.2-0.4-0.2 -0.1 0-0.2-0.1-0.3-0.1 -0.2-0.1-0.3-0.1-0.5-0.2 -0.1 0-0.2-0.1-0.3-0.1 -0.2-0.1-0.5-0.1-0.8-0.2 -0.1 0-0.1 0-0.2 0 -0.3-0.1-0.7-0.1-1.1-0.1 -0.1 0-0.2 0-0.3 0 -0.3 0-0.5 0-0.8 0 -0.3 0-0.6 0-1 0 -0.2 0-0.3 0-0.5 0 -0.5 0-1.1 0.1-1.6 0.2 -20 3.5-26.4 28.5-26.4 39.7 0 0.6 0 1.3 0.1 1.8 0 0.2 0 0.4 0 0.6 0 0.4 0.1 0.8 0.1 1.1 0 0.2 0.1 0.4 0.1 0.6 0.1 0.3 0.1 0.7 0.2 1 0 0.2 0.1 0.4 0.1 0.5 0.1 0.3 0.2 0.6 0.3 0.9 0.1 0.1 0.1 0.3 0.2 0.4 0.1 0.4 0.3 0.7 0.5 1.1 0 0 0 0.1 0.1 0.1 0.2 0.4 0.4 0.7 0.7 1 0.1 0.1 0.2 0.2 0.2 0.3 0.2 0.2 0.3 0.4 0.5 0.6 0.1 0.1 0.2 0.2 0.3 0.3 0.2 0.2 0.4 0.3 0.6 0.5 0.1 0.1 0.2 0.2 0.4 0.3 0.2 0.1 0.4 0.3 0.6 0.4 0.1 0.1 0.2 0.1 0.3 0.2 0.3 0.1 0.6 0.3 0.9 0.4 0.1 0 0.1 0.1 0.2 0.1 0.4 0.1 0.8 0.3 1.2 0.4 0.1 0 0.2 0.1 0.4 0.1 0.3 0.1 0.6 0.1 0.9 0.2 0.2 0 0.3 0 0.5 0.1 0.3 0 0.6 0.1 0.9 0.1 0.2 0 0.3 0 0.5 0 0.2 0 0.5 0 0.7 0 0.4 0 0.9 0 1.3-0.1 0.2 0 0.4 0 0.6 0 0.6-0.1 1.3-0.2 2-0.3 10.2-1.9 17.4-8.6 22.8-16.2 -0.8 4-1.7 8-2.5 12.1 4.7-0.8 9.4-1.5 14.1-2.2 2.6-12.7 5.2-25.5 7.8-38.2 2.4-2.6 4.2-4.3 7.1-4.6 0.1 0 0.2 0 0.4 0 0.1 0 0.1 0 0.2 0 0.1 0 0.1 0.1 0.2 0.1 0 0 0.1 0 0.1 0.1 0.1 0 0.1 0.1 0.2 0.2 0 0 0.1 0.1 0.1 0.1 0 0.1 0.1 0.2 0.1 0.2 0 0 0 0.1 0.1 0.1 0 0.1 0.1 0.2 0.1 0.3 0 0 0 0.1 0 0.1 0.1 0.4 0.2 0.8 0.3 1.3 0 0.1 0 0.2 0.1 0.3 0 0.1 0 0.2 0.1 0.2 0 0.1 0.1 0.2 0.1 0.3 0 0.1 0.1 0.2 0.1 0.2 0 0.1 0.1 0.2 0.1 0.3 0 0.1 0.1 0.2 0.1 0.2 0 0.1 0.1 0.2 0.2 0.3 0 0.1 0.1 0.1 0.1 0.2 0.1 0.1 0.1 0.2 0.2 0.2 0.1 0.1 0.1 0.1 0.2 0.2 0.1 0.1 0.2 0.1 0.3 0.2 0.1 0 0.2 0.1 0.2 0.1 0.1 0 0.2 0.1 0.3 0.1 0.1 0 0.2 0.1 0.3 0.1 0.1 0 0.3 0 0.4 0.1 0.1 0 0.2 0 0.3 0 0.3 0 0.5 0 0.8 0 4.8-0.5 7-4.4 7-7.9C273.8 42.3 273.7 41.6 273.5 41zM223.7 46.8c1.9-0.3 2.4 1.1 2.4 3.6 0 8.1-6.6 16.8-14.2 18.6C213.9 59 218.7 47.7 223.7 46.8z"/>
  <path d="M295.6 65.3c-1.5 5-4 8.8-7.8 9.1 -0.2 0-0.4 0-0.5 0 -0.1 0-0.2 0-0.3 0 -0.1 0-0.2-0.1-0.3-0.1 -0.1 0-0.2-0.1-0.3-0.1 -0.1-0.1-0.2-0.1-0.3-0.2 -0.1-0.1-0.1-0.1-0.2-0.2 -0.1-0.1-0.2-0.2-0.2-0.3 -0.1-0.1-0.1-0.1-0.2-0.2 -0.1-0.1-0.1-0.2-0.2-0.4 0-0.1-0.1-0.2-0.1-0.3 0-0.1-0.1-0.3-0.1-0.4 0-0.1-0.1-0.2-0.1-0.3 0-0.2-0.1-0.3-0.1-0.5 0-0.1 0-0.2 0-0.3 0-0.3 0-0.5 0-0.8 0-0.8 0.1-1.7 0.3-2.5 2.3-11.2 4.7-22.5 7-33.7 -4.7 0.3-9.4 0.6-14.1 1 -2.2 10.7-4.4 21.3-6.6 32 -0.5 2.4-0.8 4.6-0.8 6.4 0 0.5 0 1 0.1 1.4 0 0.2 0 0.3 0 0.4 0 0.3 0.1 0.6 0.1 0.9 0 0.2 0.1 0.3 0.1 0.5 0 0.2 0.1 0.5 0.1 0.7 0 0.2 0.1 0.3 0.1 0.5 0.1 0.2 0.1 0.4 0.2 0.6 0.1 0.2 0.1 0.3 0.2 0.5 0.1 0.2 0.2 0.4 0.2 0.6 0.1 0.1 0.1 0.3 0.2 0.4 0.1 0.2 0.2 0.3 0.3 0.5 0.1 0.1 0.2 0.3 0.2 0.4 0.1 0.1 0.2 0.3 0.3 0.4 0.1 0.1 0.2 0.2 0.3 0.3 0.1 0.1 0.2 0.3 0.4 0.4 0.1 0.1 0.2 0.2 0.3 0.3 0.1 0.1 0.3 0.2 0.4 0.3 0.1 0.1 0.2 0.2 0.3 0.2 0.1 0.1 0.3 0.2 0.4 0.3 0.1 0.1 0.2 0.1 0.3 0.2 0.2 0.1 0.3 0.2 0.5 0.2 0.1 0.1 0.2 0.1 0.4 0.2 0.2 0.1 0.4 0.1 0.5 0.2 0.1 0 0.2 0.1 0.4 0.1 0.2 0.1 0.4 0.1 0.6 0.1 0.1 0 0.2 0 0.3 0.1 0.3 0.1 0.6 0.1 1 0.1 0.1 0 0.1 0 0.2 0 0.3 0 0.5 0 0.8 0 0.4 0 0.7 0 1.1 0 3.3-0.3 7.7-1.5 11.9-6.5 -0.3 1.5-0.6 2.9-1 4.4 -9.3 3.3-16.9 6.9-16.9 16 0 0.4 0 0.8 0.1 1.1 0 0.1 0 0.2 0.1 0.4 0 0.2 0.1 0.5 0.1 0.7 0 0.1 0.1 0.3 0.1 0.4 0.1 0.2 0.1 0.4 0.2 0.6 0 0.1 0.1 0.3 0.2 0.4 0.1 0.2 0.1 0.4 0.2 0.5 0.1 0.1 0.1 0.3 0.2 0.4 0.1 0.2 0.2 0.3 0.3 0.5 0.1 0.1 0.2 0.2 0.3 0.4 0.1 0.1 0.2 0.3 0.3 0.4 0.1 0.1 0.2 0.2 0.3 0.3 0.1 0.1 0.2 0.3 0.4 0.4 0.1 0.1 0.2 0.2 0.3 0.3 0.1 0.1 0.3 0.2 0.4 0.3 0.1 0.1 0.2 0.2 0.4 0.3 0.1 0.1 0.3 0.2 0.4 0.3 0.1 0.1 0.3 0.2 0.4 0.3 0.2 0.1 0.3 0.2 0.5 0.3 0.1 0.1 0.3 0.1 0.4 0.2 0.2 0.1 0.3 0.2 0.5 0.2 0.1 0.1 0.3 0.1 0.4 0.2 0.2 0.1 0.4 0.1 0.5 0.2 0.2 0.1 0.3 0.1 0.5 0.1 0.2 0 0.4 0.1 0.6 0.1 0.2 0 0.3 0.1 0.5 0.1 0.2 0 0.4 0.1 0.6 0.1 0.2 0 0.3 0 0.5 0.1 0.2 0 0.4 0 0.6 0 0.2 0 0.3 0 0.5 0 0.3 0 0.7 0 1 0 6.4-0.5 14.8-3.5 17.8-17.5 4-19 7.9-38 11.9-56.8 -4.7 0-9.4 0.1-14.2 0.3C300 44.2 297.8 54.8 295.6 65.3zM291.4 85.4c-0.4 1.9-0.8 3.9-1.2 5.8 -1.3 5.8-3.8 7.9-5.8 8 -2.2 0.2-3.9-1.5-3.9-2.9C280.6 91.1 285.3 87.8 291.4 85.4z"/>
  <polygon points="52 150.3 47.9 153.3 49.5 148.4 45.4 145.4 50.5 145.4 52 140.6 53.6 145.4 58.7 145.4 54.6 148.4 56.2 153.3 "/>
  <polygon points="6.7 150.3 2.5 153.3 4.1 148.4 0 145.4 5.1 145.4 6.7 140.6 8.2 145.4 13.3 145.4 9.2 148.4 10.8 153.3 "/>
  <polygon points="267.9 150.3 263.8 153.3 265.4 148.4 261.3 145.4 266.4 145.4 267.9 140.6 269.5 145.4 274.6 145.4 270.5 148.4 272.1 153.3 "/>
  <polygon points="289.9 150.3 285.7 153.3 287.3 148.4 283.2 145.4 288.3 145.4 289.9 140.6 291.4 145.4 296.5 145.4 292.4 148.4 294 153.3 "/>
  <polygon points="312.1 150.3 307.9 153.3 309.5 148.4 305.4 145.4 310.5 145.4 312.1 140.6 313.6 145.4 318.7 145.4 314.6 148.4 316.2 153.3 "/>
  <polygon points="29.3 150.3 25.1 153.3 26.7 148.4 22.6 145.4 27.7 145.4 29.3 140.6 30.8 145.4 35.9 145.4 31.8 148.4 33.4 153.3 "/>
  <path fill="#231F20" d="M119 152.1c-0.8 0.4-2.3 0.8-4.2 0.8 -4.5 0-7.8-2.8-7.8-8 0-5 3.4-8.3 8.3-8.3 2 0 3.2 0.4 3.8 0.7l-0.5 1.7c-0.8-0.4-1.9-0.7-3.2-0.7 -3.7 0-6.2 2.4-6.2 6.5 0 3.9 2.2 6.4 6.1 6.4 1.2 0 2.5-0.3 3.3-0.7L119 152.1z"/>
  <path fill="#231F20" d="M131.5 146.8c0 4.2-2.9 6-5.7 6 -3.1 0-5.5-2.3-5.5-5.9 0-3.8 2.5-6 5.6-6C129.3 141 131.5 143.3 131.5 146.8zM122.5 146.9c0 2.5 1.4 4.4 3.5 4.4 2 0 3.5-1.9 3.5-4.4 0-1.9-1-4.4-3.4-4.4C123.6 142.5 122.5 144.8 122.5 146.9z"/>
  <path fill="#231F20" d="M134.1 144.3c0-1.2 0-2.1-0.1-3.1h1.8l0.1 1.8h0.1c0.6-1.1 1.7-2.1 3.6-2.1 1.6 0 2.7 0.9 3.2 2.3h0c0.4-0.6 0.8-1.1 1.3-1.5 0.7-0.5 1.4-0.8 2.5-0.8 1.5 0 3.7 1 3.7 4.9v6.7h-2v-6.4c0-2.2-0.8-3.5-2.5-3.5 -1.2 0-2.1 0.9-2.4 1.9 -0.1 0.3-0.2 0.7-0.2 1v7h-2v-6.8c0-1.8-0.8-3.1-2.4-3.1 -1.3 0-2.2 1-2.6 2.1 -0.1 0.3-0.2 0.7-0.2 1v6.9h-2V144.3z"/>
  <path fill="#231F20" d="M153.7 144.9c0-1.5 0-2.6-0.1-3.7h1.9l0.1 2h0c0.8-1.4 2.2-2.2 4-2.2 2.8 0 4.8 2.3 4.8 5.8 0 4.1-2.5 6.1-5.2 6.1 -1.5 0-2.8-0.7-3.5-1.8h0v6.2h-2V144.9zM155.8 148c0 0.3 0 0.6 0.1 0.8 0.4 1.4 1.6 2.4 3.1 2.4 2.2 0 3.5-1.8 3.5-4.4 0-2.3-1.2-4.2-3.4-4.2 -1.4 0-2.7 1-3.1 2.6 -0.1 0.3-0.1 0.6-0.1 0.8V148z"/>
  <path fill="#231F20" d="M173.4 152.6l-0.2-1.4h-0.1c-0.6 0.9-1.9 1.7-3.5 1.7 -2.3 0-3.5-1.6-3.5-3.3 0-2.8 2.4-4.3 6.8-4.2v-0.2c0-0.9-0.3-2.6-2.6-2.6 -1.1 0-2.2 0.3-3 0.8L167 142c0.9-0.6 2.3-1 3.7-1 3.5 0 4.3 2.4 4.3 4.7v4.3c0 1 0 2 0.2 2.7H173.4zM173.1 146.8c-2.3 0-4.8 0.4-4.8 2.6 0 1.3 0.9 2 2 2 1.5 0 2.4-0.9 2.8-1.9 0.1-0.2 0.1-0.4 0.1-0.7V146.8z"/>
  <path fill="#231F20" d="M178.4 144.3c0-1.2 0-2.1-0.1-3.1h1.8l0.1 1.9h0c0.6-1.1 1.9-2.1 3.8-2.1 1.6 0 4 0.9 4 4.8v6.8h-2.1V146c0-1.8-0.7-3.4-2.6-3.4 -1.4 0-2.4 1-2.8 2.1 -0.1 0.3-0.1 0.6-0.1 1v6.8h-2.1V144.3z"/>
  <path fill="#231F20" d="M191.9 141.2l2.5 6.7c0.3 0.8 0.5 1.6 0.7 2.3h0c0.2-0.7 0.4-1.6 0.7-2.4l2.3-6.7h2.2l-3.1 8.1c-1.5 3.9-2.5 5.9-3.9 7.1 -1 0.9-2 1.2-2.5 1.3l-0.5-1.7c0.5-0.2 1.2-0.5 1.8-1 0.6-0.4 1.3-1.2 1.7-2.3 0.1-0.2 0.2-0.4 0.2-0.5s0-0.3-0.1-0.5l-4.2-10.5H191.9z"/>
  <polygon points="246.3 150.2 242.1 153.2 243.7 148.4 239.6 145.4 244.7 145.3 246.3 140.5 247.9 145.3 252.9 145.4 248.8 148.4 250.4 153.2 "/>
  <polygon points="73.9 150 69.8 153 71.4 148.2 67.3 145.2 72.3 145.2 73.9 140.3 75.5 145.2 80.6 145.2 76.5 148.2 78 153 "/>
  <path fill="#231F20" d="M28.5 44v5.5h-2V36.1h2v5.5h16V44H28.5z"/>
  <path fill="#231F20" d="M26.5 31.8H34v-8.7h-7.5v-2.3h18v2.3h-8.4v8.7h8.4v2.3h-18V31.8z"/>
  <path fill="#231F20" d="M36.1 7.4v7h6.5V6.6h1.9v10.1h-18V7h1.9v7.4h5.7v-7H36.1z"/>
</svg>
 