<svg version="1.1" xmlns="http://www.w3.org/2000/svg" xmlns:xlink="http://www.w3.org/1999/xlink" x="0px" y="0px"
	 viewBox="0 0 48 48" style="enable-background:new 0 0 48 48;" height="18" xml:space="preserve">
	<path fill="#17252A" d="M0.9,6.7c4.8,0,9.6,0,14.4,0c0.3-1.3,0.6-2.6,1-3.8c9.6,0,19.2,0,28.8,0c0.2,0.9,0.3,1.8,0.5,2.7c0.1,0.9,0.3,1.8,0.4,2.7
		c0.1,0.3,0,0.4-0.3,0.5c-0.4,0.2-0.9,0.4-1.3,0.6c-0.1,0.1-0.3,0.3-0.3,0.5c0,7.8,0,15.6,0,23.4c0,0.2,0.1,0.4,0.2,0.6
		c1.1,1.7,2.3,3.4,3.4,5.1c0.1,0.2,0.2,0.5,0.2,0.7c0,1.8,0,3.5,0,5.3c-11.5,0-23,0-34.6,0c0-0.4,0-0.8,0-1.2c0-1.4,0-2.8,0-4.1
		c0-0.3,0.1-0.6,0.2-0.8c1.1-1.7,2.2-3.3,3.3-5c0.1-0.1,0.2-0.3,0.3-0.5c-0.4,0-0.7,0-1.1,0c-1.5,0-3.1,0-4.6-0.2
		c-2.6-0.3-4.7-1.5-6.5-3.4c-2.2-2.3-3.2-5-3.2-8.2c0-3,0-6,0-9c0-0.2-0.1-0.5-0.3-0.7c-0.4-0.5-0.9-1-1.4-1.4
		C0.1,10.7,0,10.5,0,10.4C0.3,9.2,0.6,7.9,0.9,6.7z M9.6,14.4c0,1.1,0,2.1,0,3.2c0,1.5,0,3,0,4.5c0,2,1.4,3.6,3.4,3.8
		c1.2,0.1,2.4,0.1,3.6,0.1c0.2,0,0.4,0,0.6,0c0-3.9,0-7.7,0-11.5C14.6,14.4,12.1,14.4,9.6,14.4z"/>
</svg>
